SplineFontDB: 3.2
FontName: Mezenets-Regular
FullName: Mezenets
FamilyName: Mezenets
Weight: Regular
Copyright: Copyright 2025 The Mezenets Project Authors (https://github.com/slavonic/Mezenets)
UComments: "2014-4-19: Created.+AAoA-See README for more information."
Version: 1.100
ItalicAngle: 0
UnderlinePosition: -80
UnderlineWidth: 50
Ascent: 800
Descent: 200
InvalidEm: 0
woffMajor: 1
woffMinor: 1
LayerCount: 2
Layer: 0 0 "Back" 1
Layer: 1 0 "Fore" 0
XUID: [1021 1004 1038049950 1172439]
FSType: 0
OS2Version: 0
OS2_WeightWidthSlopeOnly: 0
OS2_UseTypoMetrics: 1
CreationTime: 1397905996
ModificationTime: 1755801086
PfmFamily: 17
TTFWeight: 400
TTFWidth: 5
LineGap: 50
VLineGap: 0
OS2TypoAscent: 986
OS2TypoAOffset: 0
OS2TypoDescent: -402
OS2TypoDOffset: 0
OS2TypoLinegap: 50
OS2WinAscent: 986
OS2WinAOffset: 0
OS2WinDescent: 402
OS2WinDOffset: 0
HheadAscent: 986
HheadAOffset: 0
HheadDescent: -402
HheadDOffset: 0
OS2Vendor: 'PfEd'
Lookup: 4 0 0 "Support for deprecated mappings (ccmp)" { "Support for deprecated mappings (ccmp)-1"  } ['ccmp' ('DFLT' <'dflt' > 'cyrl' <'dflt' > 'latn' <'dflt' > ) ]
Lookup: 4 0 0 "'ccmp' Glyph Composition/Decomposition for Slavonic" { "'ccmp' Glyph Composition/Decomposition for Slavonic-1"  } ['ccmp' ('DFLT' <'dflt' > 'cyrl' <'dflt' > 'latn' <'dflt' > ) ]
Lookup: 4 0 0 "'ccmp' Secondary Ligatures for Slavonic" { "'ccmp' Secondary Ligatures for Slavonic 1"  } ['ccmp' ('DFLT' <'dflt' > 'cyrl' <'dflt' > 'latn' <'dflt' > ) ]
Lookup: 4 0 0 "Znamenny Priznakification" { "Znamenny Priznakification-1"  } ['ccmp' ('DFLT' <'dflt' > 'cyrl' <'dflt' > 'latn' <'dflt' > ) ]
Lookup: 4 0 0 "Znamenny Priznakification Round 2" { "Znamenny Priznakification Round 2-1"  } ['ccmp' ('DFLT' <'dflt' > 'cyrl' <'dflt' > 'latn' <'dflt' > ) ]
Lookup: 4 0 0 "Precomposed forms for Znamenny Notation" { "Precomposed forms for Znamenny Notation-1"  } ['ccmp' ('DFLT' <'dflt' > 'cyrl' <'dflt' > 'latn' <'dflt' > ) ]

StartChar: uni0002
Encoding: 2 2 0
Width: 500
Flags: W
HStem: 0 19<66 435> 748 22<66 435>
VStem: 37 22<34 733> 442 22<34 733>
LayerCount: 2
Fore
SplineSet
37 770 m 5
 464 770 l 5
 464 0 l 5
 37 0 l 5
 37 770 l 5
66 748 m 5
 250 398 l 5
 435 748 l 5
 66 748 l 5
258 383 m 5
 442 34 l 5
 442 733 l 5
 258 383 l 5
435 19 m 5
 250 369 l 5
 66 19 l 5
 435 19 l 5
59 733 m 5
 59 34 l 5
 243 383 l 5
 59 733 l 5
EndSplineSet
Validated: 3073
EndChar

StartChar: uni0001
Encoding: 1 1 2
Width: 500
Flags: W
HStem: 0 19<66 435> 748 22<66 435>
VStem: 37 22<34 733> 442 22<34 733>
LayerCount: 2
Fore
SplineSet
37 770 m 5
 464 770 l 5
 464 0 l 5
 37 0 l 5
 37 770 l 5
66 748 m 5
 250 398 l 5
 435 748 l 5
 66 748 l 5
258 383 m 5
 442 34 l 5
 442 733 l 5
 258 383 l 5
435 19 m 5
 250 369 l 5
 66 19 l 5
 435 19 l 5
59 733 m 5
 59 34 l 5
 243 383 l 5
 59 733 l 5
EndSplineSet
Validated: 3073
EndChar

StartChar: uni0003
Encoding: 3 3 3
Width: 500
Flags: W
HStem: 0 19<66 435> 748 22<66 435>
VStem: 37 22<34 733> 442 22<34 733>
LayerCount: 2
Fore
SplineSet
37 770 m 5
 464 770 l 5
 464 0 l 5
 37 0 l 5
 37 770 l 5
66 748 m 5
 250 398 l 5
 435 748 l 5
 66 748 l 5
258 383 m 5
 442 34 l 5
 442 733 l 5
 258 383 l 5
435 19 m 5
 250 369 l 5
 66 19 l 5
 435 19 l 5
59 733 m 5
 59 34 l 5
 243 383 l 5
 59 733 l 5
EndSplineSet
Validated: 3073
EndChar

StartChar: uni0004
Encoding: 4 4 4
Width: 500
Flags: W
HStem: 0 19<66 435> 748 22<66 435>
VStem: 37 22<34 733> 442 22<34 733>
LayerCount: 2
Fore
SplineSet
37 770 m 5
 464 770 l 5
 464 0 l 5
 37 0 l 5
 37 770 l 5
66 748 m 5
 250 398 l 5
 435 748 l 5
 66 748 l 5
258 383 m 5
 442 34 l 5
 442 733 l 5
 258 383 l 5
435 19 m 5
 250 369 l 5
 66 19 l 5
 435 19 l 5
59 733 m 5
 59 34 l 5
 243 383 l 5
 59 733 l 5
EndSplineSet
Validated: 3073
EndChar

StartChar: uni0005
Encoding: 5 5 5
Width: 500
Flags: W
HStem: 0 19<66 435> 748 22<66 435>
VStem: 37 22<34 733> 442 22<34 733>
LayerCount: 2
Fore
SplineSet
37 770 m 5
 464 770 l 5
 464 0 l 5
 37 0 l 5
 37 770 l 5
66 748 m 5
 250 398 l 5
 435 748 l 5
 66 748 l 5
258 383 m 5
 442 34 l 5
 442 733 l 5
 258 383 l 5
435 19 m 5
 250 369 l 5
 66 19 l 5
 435 19 l 5
59 733 m 5
 59 34 l 5
 243 383 l 5
 59 733 l 5
EndSplineSet
Validated: 3073
EndChar

StartChar: uni0006
Encoding: 6 6 6
Width: 500
Flags: W
HStem: 0 19<66 435> 748 22<66 435>
VStem: 37 22<34 733> 442 22<34 733>
LayerCount: 2
Fore
SplineSet
37 770 m 5
 464 770 l 5
 464 0 l 5
 37 0 l 5
 37 770 l 5
66 748 m 5
 250 398 l 5
 435 748 l 5
 66 748 l 5
258 383 m 5
 442 34 l 5
 442 733 l 5
 258 383 l 5
435 19 m 5
 250 369 l 5
 66 19 l 5
 435 19 l 5
59 733 m 5
 59 34 l 5
 243 383 l 5
 59 733 l 5
EndSplineSet
Validated: 3073
EndChar

StartChar: uni0007
Encoding: 7 7 7
Width: 500
Flags: W
HStem: 0 19<66 435> 748 22<66 435>
VStem: 37 22<34 733> 442 22<34 733>
LayerCount: 2
Fore
SplineSet
37 770 m 5
 464 770 l 5
 464 0 l 5
 37 0 l 5
 37 770 l 5
66 748 m 5
 250 398 l 5
 435 748 l 5
 66 748 l 5
258 383 m 5
 442 34 l 5
 442 733 l 5
 258 383 l 5
435 19 m 5
 250 369 l 5
 66 19 l 5
 435 19 l 5
59 733 m 5
 59 34 l 5
 243 383 l 5
 59 733 l 5
EndSplineSet
Validated: 3073
EndChar

StartChar: uni000E
Encoding: 14 14 14
Width: 500
Flags: W
HStem: 0 19<66 435> 748 22<66 435>
VStem: 37 22<34 733> 442 22<34 733>
LayerCount: 2
Fore
SplineSet
37 770 m 5
 464 770 l 5
 464 0 l 5
 37 0 l 5
 37 770 l 5
66 748 m 5
 250 398 l 5
 435 748 l 5
 66 748 l 5
258 383 m 5
 442 34 l 5
 442 733 l 5
 258 383 l 5
435 19 m 5
 250 369 l 5
 66 19 l 5
 435 19 l 5
59 733 m 5
 59 34 l 5
 243 383 l 5
 59 733 l 5
EndSplineSet
Validated: 3073
EndChar

StartChar: uni000F
Encoding: 15 15 15
Width: 500
Flags: W
HStem: 0 19<66 435> 748 22<66 435>
VStem: 37 22<34 733> 442 22<34 733>
LayerCount: 2
Fore
SplineSet
37 770 m 5
 464 770 l 5
 464 0 l 5
 37 0 l 5
 37 770 l 5
66 748 m 5
 250 398 l 5
 435 748 l 5
 66 748 l 5
258 383 m 5
 442 34 l 5
 442 733 l 5
 258 383 l 5
435 19 m 5
 250 369 l 5
 66 19 l 5
 435 19 l 5
59 733 m 5
 59 34 l 5
 243 383 l 5
 59 733 l 5
EndSplineSet
Validated: 3073
EndChar

StartChar: uni0010
Encoding: 16 16 16
Width: 500
Flags: W
HStem: 0 19<66 435> 748 22<66 435>
VStem: 37 22<34 733> 442 22<34 733>
LayerCount: 2
Fore
SplineSet
37 770 m 5
 464 770 l 5
 464 0 l 5
 37 0 l 5
 37 770 l 5
66 748 m 5
 250 398 l 5
 435 748 l 5
 66 748 l 5
258 383 m 5
 442 34 l 5
 442 733 l 5
 258 383 l 5
435 19 m 5
 250 369 l 5
 66 19 l 5
 435 19 l 5
59 733 m 5
 59 34 l 5
 243 383 l 5
 59 733 l 5
EndSplineSet
Validated: 3073
EndChar

StartChar: uni0011
Encoding: 17 17 17
Width: 500
Flags: W
HStem: 0 19<66 435> 748 22<66 435>
VStem: 37 22<34 733> 442 22<34 733>
LayerCount: 2
Fore
SplineSet
37 770 m 5
 464 770 l 5
 464 0 l 5
 37 0 l 5
 37 770 l 5
66 748 m 5
 250 398 l 5
 435 748 l 5
 66 748 l 5
258 383 m 5
 442 34 l 5
 442 733 l 5
 258 383 l 5
435 19 m 5
 250 369 l 5
 66 19 l 5
 435 19 l 5
59 733 m 5
 59 34 l 5
 243 383 l 5
 59 733 l 5
EndSplineSet
Validated: 3073
EndChar

StartChar: uni0012
Encoding: 18 18 18
Width: 500
Flags: W
HStem: 0 19<66 435> 748 22<66 435>
VStem: 37 22<34 733> 442 22<34 733>
LayerCount: 2
Fore
SplineSet
37 770 m 5
 464 770 l 5
 464 0 l 5
 37 0 l 5
 37 770 l 5
66 748 m 5
 250 398 l 5
 435 748 l 5
 66 748 l 5
258 383 m 5
 442 34 l 5
 442 733 l 5
 258 383 l 5
435 19 m 5
 250 369 l 5
 66 19 l 5
 435 19 l 5
59 733 m 5
 59 34 l 5
 243 383 l 5
 59 733 l 5
EndSplineSet
Validated: 3073
EndChar

StartChar: uni0013
Encoding: 19 19 19
Width: 500
Flags: W
HStem: 0 19<66 435> 748 22<66 435>
VStem: 37 22<34 733> 442 22<34 733>
LayerCount: 2
Fore
SplineSet
37 770 m 5
 464 770 l 5
 464 0 l 5
 37 0 l 5
 37 770 l 5
66 748 m 5
 250 398 l 5
 435 748 l 5
 66 748 l 5
258 383 m 5
 442 34 l 5
 442 733 l 5
 258 383 l 5
435 19 m 5
 250 369 l 5
 66 19 l 5
 435 19 l 5
59 733 m 5
 59 34 l 5
 243 383 l 5
 59 733 l 5
EndSplineSet
Validated: 3073
EndChar

StartChar: uni0014
Encoding: 20 20 20
Width: 500
Flags: W
HStem: 0 19<66 435> 748 22<66 435>
VStem: 37 22<34 733> 442 22<34 733>
LayerCount: 2
Fore
SplineSet
37 770 m 5
 464 770 l 5
 464 0 l 5
 37 0 l 5
 37 770 l 5
66 748 m 5
 250 398 l 5
 435 748 l 5
 66 748 l 5
258 383 m 5
 442 34 l 5
 442 733 l 5
 258 383 l 5
435 19 m 5
 250 369 l 5
 66 19 l 5
 435 19 l 5
59 733 m 5
 59 34 l 5
 243 383 l 5
 59 733 l 5
EndSplineSet
Validated: 3073
EndChar

StartChar: uni0015
Encoding: 21 21 21
Width: 500
Flags: W
HStem: 0 19<66 435> 748 22<66 435>
VStem: 37 22<34 733> 442 22<34 733>
LayerCount: 2
Fore
SplineSet
37 770 m 5
 464 770 l 5
 464 0 l 5
 37 0 l 5
 37 770 l 5
66 748 m 5
 250 398 l 5
 435 748 l 5
 66 748 l 5
258 383 m 5
 442 34 l 5
 442 733 l 5
 258 383 l 5
435 19 m 5
 250 369 l 5
 66 19 l 5
 435 19 l 5
59 733 m 5
 59 34 l 5
 243 383 l 5
 59 733 l 5
EndSplineSet
Validated: 3073
EndChar

StartChar: uni0016
Encoding: 22 22 22
Width: 500
Flags: W
HStem: 0 19<66 435> 748 22<66 435>
VStem: 37 22<34 733> 442 22<34 733>
LayerCount: 2
Fore
SplineSet
37 770 m 5
 464 770 l 5
 464 0 l 5
 37 0 l 5
 37 770 l 5
66 748 m 5
 250 398 l 5
 435 748 l 5
 66 748 l 5
258 383 m 5
 442 34 l 5
 442 733 l 5
 258 383 l 5
435 19 m 5
 250 369 l 5
 66 19 l 5
 435 19 l 5
59 733 m 5
 59 34 l 5
 243 383 l 5
 59 733 l 5
EndSplineSet
Validated: 3073
EndChar

StartChar: uni0017
Encoding: 23 23 23
Width: 500
Flags: W
HStem: 0 19<66 435> 748 22<66 435>
VStem: 37 22<34 733> 442 22<34 733>
LayerCount: 2
Fore
SplineSet
37 770 m 5
 464 770 l 5
 464 0 l 5
 37 0 l 5
 37 770 l 5
66 748 m 5
 250 398 l 5
 435 748 l 5
 66 748 l 5
258 383 m 5
 442 34 l 5
 442 733 l 5
 258 383 l 5
435 19 m 5
 250 369 l 5
 66 19 l 5
 435 19 l 5
59 733 m 5
 59 34 l 5
 243 383 l 5
 59 733 l 5
EndSplineSet
Validated: 3073
EndChar

StartChar: uni0018
Encoding: 24 24 24
Width: 500
Flags: W
HStem: 0 19<66 435> 748 22<66 435>
VStem: 37 22<34 733> 442 22<34 733>
LayerCount: 2
Fore
SplineSet
37 770 m 5
 464 770 l 5
 464 0 l 5
 37 0 l 5
 37 770 l 5
66 748 m 5
 250 398 l 5
 435 748 l 5
 66 748 l 5
258 383 m 5
 442 34 l 5
 442 733 l 5
 258 383 l 5
435 19 m 5
 250 369 l 5
 66 19 l 5
 435 19 l 5
59 733 m 5
 59 34 l 5
 243 383 l 5
 59 733 l 5
EndSplineSet
Validated: 3073
EndChar

StartChar: uni0019
Encoding: 25 25 25
Width: 500
Flags: W
HStem: 0 19<66 435> 748 22<66 435>
VStem: 37 22<34 733> 442 22<34 733>
LayerCount: 2
Fore
SplineSet
37 770 m 5
 464 770 l 5
 464 0 l 5
 37 0 l 5
 37 770 l 5
66 748 m 5
 250 398 l 5
 435 748 l 5
 66 748 l 5
258 383 m 5
 442 34 l 5
 442 733 l 5
 258 383 l 5
435 19 m 5
 250 369 l 5
 66 19 l 5
 435 19 l 5
59 733 m 5
 59 34 l 5
 243 383 l 5
 59 733 l 5
EndSplineSet
Validated: 3073
EndChar

StartChar: uni001A
Encoding: 26 26 26
Width: 500
Flags: W
HStem: 0 19<66 435> 748 22<66 435>
VStem: 37 22<34 733> 442 22<34 733>
LayerCount: 2
Fore
SplineSet
37 770 m 5
 464 770 l 5
 464 0 l 5
 37 0 l 5
 37 770 l 5
66 748 m 5
 250 398 l 5
 435 748 l 5
 66 748 l 5
258 383 m 5
 442 34 l 5
 442 733 l 5
 258 383 l 5
435 19 m 5
 250 369 l 5
 66 19 l 5
 435 19 l 5
59 733 m 5
 59 34 l 5
 243 383 l 5
 59 733 l 5
EndSplineSet
Validated: 3073
EndChar

StartChar: uni001B
Encoding: 27 27 27
Width: 500
Flags: W
HStem: 0 19<66 435> 748 22<66 435>
VStem: 37 22<34 733> 442 22<34 733>
LayerCount: 2
Fore
SplineSet
37 770 m 5
 464 770 l 5
 464 0 l 5
 37 0 l 5
 37 770 l 5
66 748 m 5
 250 398 l 5
 435 748 l 5
 66 748 l 5
258 383 m 5
 442 34 l 5
 442 733 l 5
 258 383 l 5
435 19 m 5
 250 369 l 5
 66 19 l 5
 435 19 l 5
59 733 m 5
 59 34 l 5
 243 383 l 5
 59 733 l 5
EndSplineSet
Validated: 3073
EndChar

StartChar: uni001C
Encoding: 28 28 28
Width: 500
Flags: W
HStem: 0 19<66 435> 748 22<66 435>
VStem: 37 22<34 733> 442 22<34 733>
LayerCount: 2
Fore
SplineSet
37 770 m 5
 464 770 l 5
 464 0 l 5
 37 0 l 5
 37 770 l 5
66 748 m 5
 250 398 l 5
 435 748 l 5
 66 748 l 5
258 383 m 5
 442 34 l 5
 442 733 l 5
 258 383 l 5
435 19 m 5
 250 369 l 5
 66 19 l 5
 435 19 l 5
59 733 m 5
 59 34 l 5
 243 383 l 5
 59 733 l 5
EndSplineSet
Validated: 3073
EndChar

StartChar: uni001E
Encoding: 30 30 30
Width: 500
Flags: W
HStem: 0 19<66 435> 748 22<66 435>
VStem: 37 22<34 733> 442 22<34 733>
LayerCount: 2
Fore
SplineSet
37 770 m 5
 464 770 l 5
 464 0 l 5
 37 0 l 5
 37 770 l 5
66 748 m 5
 250 398 l 5
 435 748 l 5
 66 748 l 5
258 383 m 5
 442 34 l 5
 442 733 l 5
 258 383 l 5
435 19 m 5
 250 369 l 5
 66 19 l 5
 435 19 l 5
59 733 m 5
 59 34 l 5
 243 383 l 5
 59 733 l 5
EndSplineSet
Validated: 3073
EndChar

StartChar: uni001F
Encoding: 31 31 31
Width: 500
Flags: W
HStem: 0 19<66 435> 748 22<66 435>
VStem: 37 22<34 733> 442 22<34 733>
LayerCount: 2
Fore
SplineSet
37 770 m 5
 464 770 l 5
 464 0 l 5
 37 0 l 5
 37 770 l 5
66 748 m 5
 250 398 l 5
 435 748 l 5
 66 748 l 5
258 383 m 5
 442 34 l 5
 442 733 l 5
 258 383 l 5
435 19 m 5
 250 369 l 5
 66 19 l 5
 435 19 l 5
59 733 m 5
 59 34 l 5
 243 383 l 5
 59 733 l 5
EndSplineSet
Validated: 3073
EndChar

StartChar: uni25CC
Encoding: 9676 9676 34
Width: 262
VWidth: 700
GlyphClass: 2
Flags: W
HStem: 194 35<114.012 146.999> 221 35<46.003 79.988 180.012 213> 287 35<16.003 49.9999 210.003 244> 360 34<46.0007 79.988 180 212.981> 388 34<114.019 146.993>
VStem: 16 34<287.001 321.988> 46 34<221.001 255.997 360.012 393.997> 114 33<194.003 228.981 388.003 421.988> 180 33<221 255.997 362 397> 210 34<287.001 321.997>
AnchorPoint: "Diacritic" 132 446 basechar 0
AnchorPoint: "Yerok" 196 446 basechar 0
AnchorPoint: "Numeral" 132 308 basechar 0
AnchorPoint: "Omet" 227 288 basechar 0
AnchorPoint: "FinalPitch" 286 492 basechar 0
AnchorPoint: "Lomka" -132 275 basechar 0
AnchorPoint: "Tikhaya" 15 275 basechar 0
AnchorPoint: "Borzaya" -10 305 basechar 0
AnchorPoint: "Zevok" 250 280 basechar 0
AnchorPoint: "Kachka" 130 479 basechar 0
AnchorPoint: "Kupnaya" 130 152 basechar 0
AnchorPoint: "Auxiliary" 62 480 basechar 0
AnchorPoint: "Podvertka" 298 280 basechar 0
AnchorPoint: "Flexion" 198 520 basechar 0
AnchorPoint: "Podtinka" 15 175 basechar 0
AnchorPoint: "TonalRange" 208 530 basechar 0
AnchorPoint: "Zaderzhka" 244 360 basechar 0
AnchorPoint: "Tochka" 268 372 basechar 0
AnchorPoint: "Podchashie" 195 245 basechar 0
AnchorPoint: "PitchMark" 30 490 basechar 0
LayerCount: 2
Fore
SplineSet
34 322 m 0x25
 41 322 42 321 46 316 c 0x23
 50 311 50 312 50 304 c 0x25
 50 296 50 297 46 292 c 0x23
 42 287 42 287 34 287 c 0
 26 287 26 287 21 292 c 0
 16 297 16 297 16 304 c 0
 16 311 17 311 22 316 c 0
 27 321 28 322 34 322 c 0x25
64 256 m 0x63
 72 256 71 255 76 250 c 0
 81 245 80 246 80 238 c 0
 80 231 81 231 76 226 c 0
 71 221 71 221 64 221 c 0
 57 221 57 221 52 226 c 0
 47 231 46 231 46 238 c 0
 46 244 47 244 52 250 c 0
 57 256 58 256 64 256 c 0x63
64 394 m 0x33
 71 394 71 393 76 388 c 0x2b
 81 383 80 384 80 377 c 0
 80 369 81 369 76 364 c 0
 71 359 72 360 64 360 c 0x33
 57 360 57 360 52 365 c 0
 47 370 46 370 46 377 c 0
 46 383 46 382 52 388 c 0x2b
 58 394 58 394 64 394 c 0x33
130 229 m 0xa1
 138 229 138 229 142 224 c 0
 146 219 147 220 147 212 c 0
 147 205 147 205 142 200 c 0
 137 195 137 194 130 194 c 0
 123 194 123 195 118 200 c 0
 113 205 114 205 114 212 c 0
 114 218 114 218 119 224 c 0
 124 230 124 229 130 229 c 0xa1
130 422 m 0x29
 137 422 137 423 142 418 c 0
 147 413 147 413 147 406 c 0
 147 398 146 399 142 394 c 0x31
 138 389 138 388 130 388 c 0x29
 123 388 123 389 118 394 c 0x31
 113 399 114 399 114 406 c 0
 114 412 113 411 119 417 c 0
 125 423 124 422 130 422 c 0x29
196 256 m 0x6180
 204 256 203 255 208 250 c 0
 213 245 213 246 213 238 c 0
 213 230 213 231 208 226 c 0
 203 221 204 221 196 221 c 0
 190 221 189 221 184 226 c 0
 179 231 180 231 180 238 c 0
 180 244 180 244 185 250 c 0
 190 256 190 256 196 256 c 0x6180
196 397 m 0
 204 397 203 397 208 392 c 0
 213 387 213 388 213 380 c 0
 213 372 213 372 208 367 c 0
 203 362 204 362 196 362 c 0
 190 362 189 362 184 367 c 0
 179 372 180 373 180 380 c 0
 180 386 180 385 185 391 c 0
 190 397 190 397 196 397 c 0
228 322 m 0
 235 322 234 321 239 316 c 0
 244 311 244 312 244 304 c 0
 244 296 244 297 240 292 c 0
 236 287 236 287 228 287 c 0
 221 287 221 287 216 292 c 0
 211 297 210 297 210 304 c 0x2140
 210 310 211 310 216 316 c 0
 221 322 222 322 228 322 c 0
EndSplineSet
EndChar

StartChar: uni2010
Encoding: 8208 8208 52
Width: 166
VWidth: 700
Flags: W
HStem: 297 31<20 142>
VStem: 20 122<297 328>
LayerCount: 2
Fore
SplineSet
20 328 m 1
 142 328 l 1
 142 297 l 1
 20 297 l 1
 20 328 l 1
EndSplineSet
EndChar

StartChar: uni2011
Encoding: 8209 8209 53
Width: 166
VWidth: 700
Flags: W
HStem: 297 31<20 142>
VStem: 20 122<297 328>
LayerCount: 2
Fore
SplineSet
20 328 m 1
 142 328 l 1
 142 297 l 1
 20 297 l 1
 20 328 l 1
EndSplineSet
EndChar

StartChar: endash
Encoding: 8211 8211 55
Width: 250
VWidth: 700
Flags: W
HStem: 297 31<0 250>
VStem: 0 250<297 328>
LayerCount: 2
Fore
SplineSet
0 328 m 1
 250 328 l 1
 250 297 l 1
 0 297 l 1
 0 328 l 1
EndSplineSet
EndChar

StartChar: emdash
Encoding: 8212 8212 56
Width: 500
VWidth: 700
Flags: W
HStem: 297 31<0 500>
LayerCount: 2
Fore
SplineSet
0 328 m 1
 500 328 l 1
 500 297 l 1
 0 297 l 1
 0 328 l 1
EndSplineSet
EndChar

StartChar: bar
Encoding: 124 124 58
Width: 122
VWidth: 699
Flags: W
VStem: 44 34<130.003 535.964>
LayerCount: 2
Fore
SplineSet
78 140 m 2
 78 134 69 130 61 130 c 0
 53 130 44 134 44 140 c 2
 44 525 l 2
 44 532 54 536 62 536 c 0
 70 536 78 533 78 525 c 2
 78 140 l 2
EndSplineSet
AlternateSubs2: "Stylistic Alternatives for Znamenny (salt)-1" uniEA1B
EndChar

StartChar: currency
Encoding: 164 164 59
Width: 199
VWidth: 700
Flags: W
HStem: 270 20<76.125 124.773> 360 20<76.125 124.773>
VStem: 45 20<301.036 348.875> 135 20<300.031 349.981>
LayerCount: 2
Fore
SplineSet
76 350 m 0
 72 346 70 342 68 338 c 0
 66 334 65 329 65 325 c 0
 65 321 66 316 68 312 c 0
 70 308 71 304 75 301 c 0
 79 297 83 295 87 293 c 0
 91 291 96 290 100 290 c 0
 104 290 109 291 113 293 c 0
 117 295 121 296 125 300 c 0
 128 304 131 308 133 312 c 0
 135 316 135 321 135 325 c 0
 135 329 135 334 133 338 c 0
 131 342 129 346 125 350 c 0
 121 354 117 356 113 358 c 0
 109 360 104 360 100 360 c 0
 96 360 91 360 87 358 c 0
 83 356 80 354 76 350 c 0
154 258 m 1
 132 280 l 1
 127 277 121 275 116 273 c 0
 111 271 106 270 100 270 c 0
 94 270 90 271 84 273 c 0
 78 275 74 277 69 280 c 1
 46 258 l 1
 39 258 l 1
 38 260 37 263 36 265 c 0
 35 267 34 269 33 271 c 1
 55 294 l 1
 52 298 50 303 48 308 c 0
 46 313 45 319 45 325 c 0
 45 331 46 335 48 341 c 0
 50 347 52 351 55 356 c 1
 33 379 l 1
 34 386 l 1
 36 387 38 388 40 389 c 0
 42 390 44 391 46 392 c 1
 69 370 l 1
 74 373 78 376 84 378 c 0
 90 380 94 380 100 380 c 0
 106 380 111 380 116 378 c 0
 121 376 127 374 132 370 c 1
 154 392 l 1
 160 392 l 1
 167 378 l 1
 145 356 l 1
 148 351 150 347 152 341 c 0
 154 335 155 331 155 325 c 0
 155 319 154 313 152 308 c 0
 150 303 148 298 145 293 c 1
 167 272 l 1
 167 264 l 1
 154 258 l 1
EndSplineSet
EndChar

StartChar: section
Encoding: 167 167 60
Width: 199
VWidth: 700
Flags: W
HStem: 194 20<71.1969 125.717> 450 21G<137 145.5> 481 19<72.4681 119.25>
VStem: 25 27<340.629 396.225> 37 13<238.266 259> 39 27<431.647 476.459> 136 27<220.017 266.287> 148 27<298.427 353.404>
LayerCount: 2
Fore
SplineSet
112 310 m 0xe4
 116 308 119 306 123 304 c 2
 134 298 l 1
 138 301 142 305 144 309 c 0
 146 313 148 319 148 324 c 0
 148 330 146 336 144 341 c 0
 142 346 137 351 132 356 c 0
 127 361 120 366 112 371 c 0
 104 376 95 381 84 387 c 0
 81 389 78 390 75 392 c 0
 72 394 69 396 66 398 c 1xe5
 64 397 62 396 60 394 c 0
 58 392 57 389 56 386 c 0
 55 383 54 381 53 378 c 0
 52 375 52 373 52 371 c 0xf0
 52 365 54 359 56 354 c 0
 58 349 61 344 66 340 c 0
 71 336 77 331 85 326 c 0
 93 321 102 316 112 310 c 0xe4
175 336 m 0
 175 330 174 324 173 319 c 0
 172 314 170 309 168 305 c 0
 166 301 163 296 160 293 c 0
 157 290 154 287 151 285 c 1
 155 281 158 277 160 272 c 0
 162 267 163 261 163 255 c 0xe2
 163 245 162 237 159 230 c 0
 156 223 152 217 148 213 c 0
 144 209 139 204 133 202 c 0
 127 200 122 197 117 196 c 0
 112 195 107 194 102 194 c 0
 97 194 94 194 91 194 c 0
 88 194 84 194 80 195 c 0
 76 196 71 196 67 198 c 0
 63 200 58 202 53 204 c 0
 48 206 43 209 39 211 c 0xe5
 38 211 37 214 37 218 c 0
 37 222 37 227 37 232 c 0
 37 237 37 242 38 248 c 0
 39 254 40 258 41 261 c 1
 50 259 l 1xe8
 50 253 51 247 54 242 c 0
 57 237 61 232 66 228 c 0xe4
 71 224 76 220 82 218 c 0
 88 216 95 214 102 214 c 0
 112 214 120 216 126 221 c 0
 132 226 136 233 136 243 c 0
 136 249 134 254 131 258 c 0
 128 262 125 265 120 268 c 0
 115 271 109 275 103 278 c 0
 97 281 90 283 84 287 c 0
 75 292 67 297 60 302 c 0
 53 307 46 312 41 318 c 0
 36 324 32 331 29 338 c 0
 26 345 25 352 25 361 c 0xf2
 25 366 25 371 27 376 c 0
 29 381 31 386 34 390 c 0
 37 394 39 398 43 401 c 0
 47 404 50 408 54 410 c 1
 49 416 46 422 43 428 c 0
 40 434 39 442 39 450 c 0
 39 458 40 466 44 472 c 0
 48 478 52 484 58 488 c 0
 64 492 70 495 78 497 c 0
 86 499 93 500 101 500 c 0
 105 500 110 499 115 498 c 0
 120 497 125 496 130 494 c 0
 135 492 140 490 144 488 c 0
 148 486 152 484 155 482 c 0
 156 481 157 479 156 476 c 0
 155 473 154 470 153 466 c 0
 152 462 150 459 148 456 c 0
 146 453 146 451 145 450 c 1
 137 452 l 1
 130 462 123 469 116 474 c 0
 109 479 102 481 95 481 c 0
 86 481 79 479 74 475 c 0
 69 471 66 465 66 458 c 0
 66 453 67 449 69 445 c 0
 71 441 74 437 78 433 c 0
 82 429 86 426 92 422 c 0
 98 418 104 414 112 410 c 0
 121 405 129 400 137 395 c 0
 145 390 151 385 157 379 c 0
 163 373 167 368 170 361 c 0
 173 354 175 346 175 336 c 0
EndSplineSet
EndChar

StartChar: brokenbar
Encoding: 166 166 61
Width: 104
VWidth: 700
Flags: W
VStem: 38 28<101 294 347 543>
LayerCount: 2
Fore
SplineSet
66 107 m 1
 63 105 60 102 56 100 c 0
 52 98 49 97 45 96 c 1
 38 101 l 1
 38 288 l 1
 42 290 45 292 48 294 c 0
 51 296 55 298 59 299 c 1
 66 294 l 1
 66 107 l 1
66 353 m 1
 63 351 60 349 56 347 c 0
 52 345 49 344 45 343 c 1
 38 347 l 1
 38 537 l 1
 42 539 45 541 48 543 c 0
 51 545 55 546 59 547 c 1
 66 543 l 1
 66 353 l 1
EndSplineSet
EndChar

StartChar: logicalnot
Encoding: 172 172 62
Width: 199
VWidth: 700
Flags: W
HStem: 305 23<19 162>
VStem: 162 23<243 305>
LayerCount: 2
Fore
SplineSet
185 248 m 1
 182 246 180 244 177 242 c 0
 174 240 172 239 168 238 c 1
 162 243 l 1
 162 305 l 1
 18 305 l 1
 13 310 l 1
 14 313 15 316 16 319 c 0
 17 322 18 325 19 328 c 1
 179 328 l 1
 185 324 l 1
 185 248 l 1
EndSplineSet
EndChar

StartChar: macron
Encoding: 175 175 64
Width: 210
VWidth: 700
Flags: W
HStem: 444 28<39 167>
VStem: 35 137<450 466>
LayerCount: 2
Fore
SplineSet
175 466 m 1
 175 464 175 463 174 461 c 0
 173 459 173 457 172 455 c 0
 171 453 170 451 169 449 c 0
 168 447 167 445 167 444 c 1
 39 444 l 1
 35 450 l 1
 35 452 35 453 36 455 c 0
 37 457 37 459 38 461 c 0
 39 463 40 464 41 466 c 0
 42 468 42 471 43 472 c 1
 171 472 l 1
 175 466 l 1
EndSplineSet
EndChar

StartChar: paragraph
Encoding: 182 182 65
Width: 236
VWidth: 700
Flags: W
HStem: 148 9<92 110.703 203.838 220> 310 17<78.1238 123> 451 17<70.9336 122.626 189.949 220>
VStem: 10 35<347.952 436.179> 123 25<163.047 311 327 446> 164 25<163.102 445.12>
LayerCount: 2
Fore
SplineSet
156 163 m 1
 159 164 164 166 164 170 c 2
 164 441 l 1
 161 442 159 443 156 444 c 2
 148 446 l 1
 148 170 l 2
 148 168 149 167 151 166 c 2
 156 163 l 1
123 327 m 1
 123 450 l 1
 115 451 108 451 102 451 c 0
 75 451 57 436 49 417 c 0
 46 410 45 403 45 395 c 0
 45 365 61 343 82 333 c 0
 91 329 102 327 114 327 c 2
 123 327 l 1
106 468 m 8
 128 468 182 464 204 462 c 1
 220 462 l 1
 220 453 l 1
 210 451 203 449 197 447 c 0
 191 445 189 442 189 440 c 2
 189 170 l 2
 189 168 192 166 197 164 c 0
 202 162 210 159 220 157 c 1
 220 148 l 1
 92 148 l 1
 92 157 l 1
 102 159 110 161 115 163 c 0
 120 165 123 168 123 170 c 2
 123 311 l 1
 117 310 112 310 105 310 c 0
 63 310 32 326 18 354 c 0
 13 364 10 375 10 388 c 0
 10 428 37 452 67 462 c 0
 79 466 92 468 106 468 c 8
EndSplineSet
EndChar

StartChar: degree
Encoding: 176 176 66
Width: 152
VWidth: 700
Flags: W
HStem: 358 19<57.715 93.2728> 438 19<59.15 94.5693>
VStem: 29 23<380.427 432.157> 101 22<383.144 433.381>
LayerCount: 2
Fore
SplineSet
101 407 m 4
 101 411 100 414 99 418 c 4
 98 422 97 425 95 428 c 4
 93 431 91 433 88 435 c 4
 85 437 82 438 79 438 c 4
 75 438 72 437 69 436 c 4
 66 435 62 433 60 430 c 4
 58 427 56 424 54 420 c 4
 52 416 52 412 52 408 c 4
 52 404 53 400 54 396 c 4
 55 392 56 389 58 386 c 4
 60 383 61 382 64 380 c 4
 67 378 70 377 74 377 c 4
 77 377 81 378 84 379 c 4
 87 380 90 383 92 385 c 4
 94 387 96 390 98 394 c 4
 100 398 101 402 101 407 c 4
123 417 m 4
 123 409 121 401 118 394 c 4
 115 387 111 380 106 375 c 4
 101 370 94 365 88 362 c 4
 82 359 74 358 68 358 c 4
 62 358 58 359 53 361 c 4
 48 363 44 366 40 370 c 4
 36 374 34 377 32 382 c 4
 30 387 29 391 29 397 c 4
 29 405 31 414 34 421 c 4
 37 428 42 435 47 440 c 4
 52 445 58 449 64 452 c 4
 70 455 78 457 84 457 c 4
 90 457 94 456 99 454 c 4
 104 452 108 449 112 445 c 4
 116 441 118 437 120 432 c 4
 122 427 123 422 123 417 c 4
EndSplineSet
EndChar

StartChar: u1CF00.ss04
Encoding: 60928 60928 67
Width: 0
VWidth: 999
GlyphClass: 4
Flags: W
HStem: 500 52<260.149 286.37> 539 13<138.007 164 198.086 261>
VStem: 155 36<399.023 537.69> 260 27<504.22 538.717>
DStem2: 8 203 17 191 0.733297 0.679909<-5.4823 111.551>
AnchorPoint: "Stacking" 226 563 basemark 0
AnchorPoint: "Stacking" -14 458 mark 0
AnchorPoint: "PitchMark" 296 543 mark 0
LayerCount: 2
Fore
SplineSet
155 458 m 4x70
 155 485 159 521 164 539 c 5
 145 539 l 6
 139 539 138 542 138 546 c 4
 138 550 140 551 147 552 c 5x70
 193 552 240 552 286 552 c 4
 294 552 295 548 295 544 c 4
 294 538 288 532 287 524 c 4
 284 510 291 500 284 500 c 4xb0
 277 500 263 510 260 519 c 4
 259 525 259 533 261 539 c 5
 240 539 220 539 199 539 c 5
 194 511 191 486 191 456 c 4
 191 438 194 425 194 405 c 4
 194 399 182 399 176 399 c 4
 170 399 158 399 158 405 c 4
 158 421 155 439 155 458 c 4x70
206 357 m 4
 209 357 211 353 211 350 c 4
 211 348 210 346 206 343 c 4
 186 332 151 311 118 286 c 5
 130 270 142 249 144 244 c 4
 148 237 137 235 132 233 c 5
 127 233 122 232 118 239 c 4
 113 247 107 258 98 270 c 5
 64 241 34 208 17 191 c 4
 15 189 14 189 12 189 c 4
 9 189 6 192 6 197 c 4
 6 199 6 201 8 203 c 4
 22 217 54 252 89 282 c 5
 78 295 66 307 60 313 c 4
 49 323 59 324 63 324 c 4
 71 325 79 326 84 322 c 4
 91 317 100 308 109 297 c 5
 142 322 179 345 195 353 c 4
 199 355 203 357 206 357 c 4
EndSplineSet
Validated: 3073
Colour: ffc259
EndChar

StartChar: u1CF01.ss04
Encoding: 60929 60929 68
Width: 0
VWidth: 999
GlyphClass: 4
Flags: W
HStem: 466 14<185 259>
VStem: 148 37<397.04 466 480 538.247> 259 36<397.03 466 480 539.01>
DStem2: 11 203 20 191 0.733297 0.679909<-5.4823 111.551>
AnchorPoint: "Stacking" 234 562 basemark 0
AnchorPoint: "Stacking" -6 457 mark 0
AnchorPoint: "PitchMark" 304 542 mark 0
LayerCount: 2
Fore
SplineSet
304 540 m 4
 304 519 295 490 295 460 c 4
 295 439 298 424 298 403 c 4
 298 397 288 397 281 397 c 4
 273 397 262 397 262 403 c 4
 260 419 258 436 258 454 c 4
 258 458 258 462 259 466 c 5
 185 466 l 5
 185 463 185 460 185 457 c 4
 185 437 188 424 188 403 c 4
 188 397 178 397 171 397 c 4
 163 397 152 397 152 403 c 4
 150 419 148 438 148 457 c 4
 148 487 153 518 159 541 c 4
 160 546 167 547 172 547 c 4
 174 547 176 547 177 547 c 4
 182 547 196 546 194 539 c 4
 191 523 187 503 185 480 c 5
 259 480 l 5
 262 502 265 523 269 541 c 4
 270 546 277 547 282 547 c 4
 284 547 286 547 287 547 c 4
 292 547 304 546 304 540 c 4
209 357 m 4
 212 357 214 353 214 350 c 4
 214 348 213 346 209 343 c 4
 189 332 154 311 121 286 c 5
 133 270 145 249 147 244 c 4
 151 237 140 235 135 233 c 5
 130 233 125 232 121 239 c 4
 116 247 110 258 101 270 c 5
 67 241 37 208 20 191 c 4
 18 189 17 189 15 189 c 4
 12 189 9 192 9 197 c 4
 9 199 9 201 11 203 c 4
 25 217 57 252 92 282 c 5
 81 295 69 307 63 313 c 4
 52 323 62 324 66 324 c 4
 74 325 82 326 87 322 c 4
 94 317 103 308 112 297 c 5
 145 322 182 345 198 353 c 4
 202 355 206 357 209 357 c 4
EndSplineSet
Validated: 3073
Colour: ffc259
EndChar

StartChar: u1CF02.ss04
Encoding: 60930 60930 69
Width: 0
VWidth: 999
GlyphClass: 4
Flags: W
HStem: 399 13<16.0088 40 76.3398 154 189.584 202>
VStem: 37 38<412 543.894> 48 35<511 546> 152 35<412 543.734> 162 34<512 546>
AnchorPoint: "Stacking" 134 561 basemark 0
AnchorPoint: "Stacking" -106 456 mark 0
AnchorPoint: "PitchMark" 234 541 mark 0
LayerCount: 2
Fore
SplineSet
83 544 m 4xa0
 77 519 75 492 75 464 c 4
 75 447 75 429 77 412 c 5
 154 412 l 5
 153 425 152 440 152 455 c 4xd0
 152 488 155 521 162 546 c 4
 164 553 172 552 179 552 c 4
 187 552 198 551 196 544 c 4x88
 190 515 187 493 187 461 c 4
 187 443 189 429 190 412 c 5
 225 412 l 6
 230 412 234 409 234 406 c 4
 234 405 234 405 233 404 c 4
 222 394 195 374 179 348 c 4
 167 330 158 304 157 296 c 4
 157 291 151 290 145 290 c 4
 143 290 140 290 137 290 c 4
 129 290 120 291 123 298 c 4
 125 304 141 334 156 354 c 5
 172 373 195 392 202 399 c 5
 23 399 l 6
 17 399 16 402 16 406 c 4
 16 410 19 412 25 412 c 6
 40 412 l 5
 39 427 37 444 37 462 c 4xd0
 37 491 42 524 48 546 c 4
 50 553 58 553 66 553 c 5
 73 552 84 551 83 544 c 4xa0
EndSplineSet
Validated: 3073
Colour: ffc259
EndChar

StartChar: u1CF03.ss04
Encoding: 60931 60931 70
Width: 0
VWidth: 999
GlyphClass: 4
Flags: W
HStem: 500 52<140.149 166.37> 539 13<18.007 44 78.0862 141>
VStem: 35 36<399.023 537.69> 140 27<504.22 538.717>
AnchorPoint: "Stacking" 105 563 basemark 0
AnchorPoint: "Stacking" -135 458 mark 0
AnchorPoint: "PitchMark" 175 543 mark 0
LayerCount: 2
Fore
SplineSet
35 458 m 4x70
 35 485 39 521 44 539 c 5
 25 539 l 6
 19 539 18 542 18 546 c 4
 18 550 20 551 27 552 c 5x70
 73 552 120 552 166 552 c 4
 174 552 175 548 175 544 c 4
 174 538 168 532 167 524 c 4
 164 510 171 500 164 500 c 4xb0
 157 500 143 510 140 519 c 4
 139 525 139 533 141 539 c 5
 120 539 100 539 79 539 c 5
 74 511 71 486 71 456 c 4
 71 438 74 425 74 405 c 4
 74 399 62 399 56 399 c 4
 50 399 38 399 38 405 c 4
 38 421 35 439 35 458 c 4x70
EndSplineSet
Validated: 3073
Colour: ffc259
EndChar

StartChar: u1CF04.ss04
Encoding: 60932 60932 71
Width: 0
VWidth: 999
GlyphClass: 4
Flags: W
HStem: 470 14<50 124>
VStem: 13 37<401.04 470 484 542.247> 124 36<401.03 470 484 543.01>
AnchorPoint: "Stacking" 99 565 basemark 0
AnchorPoint: "Stacking" -141 460 mark 0
AnchorPoint: "PitchMark" 169 545 mark 0
LayerCount: 2
Fore
SplineSet
169 544 m 4
 169 523 160 494 160 464 c 4
 160 443 163 428 163 407 c 4
 163 401 153 401 146 401 c 4
 138 401 127 401 127 407 c 4
 125 423 123 440 123 458 c 4
 123 462 123 466 124 470 c 5
 50 470 l 5
 50 467 50 464 50 461 c 4
 50 441 53 428 53 407 c 4
 53 401 43 401 36 401 c 4
 28 401 17 401 17 407 c 4
 15 423 13 442 13 461 c 4
 13 491 18 522 24 545 c 4
 25 550 32 551 37 551 c 4
 39 551 41 551 42 551 c 4
 47 551 61 550 59 543 c 4
 56 527 52 507 50 484 c 5
 124 484 l 5
 127 506 130 527 134 545 c 4
 135 550 142 551 147 551 c 4
 149 551 151 551 152 551 c 4
 157 551 169 550 169 544 c 4
EndSplineSet
Validated: 3073
Colour: ffc259
EndChar

StartChar: u1CF05.ss04
Encoding: 60933 60933 72
Width: 0
VWidth: 999
GlyphClass: 4
Flags: W
HStem: 438 68<13.2041 72.9225>
VStem: 11 65<440.608 504.084>
AnchorPoint: "Stacking" 45 553 basemark 0
AnchorPoint: "Stacking" -130 448 mark 0
AnchorPoint: "PitchMark" 160 533 mark 0
LayerCount: 2
Fore
SplineSet
42 438 m 4
 23 438 11 455 11 473 c 4
 11 492 25 506 45 506 c 4
 62 506 76 492 76 474 c 4
 76 455 61 438 42 438 c 4
EndSplineSet
Validated: 3073
Colour: ffc259
EndChar

StartChar: u1CF06.ss04
Encoding: 60934 60934 73
Width: 0
VWidth: 999
GlyphClass: 4
Flags: W
HStem: 400 152
VStem: 110 39<457.814 524> 231 38<431.149 520>
AnchorPoint: "Stacking" -69 463 mark 0
AnchorPoint: "Stacking" 191 568 basemark 0
AnchorPoint: "PitchMark" 291 548 mark 0
LayerCount: 2
Fore
SplineSet
269 544 m 4
 269 540 269 536 269 531 c 4
 269 491 291 437 291 406 c 4
 291 401 280 400 272 400 c 4
 264 400 256 401 255 407 c 4
 249 427 245 438 241 459 c 5
 235 484 231 500 231 520 c 5
 220 510 204 487 188 464 c 4
 173 443 155 413 151 408 c 5
 149 403 136 401 135 407 c 4
 129 427 125 438 121 459 c 5
 115 484 110 505 110 524 c 5
 98 512 82 488 68 469 c 4
 63 463 35 413 31 408 c 5
 29 401 16 401 16 409 c 4
 16 425 56 484 64 495 c 4
 82 519 103 540 116 548 c 4
 120 551 128 552 133 552 c 4
 139 552 150 551 149 544 c 4
 149 542 149 539 149 537 c 4
 149 515 154 474 160 457 c 5
 182 495 210 532 236 548 c 4
 240 551 248 552 253 552 c 4
 259 552 270 551 269 544 c 4
EndSplineSet
Validated: 3073
Colour: ffc259
EndChar

StartChar: u1CF07.ss04
Encoding: 60935 60935 74
Width: 0
VWidth: 999
GlyphClass: 4
Flags: W
HStem: 539 13<17.0536 43 76.8826 153 186.883 215.953>
VStem: 33 38<399.03 537.827> 143 38<399.03 537.827>
AnchorPoint: "Stacking" 116 563 basemark 0
AnchorPoint: "Stacking" -124 458 mark 0
AnchorPoint: "PitchMark" 216 543 mark 0
LayerCount: 2
Fore
SplineSet
143 459 m 4
 143 487 147 518 153 539 c 5
 78 539 l 5
 73 514 71 488 71 461 c 4
 71 442 73 423 73 405 c 4
 73 399 63 399 56 399 c 4
 48 399 37 399 37 405 c 4
 35 421 33 440 33 459 c 4
 33 487 37 518 43 539 c 5
 24 539 l 6
 19 539 17 541 17 544 c 4
 17 549 18 552 26 552 c 4
 41 552 61 552 83 552 c 4
 127 552 178 552 207 552 c 4
 215 552 216 549 216 544 c 5
 215 540 214 539 207 539 c 6
 188 539 l 5
 183 514 181 488 181 461 c 4
 181 442 182 423 183 405 c 4
 183 399 173 399 166 399 c 4
 158 399 147 399 147 405 c 4
 145 421 143 440 143 459 c 4
EndSplineSet
Validated: 3073
Colour: ffc259
EndChar

StartChar: u1CF08.ss04
Encoding: 60936 60936 75
Width: 0
VWidth: 999
GlyphClass: 4
Flags: W
HStem: 398 13<13.0088 42 78.627 152 188.581 211.924> 539 13<36 159 192.883 225.953>
VStem: 39 38<411 537.941> 149 38<411 537.941>
AnchorPoint: "Stacking" 126 560 basemark 0
AnchorPoint: "Stacking" -108 454 mark 0
AnchorPoint: "PitchMark" 226 540 mark 0
LayerCount: 2
Fore
SplineSet
149 460 m 4
 149 488 153 518 159 539 c 5
 84 539 l 5
 79 515 77 489 77 462 c 4
 77 445 78 428 79 411 c 5
 152 411 l 5
 151 425 149 443 149 460 c 4
39 460 m 4
 39 488 43 518 49 539 c 5
 34 539 l 6
 28 539 26 542 27 546 c 4
 27 550 29 552 36 552 c 4
 50 552 70 552 92 552 c 4
 137 552 188 552 217 552 c 4
 225 552 226 549 226 544 c 5
 225 540 224 539 217 539 c 6
 194 539 l 5
 189 515 187 489 187 462 c 4
 187 445 188 427 189 410 c 5
 204 410 l 6
 211 410 212 407 212 403 c 4
 212 399 211 398 203 398 c 6
 20 398 l 6
 14 398 13 401 13 405 c 4
 13 409 16 410 22 410 c 4
 28 411 35 411 42 411 c 5
 41 426 39 443 39 460 c 4
EndSplineSet
Validated: 3073
Colour: ffc259
EndChar

StartChar: u1CF09.ss04
Encoding: 60937 60937 76
Width: 0
VWidth: 999
GlyphClass: 4
Flags: W
HStem: 585 48<163.574 205.426>
VStem: 111 39<457.814 524> 163 43<585.091 632.909> 232 38<431.149 520>
AnchorPoint: "Stacking" 192 568 basemark 0
AnchorPoint: "Stacking" -68 463 mark 0
AnchorPoint: "PitchMark" 292 548 mark 0
LayerCount: 2
Fore
SplineSet
183 585 m 4
 170 585 163 597 163 606 c 4
 163 619 173 633 186 633 c 4
 199 633 206 621 206 612 c 4
 206 599 196 585 183 585 c 4
270 544 m 4
 270 540 270 536 270 531 c 4
 270 491 292 437 292 406 c 4
 292 401 281 400 273 400 c 4
 265 400 257 401 256 407 c 4
 250 427 246 438 242 459 c 5
 236 484 232 500 232 520 c 5
 221 510 205 487 189 464 c 4
 174 443 156 413 152 408 c 5
 150 403 137 401 136 407 c 4
 130 427 126 438 122 459 c 5
 116 484 111 505 111 524 c 5
 99 512 83 488 69 469 c 4
 64 463 36 413 32 408 c 5
 30 401 17 401 17 409 c 4
 17 425 57 484 65 495 c 4
 83 519 104 540 117 548 c 4
 121 551 129 552 134 552 c 4
 140 552 151 551 150 544 c 4
 150 542 150 539 150 537 c 4
 150 515 155 474 161 457 c 5
 183 495 211 532 237 548 c 4
 241 551 249 552 254 552 c 4
 260 552 271 551 270 544 c 4
EndSplineSet
Validated: 3073
Colour: ffc259
EndChar

StartChar: u1CF0A.ss04
Encoding: 60938 60938 77
Width: 0
VWidth: 999
GlyphClass: 4
Flags: W
HStem: 539 13<16.0198 42 75.8652 152 185.865 214.999> 595 48<97.571 139.631>
VStem: 33 36<399.05 537.737> 97 43<595.084 642.99> 143 36<399.05 537.737>
AnchorPoint: "Stacking" 115 563 basemark 0
AnchorPoint: "Stacking" -125 458 mark 0
AnchorPoint: "PitchMark" 215 543 mark 0
LayerCount: 2
Fore
SplineSet
33 458 m 4
 33 487 37 517 42 539 c 5
 24 539 l 6
 18 539 16 542 16 546 c 4
 16 550 19 552 25 552 c 4
 40 552 60 552 82 552 c 4
 126 552 178 552 207 552 c 4
 213 552 215 550 215 546 c 4
 215 541 215 539 206 539 c 6
 187 539 l 5
 182 512 179 488 179 457 c 4
 179 439 181 425 182 405 c 4
 183 399 173 399 166 399 c 4
 158 399 147 399 146 405 c 4
 145 421 143 439 143 458 c 4
 143 487 147 517 152 539 c 5
 77 539 l 5
 72 512 69 488 69 457 c 4
 69 439 71 425 72 405 c 4
 73 399 63 399 56 399 c 4
 48 399 37 399 36 405 c 4
 35 421 33 439 33 458 c 4
117 595 m 4
 105 595 97 606 97 616 c 4
 97 629 107 643 119 643 c 4
 132 643 140 631 140 621 c 4
 140 608 130 595 117 595 c 4
EndSplineSet
Validated: 3073
Colour: ffc259
EndChar

StartChar: u1CF0B.ss04
Encoding: 60939 60939 78
Width: 0
GlyphClass: 4
Flags: W
HStem: 398 13<16.0199 46 81.5809 156 191.581 215.906> 539 13<30.0198 52 85.8826 162 195.883 228.999> 595 48<107.571 149.631>
VStem: 44 36<411 537.848> 107 43<595.084 642.99> 154 36<411.634 537.848>
AnchorPoint: "Stacking" 129 560 basemark 0
AnchorPoint: "Stacking" -111 455 mark 0
AnchorPoint: "PitchMark" 229 540 mark 0
LayerCount: 2
Fore
SplineSet
156 411 m 5
 155 424 154 439 154 455 c 4
 154 485 157 516 162 539 c 5
 87 539 l 5
 82 513 80 484 80 455 c 4
 80 440 81 426 82 411 c 5
 156 411 l 5
46 411 m 5
 45 425 44 440 44 456 c 4
 44 485 47 516 52 539 c 5
 38 539 l 6
 32 539 30 542 30 546 c 4
 30 550 33 552 39 552 c 4
 54 552 74 552 96 552 c 4
 140 552 192 552 221 552 c 4
 227 552 229 550 229 546 c 4
 229 541 229 539 220 539 c 6
 197 539 l 5
 192 513 190 484 190 455 c 4
 190 440 191 425 192 411 c 5
 207 410 l 6
 215 410 216 407 216 403 c 4
 215 399 214 398 207 398 c 6
 24 398 l 6
 18 398 16 401 16 405 c 4
 16 409 19 410 26 410 c 5
 32 411 38 411 46 411 c 5
127 595 m 4
 115 595 107 606 107 616 c 4
 107 629 117 643 129 643 c 4
 142 643 150 631 150 621 c 4
 150 608 140 595 127 595 c 4
EndSplineSet
Validated: 3073
Colour: ffc259
EndChar

StartChar: u1CF19.ss04
Encoding: 60945 60945 79
Width: 0
VWidth: 999
GlyphClass: 4
Flags: W
VStem: 220 39<458.814 525> 341 38<432.149 521>
DStem2: 14 206 23 194 0.733297 0.679909<-5.4823 111.551>
AnchorPoint: "PitchMark" 401 549 mark 0
LayerCount: 2
Fore
SplineSet
379 545 m 4
 379 541 379 537 379 532 c 4
 379 492 401 438 401 407 c 4
 401 402 390 401 382 401 c 4
 374 401 366 402 365 408 c 4
 359 428 355 439 351 460 c 5
 345 485 341 501 341 521 c 5
 330 511 314 488 298 465 c 4
 283 444 265 414 261 409 c 5
 259 404 246 402 245 408 c 4
 239 428 235 439 231 460 c 5
 225 485 220 506 220 525 c 5
 208 513 192 489 178 470 c 4
 173 464 145 414 141 409 c 5
 139 402 126 402 126 410 c 4
 126 426 166 485 174 496 c 4
 192 520 213 541 226 549 c 4
 230 552 238 553 243 553 c 4
 249 553 260 552 259 545 c 4
 259 543 259 540 259 538 c 4
 259 516 264 475 270 458 c 5
 292 496 320 533 346 549 c 4
 350 552 358 553 363 553 c 4
 369 553 380 552 379 545 c 4
212 360 m 4
 215 360 217 356 217 353 c 4
 217 351 216 349 212 346 c 4
 192 335 157 314 124 289 c 5
 136 273 148 252 150 247 c 4
 154 240 143 238 138 236 c 5
 133 236 128 235 124 242 c 4
 119 250 113 261 104 273 c 5
 70 244 40 211 23 194 c 4
 21 192 20 192 18 192 c 4
 15 192 12 195 12 200 c 4
 12 202 12 204 14 206 c 4
 28 220 60 255 95 285 c 5
 84 298 72 310 66 316 c 4
 55 326 65 327 69 327 c 4
 77 328 85 329 90 325 c 4
 97 320 106 311 115 300 c 5
 148 325 185 348 201 356 c 4
 205 358 209 360 212 360 c 4
EndSplineSet
Validated: 3073
Colour: ffc259
EndChar

StartChar: u1CF1B.ss04
Encoding: 60947 60947 80
Width: 0
VWidth: 999
GlyphClass: 4
Flags: W
HStem: 539 13<119.054 145 178.883 255 288.883 317.953>
VStem: 135 38<399.03 537.827> 245 38<399.03 537.827>
DStem2: 13 200 22 188 0.733297 0.679909<-5.4823 111.551>
AnchorPoint: "PitchMark" 320 543 mark 0
LayerCount: 2
Fore
SplineSet
245 459 m 4
 245 487 249 518 255 539 c 5
 180 539 l 5
 175 514 173 488 173 461 c 4
 173 442 175 423 175 405 c 4
 175 399 165 399 158 399 c 4
 150 399 139 399 139 405 c 4
 137 421 135 440 135 459 c 4
 135 487 139 518 145 539 c 5
 126 539 l 6
 121 539 119 541 119 544 c 4
 119 549 120 552 128 552 c 4
 143 552 163 552 185 552 c 4
 229 552 280 552 309 552 c 4
 317 552 318 549 318 544 c 5
 317 540 316 539 309 539 c 6
 290 539 l 5
 285 514 283 488 283 461 c 4
 283 442 284 423 285 405 c 4
 285 399 275 399 268 399 c 4
 260 399 249 399 249 405 c 4
 247 421 245 440 245 459 c 4
211 354 m 4
 214 354 216 350 216 347 c 4
 216 345 215 343 211 340 c 4
 191 329 156 308 123 283 c 5
 135 267 147 246 149 241 c 4
 153 234 142 232 137 230 c 5
 132 230 127 229 123 236 c 4
 118 244 112 255 103 267 c 5
 69 238 39 205 22 188 c 4
 20 186 19 186 17 186 c 4
 14 186 11 189 11 194 c 4
 11 196 11 198 13 200 c 4
 27 214 59 249 94 279 c 5
 83 292 71 304 65 310 c 4
 54 320 64 321 68 321 c 4
 76 322 84 323 89 319 c 4
 96 314 105 305 114 294 c 5
 147 319 184 342 200 350 c 4
 204 352 208 354 211 354 c 4
EndSplineSet
Validated: 3073
Colour: ffc259
EndChar

StartChar: u1CF1D.ss04
Encoding: 60949 60949 81
Width: 0
VWidth: 999
GlyphClass: 4
Flags: W
HStem: 398 13<132.009 161 197.627 271 307.581 330.924> 539 13<155 278 311.883 344.953>
VStem: 158 38<411 537.941> 268 38<411 537.941>
DStem2: 10 192 19 180 0.733297 0.679909<-5.4823 111.551>
AnchorPoint: "PitchMark" 345 540 mark 0
LayerCount: 2
Fore
SplineSet
268 460 m 4
 268 488 272 518 278 539 c 5
 203 539 l 5
 198 515 196 489 196 462 c 4
 196 445 197 428 198 411 c 5
 271 411 l 5
 270 425 268 443 268 460 c 4
158 460 m 4
 158 488 162 518 168 539 c 5
 153 539 l 6
 147 539 145 542 146 546 c 4
 146 550 148 552 155 552 c 4
 169 552 189 552 211 552 c 4
 256 552 307 552 336 552 c 4
 344 552 345 549 345 544 c 5
 344 540 343 539 336 539 c 6
 313 539 l 5
 308 515 306 489 306 462 c 4
 306 445 307 427 308 410 c 5
 323 410 l 6
 330 410 331 407 331 403 c 4
 331 399 330 398 322 398 c 6
 139 398 l 6
 133 398 132 401 132 405 c 4
 132 409 135 410 141 410 c 4
 147 411 154 411 161 411 c 5
 160 426 158 443 158 460 c 4
208 346 m 4
 211 346 213 342 213 339 c 4
 213 337 212 335 208 332 c 4
 188 321 153 300 120 275 c 5
 132 259 144 238 146 233 c 4
 150 226 139 224 134 222 c 5
 129 222 124 221 120 228 c 4
 115 236 109 247 100 259 c 5
 66 230 36 197 19 180 c 4
 17 178 16 178 14 178 c 4
 11 178 8 181 8 186 c 4
 8 188 8 190 10 192 c 4
 24 206 56 241 91 271 c 5
 80 284 68 296 62 302 c 4
 51 312 61 313 65 313 c 4
 73 314 81 315 86 311 c 4
 93 306 102 297 111 286 c 5
 144 311 181 334 197 342 c 4
 201 344 205 346 208 346 c 4
EndSplineSet
Validated: 3073
Colour: ffc259
EndChar

StartChar: uniEE50
Encoding: 61008 61008 82
Width: 1
GlyphClass: 4
Flags: W
HStem: 470 196
VStem: -421 96
AnchorPoint: "TonalRange" -375 581 mark 0
LayerCount: 2
Fore
SplineSet
-409 596 m 1
 -399 625 -370 655 -341 662 c 2
 -325 666 l 1
 -335 542 l 1
 -370 536 -405 502 -421 470 c 1
 -409 596 l 1
EndSplineSet
Validated: 3073
Colour: ffc259
EndChar

StartChar: uniEE51
Encoding: 61009 61009 83
Width: 1
GlyphClass: 4
Flags: W
HStem: 468 315 644 20G<-341 -326.613>
VStem: -421 226
AnchorPoint: "TonalRange" -245 698 mark 0
LayerCount: 2
Fore
SplineSet
-409 595 m 1xa0
 -399 624 -370 654 -341 661 c 1
 -325 664 l 1x60
 -335 540 l 1
 -370 534 -405 500 -421 468 c 1
 -409 595 l 1xa0
-279 714 m 1
 -269 743 -240 774 -211 779 c 1
 -195 783 l 1xa0
 -205 659 l 1
 -240 653 -275 619 -291 587 c 1
 -279 714 l 1
EndSplineSet
Validated: 3073
Colour: ffc259
EndChar

StartChar: uniEE52
Encoding: 61010 61010 84
Width: 1
GlyphClass: 4
Flags: W
HStem: 647 20G<-339 -324.613>
AnchorPoint: "TonalRange" -133 800 mark 0
LayerCount: 2
Fore
SplineSet
-147 836 m 5
 -137 865 -108 896 -79 901 c 5
 -63 905 l 5
 -73 781 l 5
 -108 775 -143 741 -159 709 c 5
 -147 836 l 5
-407 597 m 5
 -397 626 -368 656 -339 663 c 6
 -323 667 l 5
 -333 543 l 5
 -368 537 -403 503 -419 471 c 5
 -407 597 l 5
-277 716 m 5
 -267 745 -238 775 -209 782 c 6
 -193 786 l 5
 -203 662 l 5
 -238 656 -273 622 -289 590 c 5
 -277 716 l 5
EndSplineSet
Validated: 3073
Colour: ffc259
EndChar

StartChar: uniEE54
Encoding: 61012 61012 85
Width: 0
VWidth: 999
GlyphClass: 4
Flags: W
HStem: 355 247
VStem: 3 46
AnchorPoint: "Zaderzhka" -35 440 mark 0
LayerCount: 2
Fore
SplineSet
49 602 m 1
 25 361 l 1
 3 355 l 1
 27 594 l 1
 49 602 l 1
EndSplineSet
Validated: 3073
Colour: ffc259
EndChar

StartChar: uniEE53
Encoding: 61011 61011 86
Width: 0
GlyphClass: 4
Flags: W
HStem: 389 196
VStem: 0 96
AnchorPoint: "Zaderzhka" -17 440 mark 0
LayerCount: 2
Fore
SplineSet
12 515 m 1
 22 544 51 574 80 581 c 2
 96 585 l 1
 86 461 l 1
 51 455 16 421 0 389 c 1
 12 515 l 1
EndSplineSet
Validated: 3073
Colour: ffc259
EndChar

StartChar: uniEE55
Encoding: 61013 61013 87
Width: 0
VWidth: 999
GlyphClass: 4
Flags: W
HStem: -200 94<-279.665 -207.337>
VStem: -315 31<-152 -48.0337> -171 10<-21.1322 2.64682>
AnchorPoint: "Podchashie" -234 0 mark 0
LayerCount: 2
Fore
SplineSet
-161 -14 m 4
 -161 -89 -188 -200 -250 -200 c 4
 -293 -200 -315 -176 -315 -128 c 4
 -315 -99 -307 -66 -292 -27 c 4
 -285 -12 -282 -23 -283 -38 c 4
 -284 -47 -284 -56 -284 -66 c 4
 -284 -89 -266 -106 -241 -106 c 4
 -207 -106 -177 -37 -171 -6 c 4
 -170 0 -168 3 -164 3 c 4
 -162 3 -161 -3 -161 -14 c 4
EndSplineSet
Validated: 3073
Colour: ffc259
EndChar

StartChar: uniEE57
Encoding: 61015 61015 88
Width: 0
VWidth: 999
GlyphClass: 4
Flags: W
HStem: 550 94<-310.076 -238.867>
VStem: -347 31<598 709.699> -324 9<712.188 727.031> -203 10<727.094 752.497>
AnchorPoint: "Flexion" -223 640 mark 0
LayerCount: 2
Fore
SplineSet
-316 690 m 0xd0
 -316 663 -300 644 -273 644 c 0
 -239 644 -209 713 -203 744 c 0
 -202 750 -199 753 -196 753 c 0
 -194 753 -193 751 -193 748 c 0
 -193 743 -193 743 -193 738 c 0
 -193 696 -200 655 -215 615 c 0
 -231 572 -254 550 -283 550 c 0
 -326 550 -347 574 -347 622 c 0xd0
 -347 651 -339 684 -324 723 c 0
 -319 735 -314 729 -315 718 c 0xb0
 -315 712 -316 703 -316 690 c 0xd0
-235 792 m 1
 -248 704 l 1
 -336 763 l 1
 -323 850 l 1
 -235 792 l 1
EndSplineSet
Validated: 3073
Colour: ffc259
EndChar

StartChar: uniEE58
Encoding: 61016 61016 89
Width: 0
VWidth: 999
GlyphClass: 4
Flags: W
HStem: 650 98<-337.018 -245.222>
VStem: -407 13<512.371 545.082> -245 31<608.443 647.656> -245 12<592.054 612.443>
AnchorPoint: "Flexion" -274 640 mark 0
LayerCount: 2
Fore
SplineSet
-281 748 m 0xe0
 -242 748 -214 722 -214 679 c 0xe0
 -214 655 -220 628 -233 599 c 0
 -234 594 -236 592 -240 592 c 0
 -244 592 -246 596 -245 603 c 2xd0
 -245 626 l 2
 -245 642 -256 650 -277 650 c 0
 -314 650 -343 632 -364 596 c 0
 -379 572 -389 547 -394 521 c 0
 -395 515 -398 512 -403 512 c 0
 -406 512 -407 520 -407 534 c 0
 -407 571 -395 642 -382 669 c 0
 -358 722 -324 748 -281 748 c 0xe0
EndSplineSet
Validated: 3073
Colour: ffc259
EndChar

StartChar: uniEE59
Encoding: 61017 61017 90
Width: 0
GlyphClass: 4
Flags: W
HStem: 460 253
VStem: 5 31<502.5 627.462> 122 14<615.528 693.755>
AnchorPoint: "Zaderzhka" 55 380 mark 0
LayerCount: 2
Fore
SplineSet
62 460 m 0
 27 460 5 485 5 520 c 0
 5 537 8 563 14 596 c 0
 23 645 31 673 38 678 c 0
 41 681 43 677 43 668 c 0
 38 621 36 598 36 597 c 0
 36 574 44 560 59 555 c 1
 75 705 l 1
 97 713 l 1
 81 556 l 1
 92 560 101 569 106 584 c 0
 116 614 118 624 122 657 c 0
 124 673 123 695 132 695 c 0
 135 695 136 678 136 644 c 0
 136 610 132 577 125 544 c 0
 114 488 93 460 62 460 c 0
EndSplineSet
Validated: 3073
Colour: ffc259
EndChar

StartChar: uniEEE0
Encoding: 61152 61152 91
Width: 525
GlyphClass: 1
Flags: W
HStem: -11 69<228.932 293.07> 42 69<94.9323 160.249 360.932 425.163> 174 69<34.613 99.3941 422.932 487.163> 319 68<94.2501 160.25> 324 70<361.826 425.163> 376 69<228.508 293.163>
VStem: 33 67<174.596 241.501> 93 68<42.7508 109.864 320.136 385.492> 227 67<-9.86539 56.8636 377.135 443.492> 359 67<42.7508 109.864 324.751 392.764> 421 67<174.751 241.864>
LayerCount: 2
Fore
SplineSet
455 243 m 0x20a0
 469 243 468 243 478 233 c 0
 488 223 488 223 488 208 c 0
 488 193 488 194 479 184 c 0
 470 174 470 174 455 174 c 0
 441 174 441 174 431 184 c 0
 421 194 421 194 421 208 c 0
 421 221 422 221 432 232 c 0
 442 243 442 243 455 243 c 0x20a0
392 394 m 0x28c0
 407 394 406 394 416 384 c 0
 426 374 426 374 426 359 c 0
 426 344 426 344 416 334 c 0
 406 324 407 324 392 324 c 0
 379 324 379 324 369 334 c 0
 359 344 359 345 359 359 c 0
 359 371 360 370 370 382 c 0
 380 394 380 394 392 394 c 0x28c0
392 111 m 0x60c0
 407 111 406 111 416 101 c 0
 426 91 426 91 426 76 c 0
 426 61 426 62 416 52 c 0
 406 42 407 42 392 42 c 0
 379 42 379 42 369 52 c 0
 359 62 359 62 359 76 c 0
 359 89 360 89 370 100 c 0
 380 111 380 111 392 111 c 0x60c0
261 445 m 0x2480
 275 445 274 445 284 435 c 0
 294 425 294 425 294 411 c 0
 294 396 294 397 285 387 c 0x3080
 276 377 276 376 261 376 c 0x2480
 247 376 247 377 237 387 c 0x3080
 227 397 227 397 227 411 c 0
 227 423 227 423 238 434 c 0
 249 445 249 445 261 445 c 0x2480
261 58 m 0xa080
 276 58 276 58 285 48 c 0
 294 38 294 38 294 23 c 0
 294 9 294 10 284 0 c 0
 274 -10 275 -11 261 -11 c 0
 247 -11 247 -10 237 0 c 0
 227 10 227 9 227 23 c 0
 227 36 228 36 238 47 c 0
 248 58 248 58 261 58 c 0xa080
127 387 m 0x3180
 141 387 141 386 151 376 c 0x2580
 161 366 161 368 161 354 c 0
 161 339 162 339 152 329 c 0
 142 319 142 319 127 319 c 0x3180
 113 319 113 320 103 330 c 0
 93 340 93 340 93 354 c 0
 93 366 93 365 104 376 c 0x2580
 115 387 115 387 127 387 c 0x3180
127 111 m 0x6180
 142 111 142 111 152 101 c 0
 162 91 161 91 161 76 c 0
 161 62 161 62 151 52 c 0
 141 42 141 42 127 42 c 0
 113 42 113 42 103 52 c 0
 93 62 93 62 93 76 c 0
 93 89 94 89 104 100 c 0
 114 111 114 111 127 111 c 0x6180
67 243 m 0
 81 243 84 243 93 233 c 0x2180
 102 223 100 223 100 208 c 0
 100 193 100 194 91 184 c 0
 82 174 82 174 67 174 c 0
 52 174 52 174 42 184 c 0
 32 194 33 194 33 208 c 0x2280
 33 222 34 222 44 232 c 0
 54 242 54 243 67 243 c 0
78 149 m 1
 75 110 71.212890625 70.791015625 68 50 c 1
 46 55 l 1
 -7 71 l 1
 4 171 l 1
 56 154 l 1
 78 149 l 1
EndSplineSet
Colour: ffc259
EndChar

StartChar: uniEEE1
Encoding: 61153 61153 92
Width: 525
GlyphClass: 1
Flags: W
HStem: -11 69<228.932 293.07> 42 69<94.9323 160.249 360.932 425.163> 174 69<34.613 99.3941 422.932 487.163> 319 68<94.2501 160.25> 324 70<361.826 425.163> 376 69<228.508 293.163>
VStem: 33 67<174.596 241.501 419.154 471> 41 74<457.364 497> 93 68<42.7508 109.864 320.136 385.492> 227 67<-9.86539 56.8636 377.135 443.492> 359 67<42.7508 109.864 324.751 392.764> 421 67<174.751 241.864>
LayerCount: 2
Fore
SplineSet
115 496 m 2x2140
 115 476 112 436 106 397 c 1
 81.2185961584 405.551929492 55.4322753383 413.098942005 30 421 c 1
 41 521 l 1
 115 497 l 1
 115 496 l 2x2140
455 243 m 0
 469 243 468 243 478 233 c 0
 488 223 488 223 488 208 c 0
 488 193 488 194 479 184 c 0
 470 174 470 174 455 174 c 0
 441 174 441 174 431 184 c 0
 421 194 421 194 421 208 c 0x2050
 421 221 422 221 432 232 c 0
 442 243 442 243 455 243 c 0
392 394 m 0x2860
 407 394 406 394 416 384 c 0
 426 374 426 374 426 359 c 0
 426 344 426 344 416 334 c 0
 406 324 407 324 392 324 c 0
 379 324 379 324 369 334 c 0
 359 344 359 345 359 359 c 0
 359 371 360 370 370 382 c 0
 380 394 380 394 392 394 c 0x2860
392 111 m 0x6060
 407 111 406 111 416 101 c 0
 426 91 426 91 426 76 c 0
 426 61 426 62 416 52 c 0
 406 42 407 42 392 42 c 0
 379 42 379 42 369 52 c 0
 359 62 359 62 359 76 c 0
 359 89 360 89 370 100 c 0
 380 111 380 111 392 111 c 0x6060
261 445 m 0x2440
 275 445 274 445 284 435 c 0
 294 425 294 425 294 411 c 0
 294 396 294 397 285 387 c 0x3040
 276 377 276 376 261 376 c 0x2440
 247 376 247 377 237 387 c 0x3040
 227 397 227 397 227 411 c 0
 227 423 227 423 238 434 c 0
 249 445 249 445 261 445 c 0x2440
261 58 m 0xa040
 276 58 276 58 285 48 c 0
 294 38 294 38 294 23 c 0
 294 9 294 10 284 0 c 0
 274 -10 275 -11 261 -11 c 0
 247 -11 247 -10 237 0 c 0
 227 10 227 9 227 23 c 0
 227 36 228 36 238 47 c 0
 248 58 248 58 261 58 c 0xa040
127 387 m 0x30c0
 141 387 141 386 151 376 c 0x24c0
 161 366 161 368 161 354 c 0
 161 339 162 339 152 329 c 0
 142 319 142 319 127 319 c 0x30c0
 113 319 113 320 103 330 c 0
 93 340 93 340 93 354 c 0
 93 366 93 365 104 376 c 0x24c0
 115 387 115 387 127 387 c 0x30c0
127 111 m 0x60c0
 142 111 142 111 152 101 c 0
 162 91 161 91 161 76 c 0
 161 62 161 62 151 52 c 0
 141 42 141 42 127 42 c 0
 113 42 113 42 103 52 c 0
 93 62 93 62 93 76 c 0
 93 89 94 89 104 100 c 0
 114 111 114 111 127 111 c 0x60c0
67 243 m 0
 81 243 84 243 93 233 c 0x20c0
 102 223 100 223 100 208 c 0
 100 193 100 194 91 184 c 0
 82 174 82 174 67 174 c 0
 52 174 52 174 42 184 c 0
 32 194 33 194 33 208 c 0x2240
 33 222 34 222 44 232 c 0
 54 242 54 243 67 243 c 0
EndSplineSet
Colour: ffc259
EndChar

StartChar: uniEE90
Encoding: 61072 61072 93
Width: 350
VWidth: 0
GlyphClass: 2
Flags: W
HStem: 137 134<231.788 297.641>
VStem: 203 10<83.3571 104.99> 211 118<146.515 250.711> 304 26<10.8683 151.5>
AnchorPoint: "FinalPitch" 555 200 basechar 0
AnchorPoint: "Kachka" 100 270 basechar 0
AnchorPoint: "Zaderzhka" 105 465 basechar 0
AnchorPoint: "Lomka" 540 150 basechar 0
AnchorPoint: "Tikhaya" 0 200 basechar 0
AnchorPoint: "Borzaya" 0 150 basechar 0
AnchorPoint: "Zevok" 140 0 basechar 0
AnchorPoint: "Kupnaya" 50 -50 basechar 0
AnchorPoint: "Podchashie" 190 0 basechar 0
AnchorPoint: "Auxiliary" 180 670 basechar 0
AnchorPoint: "Podvertka" 220 0 basechar 0
AnchorPoint: "Flexion" 395 640 basechar 0
AnchorPoint: "Podtinka" 0 -100 basechar 0
AnchorPoint: "TonalRange" 415 660 basechar 0
AnchorPoint: "Tochka" 360 325 basechar 0
AnchorPoint: "Omet" 205 500 basechar 0
AnchorPoint: "PitchMark" 60 580 basechar 0
LayerCount: 2
Fore
SplineSet
106 343 m 1x80
 127 404 215 423 215 423 c 1
 205 299 l 1
 205 299 125 280 94 217 c 1
 106 343 l 1x80
311 -19 m 0
 310 -23 303 -26 301 -26 c 0
 299 -26 292 -23 293 -16 c 0
 295 -2 304 69 304 82 c 0
 304 112 296 134 265 137 c 1
 259 137 l 2
 244 137 223 130 213 90 c 0
 211 80 201 77 203 87 c 1xd0
 205 116 207 151 211 183 c 0
 217 231 231 271 274 271 c 0
 311 271 325 230 329 177 c 0xa0
 330 167 330 157 330 146 c 0x90
 330 83 319 13 311 -19 c 0
42 87 m 1
 48 105 61 121 79 134 c 0
 97 147 113 156 128 160 c 2
 151 167 l 1
 141 43 l 1
 140 42 137 41 133 40 c 0
 117 36 99 27 78 14 c 0
 57 1 41 -16 30 -39 c 1
 42 87 l 1
EndSplineSet
Validated: 3073
Position2: "Advance neume with cinnabar mark-1" dx=200 dy=0 dh=0 dv=0
Colour: ffc259
EndChar

StartChar: uniEE76
Encoding: 61046 61046 94
Width: 500
VWidth: 0
GlyphClass: 2
Flags: W
HStem: 0 21G<32.0417 40.5>
AnchorPoint: "FinalPitch" 360 770 basechar 0
AnchorPoint: "PitchMark" 130 770 basechar 0
AnchorPoint: "Lomka" -340 150 basechar 0
AnchorPoint: "Tikhaya" 0 370 basechar 0
AnchorPoint: "Borzaya" 0 275 basechar 0
AnchorPoint: "Zevok" 180 60 basechar 0
AnchorPoint: "Kachka" 50 660 basechar 0
AnchorPoint: "Kupnaya" 50 -50 basechar 0
AnchorPoint: "Podchashie" 110 0 basechar 0
AnchorPoint: "Auxiliary" 265 660 basechar 0
AnchorPoint: "Podvertka" 400 170 basechar 0
AnchorPoint: "Flexion" 395 640 basechar 0
AnchorPoint: "Podtinka" 0 -50 basechar 0
AnchorPoint: "TonalRange" 415 660 basechar 0
AnchorPoint: "Tochka" 510 325 basechar 0
AnchorPoint: "Zaderzhka" 560 270 basechar 0
AnchorPoint: "Omet" 425 190 basechar 0
LayerCount: 2
Fore
SplineSet
70 162 m 1
 83 184 100 203 122 220 c 0
 144 237 162 248 177 254 c 2
 199 262 l 1
 184 122 l 1
 176 120 163 115 146 107 c 0
 90 82 51 46 30 0 c 1
 79 480 l 1
 105 496 l 1
 70 162 l 1
389 351 m 1
 399 380 428 410 457 417 c 2
 473 421 l 1
 460 297 l 1
 425 291 391 257 375 225 c 1
 389 351 l 1
253 271 m 1
 263 300 292 330 321 337 c 2
 337 341 l 1
 324 217 l 1
 289 211 255 177 239 145 c 1
 253 271 l 1
EndSplineSet
Validated: 3073
Position2: "Advance neume with cinnabar mark-1" dx=200 dy=0 dh=0 dv=0
Colour: ffc259
EndChar

StartChar: uniEE77
Encoding: 61047 61047 95
Width: 385
VWidth: 0
GlyphClass: 2
Flags: W
HStem: 0 21G<32.0417 40.5> 311.639 132.661<270.82 327.866>
VStem: 315.275 17.7471<146.325 179.143> 333.388 31.7798<210.601 375.24>
DStem2: 30 0 70 162 0.101556 0.99483<165.225 482.495>
AnchorPoint: "FinalPitch" 495 220 basechar 0
AnchorPoint: "PitchMark" 130 770 basechar 0
AnchorPoint: "Podchashie" 110 0 basechar 0
AnchorPoint: "Lomka" 540 150 basechar 0
AnchorPoint: "Tikhaya" 0 -30 basechar 0
AnchorPoint: "Borzaya" 0 150 basechar 0
AnchorPoint: "Zevok" 180 60 basechar 0
AnchorPoint: "Kachka" 50 660 basechar 0
AnchorPoint: "Kupnaya" 50 -50 basechar 0
AnchorPoint: "Auxiliary" 265 660 basechar 0
AnchorPoint: "Podvertka" 250 90 basechar 0
AnchorPoint: "Flexion" 395 640 basechar 0
AnchorPoint: "Podtinka" 0 -50 basechar 0
AnchorPoint: "TonalRange" 415 660 basechar 0
AnchorPoint: "Tochka" 395 325 basechar 0
AnchorPoint: "Zaderzhka" 30 -120 basechar 0
AnchorPoint: "Omet" 205 500 basechar 0
LayerCount: 2
Fore
SplineSet
312.114752662 444.300139102 m 0
 349.108696239 444.300139102 365.167773787 408.985645824 365.167773787 341.494191031 c 0
 365.167773787 271.516497508 353.57219332 217.308572415 333.022460938 152.275390625 c 0
 330.082268361 141.538037605 312.319457847 145.728602491 315.275390625 156.5234375 c 0
 327.233171491 213.68349117 333.38798471 237.692725781 333.38798471 261.862518335 c 0
 333.38798471 293.023646742 319.193083921 311.639469795 288.731653601 311.639469795 c 0
 267.536697447 311.639469795 252.514402947 296.735749636 242.864257812 267.845703125 c 0
 241.448242188 261.930664062 231.842773438 253.580078125 232.609375 264.553710938 c 0
 232.749023438 266.548828125 246.2890625 359.831054688 246.359375 360.829101562 c 0
 257.004287576 416.810195697 279.48854669 444.300139102 312.114752662 444.300139102 c 0
70 162 m 1
 83 184 99 203 121 220 c 0
 143 237 162 248 177 254 c 2
 199 262 l 1
 184 122 l 1
 177 120 164 115 147 107 c 0
 90 81 51 45 30 0 c 1
 79 480 l 1
 105 496 l 1
 70 162 l 1
EndSplineSet
Validated: 3073
Position2: "Advance neume with cinnabar mark-1" dx=200 dy=0 dh=0 dv=0
Colour: ffc259
EndChar

StartChar: uniEE7C
Encoding: 61052 61052 96
Width: 325
VWidth: 0
GlyphClass: 2
Flags: W
HStem: 206 108<82.3961 151.009>
VStem: 24 27<-42.8409 141.765> 158 32<41.3 254>
AnchorPoint: "FinalPitch" 435 560 basechar 0
AnchorPoint: "Lomka" 370 150 basechar 0
AnchorPoint: "Tikhaya" 0 80 basechar 0
AnchorPoint: "Borzaya" 0 150 basechar 0
AnchorPoint: "Zevok" 50 0 basechar 0
AnchorPoint: "Kachka" 50 660 basechar 0
AnchorPoint: "Kupnaya" 50 -50 basechar 0
AnchorPoint: "Auxiliary" 265 660 basechar 0
AnchorPoint: "Podvertka" 330 110 basechar 0
AnchorPoint: "Flexion" 395 640 basechar 0
AnchorPoint: "Podtinka" 0 -100 basechar 0
AnchorPoint: "TonalRange" 415 660 basechar 0
AnchorPoint: "Tochka" 335 325 basechar 0
AnchorPoint: "Zaderzhka" 160 450 basechar 0
AnchorPoint: "Omet" 205 500 basechar 0
AnchorPoint: "Podchashie" 100 -30 basechar 0
AnchorPoint: "PitchMark" 60 580 basechar 0
LayerCount: 2
Fore
SplineSet
299 338 m 1
 287 213 l 1
 210 287 l 1
 222 413 l 1
 299 338 l 1
51 -28 m 0
 51 -34 43 -43 36 -43 c 0
 27 -43 23 -35 24 -20 c 0
 24 48 31 123 42 190 c 0
 51 245 74 314 128 314 c 0
 169 314 190 284 190 224 c 0
 190 164 183 95 170 15 c 0
 167 8 163 4 157 4 c 0
 149 4 148 7 145 12 c 1
 154 87 158 130 158 141 c 0
 158 184 146 206 121 206 c 0
 84 206 62 165 55 82 c 0
 54 45 52 8 51 -28 c 0
173 458 m 1
 161 333 l 1
 85 407 l 1
 96 533 l 1
 173 458 l 1
EndSplineSet
Validated: 3073
Position2: "Advance neume with cinnabar mark-1" dx=200 dy=0 dh=0 dv=0
Colour: ffc259
EndChar

StartChar: uniEE70
Encoding: 61040 61040 97
Width: 625
VWidth: 0
GlyphClass: 2
Flags: W
HStem: 0 21G<32.0417 47.0833> 451 125<478.289 544.923>
AnchorPoint: "FinalPitch" 745 300 basechar 0
AnchorPoint: "Auxiliary" 265 800 basechar 0
AnchorPoint: "PitchMark" 130 770 basechar 0
AnchorPoint: "Lomka" 540 150 basechar 0
AnchorPoint: "Tikhaya" 0 370 basechar 0
AnchorPoint: "Borzaya" 0 150 basechar 0
AnchorPoint: "Zevok" 630 350 basechar 0
AnchorPoint: "Kachka" 50 660 basechar 0
AnchorPoint: "Kupnaya" 50 -50 basechar 0
AnchorPoint: "Podvertka" 630 380 basechar 0
AnchorPoint: "Flexion" 395 640 basechar 0
AnchorPoint: "Podtinka" 0 -50 basechar 0
AnchorPoint: "TonalRange" 415 660 basechar 0
AnchorPoint: "Zaderzhka" 630 460 basechar 0
AnchorPoint: "Omet" 485 300 basechar 0
AnchorPoint: "Tochka" 485 325 basechar 0
AnchorPoint: "Podchashie" 378 245 basechar 0
LayerCount: 2
Fore
SplineSet
519 576 m 0
 544 576 588 521 588 494 c 0
 588 494 588 493 588 492 c 2
 575 374 l 1
 569 402 553 426 526 447 c 0
 523 450 518 451 513 451 c 0
 497 451 469 436 430 407 c 0
 345 344 225 224 71 48 c 1
 30 0 l 1
 79 480 l 1
 105 496 l 1
 70 162 l 1
 168 283 280 395 406 498 c 0
 468 550 506 576 519 576 c 0
EndSplineSet
Validated: 3073
Position2: "Advance neume with cinnabar mark-1" dx=200 dy=0 dh=0 dv=0
Colour: ffc259
EndChar

StartChar: uniEE85
Encoding: 61061 61061 98
Width: 625
VWidth: 0
GlyphClass: 2
Flags: W
HStem: 0 21G<31.8692 33> 451 125<479.474 545.206>
AnchorPoint: "FinalPitch" 745 300 basechar 0
AnchorPoint: "Auxiliary" 265 800 basechar 0
AnchorPoint: "Kachka" 415 720 basechar 0
AnchorPoint: "PitchMark" 110 680 basechar 0
AnchorPoint: "Lomka" 540 150 basechar 0
AnchorPoint: "Tikhaya" 0 370 basechar 0
AnchorPoint: "Borzaya" 0 150 basechar 0
AnchorPoint: "Zevok" 630 350 basechar 0
AnchorPoint: "Kupnaya" 50 -50 basechar 0
AnchorPoint: "Podvertka" 630 380 basechar 0
AnchorPoint: "Flexion" 395 640 basechar 0
AnchorPoint: "Podtinka" 0 -50 basechar 0
AnchorPoint: "TonalRange" 415 660 basechar 0
AnchorPoint: "Zaderzhka" 630 460 basechar 0
AnchorPoint: "Omet" 535 300 basechar 0
AnchorPoint: "Tochka" 535 325 basechar 0
AnchorPoint: "Podchashie" 390 75 basechar 0
LayerCount: 2
Fore
SplineSet
519 576 m 0
 532 576 546 566 564 545 c 0
 581 525 588 508 588 494 c 0
 588 493 588 493 588 492 c 1
 575 374 l 1
 569 402 553 426 526 447 c 0
 523 450 518 451 513 451 c 0
 512 451 l 0
 495 451 470 439 438 414 c 0
 394 381 347 340 296 290 c 0
 245 240 190 182 130 116 c 0
 70 50 36 11 30 0 c 1
 40 107 l 1
 48 122 75 157 120 212 c 0
 218 332 282 396 406 498 c 0
 469 550 506 576 519 576 c 0
175 59 m 1
 196 120 259 129 259 129 c 1
 249 5 l 1
 249 5 194 -4 163 -67 c 1
 175 59 l 1
436 297 m 1
 457 358 520 367 520 367 c 1
 509 243 l 1
 509 243 455 234 424 171 c 1
 436 297 l 1
305 178 m 1
 326 239 389 248 389 248 c 1
 379 124 l 1
 379 124 324 115 293 52 c 1
 305 178 l 1
EndSplineSet
Validated: 3073
Position2: "Advance neume with cinnabar mark-1" dx=200 dy=0 dh=0 dv=0
Colour: ffc259
EndChar

StartChar: uniEE80
Encoding: 61056 61056 99
Width: 225
VWidth: 0
GlyphClass: 2
Flags: W
HStem: 0 106<51.5524 150.3>
VStem: 20 34<107.47 184.16> 62 26<388.5 491.999> 80 11<490.513 513.981> 185 22<149.369 256>
AnchorPoint: "FinalPitch" 405 270 basechar 0
AnchorPoint: "PitchMark" -40 500 basechar 0
AnchorPoint: "Lomka" -340 150 basechar 0
AnchorPoint: "Tikhaya" 0 -30 basechar 0
AnchorPoint: "Borzaya" 0 150 basechar 0
AnchorPoint: "Zevok" 50 0 basechar 0
AnchorPoint: "Kachka" 50 660 basechar 0
AnchorPoint: "Kupnaya" 50 -50 basechar 0
AnchorPoint: "Auxiliary" 20 270 basechar 0
AnchorPoint: "Podvertka" 200 0 basechar 0
AnchorPoint: "Flexion" 395 640 basechar 0
AnchorPoint: "Podtinka" 0 -50 basechar 0
AnchorPoint: "TonalRange" 415 660 basechar 0
AnchorPoint: "Tochka" 235 325 basechar 0
AnchorPoint: "Zaderzhka" 30 -120 basechar 0
AnchorPoint: "Omet" 205 500 basechar 0
AnchorPoint: "Podchashie" 100 -30 basechar 0
LayerCount: 2
Fore
SplineSet
21 50 m 0xe8
 21 52 20 64 20 66 c 0
 20 91 26 168 33 185 c 0
 35 189 38 191 43 191 c 0
 50 191 54 189 54 184 c 0
 54 177 49 155 49 147 c 0
 49 120 60 106 82 106 c 0
 122 106 185 138 185 176 c 0
 185 191 181 206 171 220 c 0
 161 234 148 247 131 262 c 0
 114 277 102 291 95 302 c 0
 73 335 62 370 62 407 c 0xe8
 62 429 73 494 80 507 c 0
 80 512 82 514 86 514 c 0
 89 514 91 511 91 508 c 2
 91 507 l 1xd8
 89 498 88 487 88 474 c 0
 88 433 126 387 149 358 c 0
 164 340 174 327 181 318 c 0
 195 300 207 272 207 240 c 0
 207 164 205 113 200 88 c 0
 193 57 182 33 155 18 c 0
 139 9 110 0 84 0 c 0
 48 0 24 18 21 50 c 0xe8
EndSplineSet
Validated: 3073
Position2: "Advance neume with cinnabar mark-1" dx=200 dy=0 dh=0 dv=0
Colour: ffc259
EndChar

StartChar: uniEEAC
Encoding: 61100 61100 100
Width: 320
VWidth: 0
GlyphClass: 2
Flags: W
HStem: -7 21G<149 172.258>
VStem: 25 270
AnchorPoint: "FinalPitch" 415 220 basechar 0
AnchorPoint: "PitchMark" 130 770 basechar 0
AnchorPoint: "Lomka" 540 150 basechar 0
AnchorPoint: "Tikhaya" 0 -30 basechar 0
AnchorPoint: "Borzaya" 0 150 basechar 0
AnchorPoint: "Zevok" 50 0 basechar 0
AnchorPoint: "Kachka" 50 660 basechar 0
AnchorPoint: "Kupnaya" 50 -50 basechar 0
AnchorPoint: "Auxiliary" 265 660 basechar 0
AnchorPoint: "Podvertka" 200 0 basechar 0
AnchorPoint: "Flexion" 395 640 basechar 0
AnchorPoint: "Podtinka" 0 -50 basechar 0
AnchorPoint: "TonalRange" 415 660 basechar 0
AnchorPoint: "Tochka" 330 325 basechar 0
AnchorPoint: "Zaderzhka" 30 -120 basechar 0
AnchorPoint: "Omet" 205 500 basechar 0
AnchorPoint: "Podchashie" 100 -30 basechar 0
LayerCount: 2
Fore
SplineSet
160 506 m 0
 162 506 169 496 180 476 c 0
 201 439 227 355 232 302 c 1
 244 302 246 305 262 317 c 0
 274 326 286 340 295 359 c 1
 284 248 l 1
 275 222 256 197 232 194 c 1
 225 144 200 60 179 24 c 2
 160 -7 l 1
 138 26 127 46 110 103 c 0
 99 140 92 172 89 201 c 1
 76 201 74 198 58 186 c 0
 46 177 34 163 25 144 c 1
 35 254 l 1
 44 280 64 306 90 308 c 1
 96 357 120 440 140 476 c 0
 151 496 158 506 160 506 c 0
184 109 m 1
 196 133 202 167 202 210 c 0
 202 253 196 287 186 312 c 0
 176 337 159 363 136 390 c 1
 127 369 122 337 122 296 c 0
 122 213 143 151 184 109 c 1
EndSplineSet
Validated: 3073
Position2: "Advance neume with cinnabar mark-1" dx=200 dy=0 dh=0 dv=0
Colour: ffc259
EndChar

StartChar: uniEEAD
Encoding: 61101 61101 101
Width: 290
VWidth: 0
GlyphClass: 2
Flags: W
HStem: 0 21G<24.0417 40.5714 193.121 208.857>
VStem: 22 243
AnchorPoint: "FinalPitch" 415 220 basechar 0
AnchorPoint: "PitchMark" 130 770 basechar 0
AnchorPoint: "Lomka" 540 150 basechar 0
AnchorPoint: "Tikhaya" 0 -30 basechar 0
AnchorPoint: "Borzaya" 0 150 basechar 0
AnchorPoint: "Zevok" 50 0 basechar 0
AnchorPoint: "Kachka" 50 660 basechar 0
AnchorPoint: "Kupnaya" 50 -50 basechar 0
AnchorPoint: "Auxiliary" 265 660 basechar 0
AnchorPoint: "Podvertka" 200 0 basechar 0
AnchorPoint: "Flexion" 395 640 basechar 0
AnchorPoint: "Podtinka" 0 -50 basechar 0
AnchorPoint: "TonalRange" 415 660 basechar 0
AnchorPoint: "Tochka" 300 325 basechar 0
AnchorPoint: "Zaderzhka" 30 -120 basechar 0
AnchorPoint: "Omet" 205 500 basechar 0
AnchorPoint: "Podchashie" 100 -30 basechar 0
LayerCount: 2
Fore
SplineSet
265 496 m 1
 265 496 249 339 216 28 c 1
 191 0 l 1
 198 66 l 1
 60 146 l 1
 56 109 52 70 48 28 c 1
 22 0 l 1
 71 480 l 1
 96 496 l 1
 95 482 92 459 89 427 c 1
 226 347 l 1
 240 480 l 1
 265 496 l 1
216 245 m 1
 79 325 l 1
 76 302 74 276 71 248 c 1
 208 168 l 1
 216 245 l 1
EndSplineSet
Validated: 3073
Position2: "Advance neume with cinnabar mark-1" dx=200 dy=0 dh=0 dv=0
Colour: ffc259
EndChar

StartChar: uniEE87
Encoding: 61063 61063 102
Width: 260
VWidth: 0
GlyphClass: 2
Flags: W
HStem: 1 247
VStem: 20 220
AnchorPoint: "FinalPitch" 445 210 basechar 0
AnchorPoint: "Podvertka" 300 60 basechar 0
AnchorPoint: "Lomka" 330 150 basechar 0
AnchorPoint: "Tikhaya" 0 50 basechar 0
AnchorPoint: "Zaderzhka" 270 180 basechar 0
AnchorPoint: "Borzaya" 0 150 basechar 0
AnchorPoint: "Zevok" 50 0 basechar 0
AnchorPoint: "Kachka" 50 660 basechar 0
AnchorPoint: "Kupnaya" 0 100 basechar 0
AnchorPoint: "Auxiliary" 150 370 basechar 0
AnchorPoint: "Flexion" 395 640 basechar 0
AnchorPoint: "Podtinka" 0 -50 basechar 0
AnchorPoint: "TonalRange" 415 660 basechar 0
AnchorPoint: "Tochka" 270 325 basechar 0
AnchorPoint: "Omet" 205 500 basechar 0
AnchorPoint: "Podchashie" 100 -30 basechar 0
AnchorPoint: "PitchMark" 60 580 basechar 0
LayerCount: 2
Fore
SplineSet
159 248 m 1
 240 129 l 1
 228 1 l 1
 147 121 l 1
 159 248 l 1
32 248 m 1
 113 129 l 1
 101 1 l 1
 20 121 l 1
 32 248 l 1
EndSplineSet
Validated: 3073
Position2: "Advance neume with cinnabar mark-1" dx=200 dy=0 dh=0 dv=0
Colour: ffc259
EndChar

StartChar: uniEE89
Encoding: 61065 61065 103
Width: 215
VWidth: 0
GlyphClass: 2
Flags: W
HStem: 0 21G<64.0087 84>
VStem: 16 177
AnchorPoint: "FinalPitch" 335 220 basechar 0
AnchorPoint: "Lomka" 540 150 basechar 0
AnchorPoint: "Tikhaya" 0 -30 basechar 0
AnchorPoint: "Borzaya" 0 150 basechar 0
AnchorPoint: "Zevok" 50 0 basechar 0
AnchorPoint: "Kachka" 50 660 basechar 0
AnchorPoint: "Kupnaya" 50 -50 basechar 0
AnchorPoint: "Auxiliary" 265 660 basechar 0
AnchorPoint: "Podvertka" 140 0 basechar 0
AnchorPoint: "Flexion" 395 640 basechar 0
AnchorPoint: "Podtinka" 0 -50 basechar 0
AnchorPoint: "TonalRange" 415 660 basechar 0
AnchorPoint: "Tochka" 225 325 basechar 0
AnchorPoint: "Zaderzhka" 30 -120 basechar 0
AnchorPoint: "Omet" 205 500 basechar 0
AnchorPoint: "Podchashie" 74 0 basechar 0
AnchorPoint: "PitchMark" -40 500 basechar 0
LayerCount: 2
Fore
SplineSet
28 271 m 2
 32 304 71 338 98 355 c 1
 111 488 l 1
 133 496 l 1
 120 366 l 1
 142 375 162 381 179 382 c 2
 193 383 l 1
 183 259 l 1
 177 260 168 263 156 261 c 0
 136 258 129 255 108 244 c 1
 84 5 l 1
 62 0 l 1
 85 229 l 1
 65 214 28 169 16 145 c 1
 28 271 l 2
EndSplineSet
Validated: 3073
Position2: "Advance neume with cinnabar mark-1" dx=200 dy=0 dh=0 dv=0
Colour: ffc259
EndChar

StartChar: uniEE71
Encoding: 61041 61041 104
Width: 625
VWidth: 0
GlyphClass: 2
Flags: W
HStem: 0 20G<32.0417 47.0833 280.046 300> 451 125<478.289 544.923>
AnchorPoint: "FinalPitch" 625 770 basechar 0
AnchorPoint: "Podchashie" 420 200 basechar 0
AnchorPoint: "PitchMark" 130 770 basechar 0
AnchorPoint: "Lomka" -340 150 basechar 0
AnchorPoint: "Tikhaya" 0 370 basechar 0
AnchorPoint: "Borzaya" 0 150 basechar 0
AnchorPoint: "Zevok" 630 350 basechar 0
AnchorPoint: "Kachka" 50 660 basechar 0
AnchorPoint: "Kupnaya" 50 -50 basechar 0
AnchorPoint: "Auxiliary" 265 800 basechar 0
AnchorPoint: "Podvertka" 630 380 basechar 0
AnchorPoint: "Flexion" 395 640 basechar 0
AnchorPoint: "Podtinka" 0 -50 basechar 0
AnchorPoint: "TonalRange" 415 660 basechar 0
AnchorPoint: "Zaderzhka" 630 460 basechar 0
AnchorPoint: "Omet" 485 300 basechar 0
AnchorPoint: "Tochka" 485 325 basechar 0
LayerCount: 2
Fore
SplineSet
519 576 m 0
 544 576 588 521 588 494 c 2
 588 494 588 493 588 492 c 2
 575 374 l 1
 569 402 553 426 526 447 c 0
 523 450 518 451 513 451 c 0
 497 451 469 436 430 407 c 0
 401 386 369 358 332 324 c 1
 300 5 l 1
 278 -1 l 1
 309 302 l 1
 242 237 162 152 71 48 c 1
 30 0 l 1
 79 480 l 1
 105 496 l 1
 70 162 l 1
 168 283 280 395 406 498 c 1
 468 550 506 576 519 576 c 0
EndSplineSet
Validated: 3073
Position2: "Advance neume with cinnabar mark-1" dx=200 dy=0 dh=0 dv=0
Colour: ffc259
EndChar

StartChar: uniEE72
Encoding: 61042 61042 105
Width: 625
VWidth: 0
GlyphClass: 2
Flags: W
HStem: 0 21G<32.0168 47.5> 451 125<478.289 545.144>
AnchorPoint: "FinalPitch" 745 300 basechar 0
AnchorPoint: "Auxiliary" 265 800 basechar 0
AnchorPoint: "TonalRange" 425 680 basechar 0
AnchorPoint: "PitchMark" 130 770 basechar 0
AnchorPoint: "Lomka" 540 150 basechar 0
AnchorPoint: "Tikhaya" 0 370 basechar 0
AnchorPoint: "Borzaya" 0 150 basechar 0
AnchorPoint: "Zevok" 630 350 basechar 0
AnchorPoint: "Kachka" 50 660 basechar 0
AnchorPoint: "Kupnaya" 50 -50 basechar 0
AnchorPoint: "Podvertka" 630 380 basechar 0
AnchorPoint: "Flexion" 395 640 basechar 0
AnchorPoint: "Podtinka" 0 -50 basechar 0
AnchorPoint: "Zaderzhka" 630 460 basechar 0
AnchorPoint: "Omet" 485 300 basechar 0
AnchorPoint: "Tochka" 485 325 basechar 0
AnchorPoint: "Podchashie" 378 245 basechar 0
LayerCount: 2
Fore
SplineSet
519 576 m 0
 545 576 588 520 588 493 c 0
 588 492 l 2
 575 374 l 1
 569 402 553 426 526 447 c 0
 523 450 518 451 513 451 c 0
 497 451 469 436 430 407 c 0
 391 378 352 344 312 306 c 0
 227 221 147 136 72 48 c 1
 30 0 l 1
 54 238 l 1
 32 225 16 208 7 188 c 1
 18 290 l 1
 26 314 45 331 65 340 c 1
 79 480 l 1
 81 481 l 1
 93 510 131 542 158 555 c 2
 176 564 l 1
 166 456 l 1
 162 456 153 453 138 447 c 0
 124 441 109 430 96 413 c 1
 70 162 l 1
 168 283 280 395 406 498 c 0
 468 550 506 576 519 576 c 0
EndSplineSet
Validated: 3073
Position2: "Advance neume with cinnabar mark-1" dx=200 dy=0 dh=0 dv=0
Colour: ffc259
EndChar

StartChar: uniEE84
Encoding: 61060 61060 106
Width: 625
VWidth: 0
GlyphClass: 2
Flags: W
HStem: 0 21G<31.8692 33 228.89 242.5> 451 125<479.474 545.206>
AnchorPoint: "FinalPitch" 745 300 basechar 0
AnchorPoint: "Auxiliary" 265 800 basechar 0
AnchorPoint: "Kachka" 415 720 basechar 0
AnchorPoint: "PitchMark" 110 680 basechar 0
AnchorPoint: "Lomka" 540 150 basechar 0
AnchorPoint: "Tikhaya" 0 370 basechar 0
AnchorPoint: "Borzaya" 170 400 basechar 0
AnchorPoint: "Zevok" 630 350 basechar 0
AnchorPoint: "Kupnaya" 50 -50 basechar 0
AnchorPoint: "Podvertka" 630 380 basechar 0
AnchorPoint: "Flexion" 395 640 basechar 0
AnchorPoint: "Podtinka" 0 -50 basechar 0
AnchorPoint: "TonalRange" 415 660 basechar 0
AnchorPoint: "Zaderzhka" 630 460 basechar 0
AnchorPoint: "Omet" 515 300 basechar 0
AnchorPoint: "Tochka" 515 325 basechar 0
AnchorPoint: "Podchashie" 390 75 basechar 0
LayerCount: 2
Fore
SplineSet
519 576 m 0
 532 576 546 566 564 545 c 0
 581 525 588 508 588 494 c 0
 588 493 588 493 588 492 c 1
 575 374 l 1
 569 402 553 426 526 447 c 0
 523 450 518 451 513 451 c 0
 512 451 l 0
 495 451 470 439 438 414 c 0
 394 381 347 340 296 290 c 0
 245 240 190 182 130 116 c 0
 70 50 36 11 30 0 c 1
 40 107 l 1
 48 122 75 157 120 212 c 0
 218 332 282 396 406 498 c 0
 469 550 506 576 519 576 c 0
239 128 m 1
 260 189 323 197 323 197 c 1
 313 73 l 1
 313 73 258 64 227 1 c 1
 239 128 l 1
369 247 m 1
 390 308 453 316 453 316 c 1
 443 192 l 1
 443 192 388 183 357 120 c 1
 369 247 l 1
EndSplineSet
Validated: 3073
Position2: "Advance neume with cinnabar mark-1" dx=200 dy=0 dh=0 dv=0
Colour: ffc259
EndChar

StartChar: uniEE8C
Encoding: 61068 61068 107
Width: 752
VWidth: 0
GlyphClass: 2
Flags: W
HStem: -4 47<153.416 216.758> 3 73<578 635.7> 322 81<483.486 609.356> 329 75<150.465 265.879>
VStem: 20 71<115.362 264.116> 668 64<109.396 265.284>
AnchorPoint: "FinalPitch" 875 220 basechar 0
AnchorPoint: "Lomka" 540 150 basechar 0
AnchorPoint: "Tikhaya" 0 -30 basechar 0
AnchorPoint: "Borzaya" 0 150 basechar 0
AnchorPoint: "Zevok" 50 0 basechar 0
AnchorPoint: "Kachka" 50 660 basechar 0
AnchorPoint: "Kupnaya" 50 -50 basechar 0
AnchorPoint: "Auxiliary" 265 660 basechar 0
AnchorPoint: "Podvertka" 200 0 basechar 0
AnchorPoint: "Flexion" 395 640 basechar 0
AnchorPoint: "Podtinka" 0 -50 basechar 0
AnchorPoint: "TonalRange" 415 660 basechar 0
AnchorPoint: "Tochka" 760 325 basechar 0
AnchorPoint: "Zaderzhka" 30 -120 basechar 0
AnchorPoint: "Omet" 205 500 basechar 0
AnchorPoint: "Podchashie" 400 0 basechar 0
AnchorPoint: "PitchMark" 60 580 basechar 0
LayerCount: 2
Fore
SplineSet
389 286 m 1x9c
 422 338 483 403 559 403 c 0
 614 403 656 383 686 342 c 0
 716 301 732 254 732 202 c 0
 732 150 714 104 679 64 c 0
 644 24 608 3 571 3 c 1
 578 76 l 1
 595 76 612 80 630 88 c 0
 662 103 668 140 668 184 c 0
 668 247 641 290 586 313 c 0
 572 319 556 322 537 322 c 0x6c
 519 322 497 315 472 300 c 0
 432 276 397 237 368 184 c 1
 352 219 298 295 250 316 c 0
 231 324 218 329 208 329 c 0
 198 329 190 328 183 326 c 0
 150 313 124 289 107 253 c 0
 96 231 91 211 91 194 c 0
 91 177 93 163 97 151 c 0
 113 102 153 43 210 43 c 0
 220 43 227 46 230 35 c 0
 232 29 230 24 224 21 c 0
 205 11 156 -4 130 -4 c 0
 83 -4 47 57 34 98 c 0
 25 127 20 150 20 168 c 0
 20 268 51 337 114 376 c 0
 143 395 172 404 201 404 c 0
 278 404 341 365 389 286 c 1x9c
EndSplineSet
Validated: 3073
Position2: "Advance neume with cinnabar mark-1" dx=200 dy=0 dh=0 dv=0
Colour: ffc259
EndChar

StartChar: uniEE8E
Encoding: 61070 61070 108
Width: 440
VWidth: 0
GlyphClass: 2
Flags: W
HStem: 454 21G<302.5 307.5> 545 117<210.931 296.442>
VStem: 183 19<492.423 522.491> 298 27<462.636 537.411>
AnchorPoint: "FinalPitch" 625 200 basechar 0
AnchorPoint: "Kachka" 100 270 basechar 0
AnchorPoint: "Zaderzhka" 105 465 basechar 0
AnchorPoint: "Lomka" 540 150 basechar 0
AnchorPoint: "Tikhaya" 0 200 basechar 0
AnchorPoint: "Borzaya" 0 150 basechar 0
AnchorPoint: "Zevok" 50 0 basechar 0
AnchorPoint: "Kupnaya" 50 -50 basechar 0
AnchorPoint: "Auxiliary" 120 730 basechar 0
AnchorPoint: "Podvertka" 460 -30 basechar 0
AnchorPoint: "Flexion" 395 640 basechar 0
AnchorPoint: "Podtinka" 0 -100 basechar 0
AnchorPoint: "TonalRange" 415 660 basechar 0
AnchorPoint: "Tochka" 450 325 basechar 0
AnchorPoint: "Omet" 205 500 basechar 0
AnchorPoint: "Podchashie" 160 -30 basechar 0
AnchorPoint: "PitchMark" 0 580 basechar 0
LayerCount: 2
Fore
SplineSet
261 662 m 2
 314 662 325 611 325 548 c 0
 325 525 322 496 315 461 c 0
 314 456 310 454 305 454 c 0
 300 454 298 459 298 466 c 0
 298 475 301 488 301 495 c 0
 301 498 301 498 301 501 c 0
 301 528 288 542 261 545 c 1
 255 545 l 2
 226 545 209 531 202 503 c 0
 201 497 195 492 190 492 c 0
 186 492 183 495 183 503 c 0
 185 587 192 662 260 662 c 2
 261 662 l 2
294 160 m 1
 415 79 l 1
 406 -46 l 1
 285 35 l 1
 294 160 l 1
270 400 m 1
 391 319 l 1
 382 194 l 1
 261 275 l 1
 270 400 l 1
106 343 m 1
 112 361 124 377 142 390 c 0
 160 403 177 412 192 416 c 2
 215 423 l 1
 205 299 l 1
 152 282 117 263 94 217 c 1
 106 343 l 1
42 87 m 1
 48 105 60 121 78 134 c 0
 96 147 113 156 128 160 c 2
 151 167 l 1
 141 43 l 1
 88 26 53 7 30 -39 c 1
 42 87 l 1
EndSplineSet
Validated: 3073
LCarets2: 1 229
Position2: "Advance neume with cinnabar mark-1" dx=200 dy=0 dh=0 dv=0
Colour: ffc259
EndChar

StartChar: uniEE8F
Encoding: 61071 61071 109
Width: 240
VWidth: 0
GlyphClass: 2
Flags: W
VStem: 30 185
AnchorPoint: "FinalPitch" 365 200 basechar 0
AnchorPoint: "Kachka" 100 270 basechar 0
AnchorPoint: "Zaderzhka" 105 465 basechar 0
AnchorPoint: "Lomka" 540 150 basechar 0
AnchorPoint: "Tikhaya" 0 200 basechar 0
AnchorPoint: "Borzaya" 0 150 basechar 0
AnchorPoint: "Zevok" 270 500 basechar 0
AnchorPoint: "Kupnaya" 50 -50 basechar 0
AnchorPoint: "Podchashie" 190 0 basechar 0
AnchorPoint: "Auxiliary" 180 670 basechar 0
AnchorPoint: "Podvertka" 220 0 basechar 0
AnchorPoint: "Flexion" 395 640 basechar 0
AnchorPoint: "Podtinka" 0 -100 basechar 0
AnchorPoint: "TonalRange" 415 660 basechar 0
AnchorPoint: "Tochka" 265 325 basechar 0
AnchorPoint: "Omet" 205 500 basechar 0
AnchorPoint: "PitchMark" 50 600 basechar 0
LayerCount: 2
Fore
SplineSet
106 343 m 1
 112 361 124 377 142 390 c 0
 160 403 177 412 192 416 c 2
 215 423 l 1
 205 299 l 1
 183 292 167 286 142 270 c 0
 122 257 105 240 94 217 c 1
 106 343 l 1
42 87 m 1
 48 105 60 121 78 134 c 0
 96 147 113 156 128 160 c 2
 151 167 l 1
 141 43 l 1
 119 36 103 30 78 14 c 0
 58 1 41 -16 30 -39 c 1
 42 87 l 1
EndSplineSet
Validated: 3073
Position2: "Advance neume with cinnabar mark-1" dx=200 dy=0 dh=0 dv=0
Colour: ffc259
EndChar

StartChar: uniEE8D
Encoding: 61069 61069 110
Width: 200
VWidth: 0
GlyphClass: 2
Flags: W
VStem: 23 154
AnchorPoint: "FinalPitch" 365 200 basechar 0
AnchorPoint: "Podvertka" 215 30 basechar 0
AnchorPoint: "Kachka" 100 270 basechar 0
AnchorPoint: "Lomka" 540 150 basechar 0
AnchorPoint: "Tikhaya" 0 200 basechar 0
AnchorPoint: "Zaderzhka" 220 180 basechar 0
AnchorPoint: "Borzaya" 0 150 basechar 0
AnchorPoint: "Zevok" 50 0 basechar 0
AnchorPoint: "Kupnaya" 50 -50 basechar 0
AnchorPoint: "Auxiliary" 265 660 basechar 0
AnchorPoint: "Flexion" 395 640 basechar 0
AnchorPoint: "Podtinka" 0 -50 basechar 0
AnchorPoint: "TonalRange" 415 660 basechar 0
AnchorPoint: "Tochka" 210 325 basechar 0
AnchorPoint: "Omet" 205 500 basechar 0
AnchorPoint: "Podchashie" 100 -30 basechar 0
AnchorPoint: "PitchMark" -40 500 basechar 0
LayerCount: 2
Fore
SplineSet
32 552 m 1
 177 455 l 1
 168 346 l 1
 23 443 l 1
 32 552 l 1
32 184 m 1
 177 87 l 1
 168 -22 l 1
 23 75 l 1
 32 184 l 1
32 368 m 1
 177 271 l 1
 168 162 l 1
 23 259 l 1
 32 368 l 1
EndSplineSet
Validated: 3073
Position2: "Advance neume with cinnabar mark-1" dx=200 dy=0 dh=0 dv=0
Colour: ffc259
EndChar

StartChar: uniEE8A
Encoding: 61066 61066 111
Width: 240
VWidth: 0
GlyphClass: 2
Flags: W
HStem: -4 112<124.008 169.548>
VStem: 68 49<48.5 209.314> 117 52<367.678 508> 117 36<360.356 425.472>
AnchorPoint: "FinalPitch" 415 220 basechar 0
AnchorPoint: "Lomka" 540 150 basechar 0
AnchorPoint: "Tikhaya" 0 -30 basechar 0
AnchorPoint: "Borzaya" 0 150 basechar 0
AnchorPoint: "Zevok" 50 0 basechar 0
AnchorPoint: "Kachka" 50 660 basechar 0
AnchorPoint: "Kupnaya" 50 -50 basechar 0
AnchorPoint: "Auxiliary" 265 660 basechar 0
AnchorPoint: "Podvertka" 200 0 basechar 0
AnchorPoint: "Flexion" 395 640 basechar 0
AnchorPoint: "Podtinka" 0 -50 basechar 0
AnchorPoint: "TonalRange" 415 660 basechar 0
AnchorPoint: "Tochka" 250 325 basechar 0
AnchorPoint: "Zaderzhka" 30 -120 basechar 0
AnchorPoint: "Omet" 205 500 basechar 0
AnchorPoint: "Podchashie" 100 -30 basechar 0
AnchorPoint: "PitchMark" -40 500 basechar 0
LayerCount: 2
Fore
SplineSet
120 553 m 0xa0
 156 546 169 526 169 490 c 0xa0
 169 461 164 418 153 360 c 1x90
 158 361 162 362 167 363 c 2
 199 369 l 1
 189 245 l 1
 164 241 144 236 128 230 c 1
 123 204 117 191 117 167 c 0
 117 131 128 108 156 108 c 0
 164 108 174 113 184 123 c 0
 194 133 203 148 212 169 c 0
 215 177 227 182 224 170 c 0
 216 136 209 94 197 64 c 0
 194 58 190 51 186 42 c 0
 177 24 155 -4 132 -4 c 0
 78 -4 68 20 68 77 c 0xc0
 68 102 75 147 88 211 c 1
 64 198 48 182 39 165 c 1
 51 291 l 1
 58 312 79 330 115 346 c 1
 116 357 117 366 117 375 c 0
 117 414 105 433 74 433 c 0
 53 433 36 418 24 389 c 0
 21 383 18 380 14 380 c 0
 13 380 12 383 12 388 c 0
 12 393 17 411 26 441 c 0
 43 497 43 496 69 532 c 0
 79 546 93 553 110 553 c 0
 115 553 115 553 120 553 c 0xa0
EndSplineSet
Validated: 3073
Position2: "Advance neume with cinnabar mark-1" dx=200 dy=0 dh=0 dv=0
Colour: ffc259
EndChar

StartChar: uniEE8B
Encoding: 61067 61067 112
Width: 230
VWidth: 0
GlyphClass: 2
Flags: W
VStem: 31 40<290 399.582> 155 40<118.412 215>
AnchorPoint: "FinalPitch" 415 220 basechar 0
AnchorPoint: "Lomka" 540 150 basechar 0
AnchorPoint: "Tikhaya" 0 -30 basechar 0
AnchorPoint: "Borzaya" 0 150 basechar 0
AnchorPoint: "Zevok" 50 0 basechar 0
AnchorPoint: "Kachka" 50 660 basechar 0
AnchorPoint: "Kupnaya" 50 -50 basechar 0
AnchorPoint: "Auxiliary" 265 660 basechar 0
AnchorPoint: "Podvertka" 200 0 basechar 0
AnchorPoint: "Flexion" 395 640 basechar 0
AnchorPoint: "Podtinka" 0 -50 basechar 0
AnchorPoint: "TonalRange" 415 660 basechar 0
AnchorPoint: "Tochka" 240 325 basechar 0
AnchorPoint: "Zaderzhka" 30 -120 basechar 0
AnchorPoint: "Omet" 205 500 basechar 0
AnchorPoint: "Podchashie" 100 -30 basechar 0
AnchorPoint: "PitchMark" -40 500 basechar 0
LayerCount: 2
Fore
SplineSet
113 540 m 0
 115 540 122 530 134 508 c 0
 146 486 160 452 174 405 c 0
 188 358 195 310 195 260 c 0
 195 210 188 161 174 114 c 0
 160 67 147 32 133 10 c 2
 113 -23 l 1
 111 -20 108 -15 104 -10 c 0
 87 17 70 53 54 100 c 0
 38 147 31 198 31 252 c 0
 31 306 38 357 52 404 c 0
 66 451 80 486 92 508 c 0
 104 530 111 540 113 540 c 0
83 196 m 1
 95 161 114 130 140 104 c 1
 150 125 155 162 155 215 c 1
 130 212 106 205 83 196 c 1
145 314 m 1
 134 349 114 382 86 413 c 1
 76 388 71 349 71 296 c 2
 71 290 l 1
 90 302 115 310 145 314 c 1
EndSplineSet
Validated: 3073
Position2: "Advance neume with cinnabar mark-1" dx=200 dy=0 dh=0 dv=0
Colour: ffc259
EndChar

StartChar: uniEE73
Encoding: 61043 61043 113
Width: 625
VWidth: 0
GlyphClass: 2
Flags: W
HStem: 0 21G<32.0417 47.0833> 451 125<478.289 544.923>
AnchorPoint: "FinalPitch" 745 300 basechar 0
AnchorPoint: "Auxiliary" 305 800 basechar 0
AnchorPoint: "TonalRange" 465 680 basechar 0
AnchorPoint: "PitchMark" 130 770 basechar 0
AnchorPoint: "Lomka" 540 150 basechar 0
AnchorPoint: "Tikhaya" 0 370 basechar 0
AnchorPoint: "Borzaya" 0 150 basechar 0
AnchorPoint: "Zevok" 630 350 basechar 0
AnchorPoint: "Kupnaya" 50 -50 basechar 0
AnchorPoint: "Kachka" 0 270 basechar 0
AnchorPoint: "Podvertka" 630 380 basechar 0
AnchorPoint: "Flexion" 395 640 basechar 0
AnchorPoint: "Podtinka" 0 -50 basechar 0
AnchorPoint: "Zaderzhka" 630 460 basechar 0
AnchorPoint: "Omet" 485 300 basechar 0
AnchorPoint: "Tochka" 485 325 basechar 0
AnchorPoint: "Podchashie" 378 245 basechar 0
LayerCount: 2
Fore
SplineSet
519 576 m 0
 544 576 588 520 588 494 c 0
 588 493 588 493 588 492 c 2
 575 374 l 1
 569 402 553 426 526 447 c 0
 523 450 518 451 513 451 c 0
 497 451 469 436 430 407 c 0
 345 344 225 224 71 48 c 1
 30 0 l 1
 79 480 l 1
 105 496 l 1
 70 162 l 1
 111 213 164 272 231 339 c 1
 254 577 l 1
 277 585 l 1
 255 364 l 1
 271 380 289 397 308 415 c 1
 326 593 l 1
 349 601 l 1
 333 437 l 1
 355 457 379 477 406 498 c 0
 468 550 506 576 519 576 c 0
EndSplineSet
Validated: 3073
Position2: "Advance neume with cinnabar mark-1" dx=200 dy=0 dh=0 dv=0
Colour: ffc259
EndChar

StartChar: uniEE9B
Encoding: 61083 61083 114
Width: 790
VWidth: 0
GlyphClass: 2
Flags: W
HStem: 0 21G<196.869 198 446.046 466> 451 125<644.474 710.206>
AnchorPoint: "PitchMark" 120 520 basechar 0
AnchorPoint: "Auxiliary" 450 800 basechar 0
AnchorPoint: "FinalPitch" 790 730 basechar 0
AnchorPoint: "Kachka" 465 660 basechar 0
AnchorPoint: "Lomka" -340 150 basechar 0
AnchorPoint: "Tikhaya" 0 100 basechar 0
AnchorPoint: "Borzaya" 0 150 basechar 0
AnchorPoint: "Zevok" 800 350 basechar 0
AnchorPoint: "Kupnaya" 50 -50 basechar 0
AnchorPoint: "Podvertka" 800 380 basechar 0
AnchorPoint: "Flexion" 555 640 basechar 0
AnchorPoint: "Podtinka" 0 -140 basechar 0
AnchorPoint: "TonalRange" 575 660 basechar 0
AnchorPoint: "Zaderzhka" 800 460 basechar 0
AnchorPoint: "Omet" 655 300 basechar 0
AnchorPoint: "Tochka" 655 325 basechar 0
AnchorPoint: "Podchashie" 587 200 basechar 0
LayerCount: 2
Fore
SplineSet
684 576 m 0
 697 576 711 566 729 545 c 0
 746 525 753 508 753 494 c 0
 753 493 753 493 753 492 c 2
 740 374 l 1
 734 402 718 426 691 447 c 0
 688 450 683 451 678 451 c 2
 677 451 l 2
 660 451 635 439 603 414 c 0
 570 389 535 360 498 326 c 1
 466 6 l 1
 444 0 l 1
 475 303 l 1
 470 299 466 295 461 290 c 0
 410 240 355 182 295 116 c 0
 235 50 201 11 195 0 c 1
 205 107 l 1
 213 122 240 157 285 212 c 0
 383 332 447 396 571 498 c 0
 634 550 671 576 684 576 c 0
42 -9 m 1
 63 52 151 71 151 71 c 1
 141 -53 l 1
 141 -53 61 -72 30 -135 c 1
 42 -9 l 1
106 247 m 1
 127 308 215 327 215 327 c 1
 205 203 l 1
 205 203 125 184 94 121 c 1
 106 247 l 1
EndSplineSet
Validated: 3073
Position2: "Advance neume with cinnabar mark-1" dx=200 dy=0 dh=0 dv=0
Colour: ffc259
EndChar

StartChar: uniEE9C
Encoding: 61084 61084 115
Width: 790
VWidth: 0
GlyphClass: 2
Flags: W
HStem: 0 21G<196.869 198> 451 125<644.474 710.206>
AnchorPoint: "PitchMark" 120 520 basechar 0
AnchorPoint: "Auxiliary" 450 800 basechar 0
AnchorPoint: "FinalPitch" 905 300 basechar 0
AnchorPoint: "Kachka" 465 660 basechar 0
AnchorPoint: "Lomka" 705 150 basechar 0
AnchorPoint: "Tikhaya" 0 100 basechar 0
AnchorPoint: "Borzaya" 0 150 basechar 0
AnchorPoint: "Zevok" 800 350 basechar 0
AnchorPoint: "Kupnaya" 50 -50 basechar 0
AnchorPoint: "Podvertka" 800 380 basechar 0
AnchorPoint: "Flexion" 555 640 basechar 0
AnchorPoint: "Podtinka" 0 -140 basechar 0
AnchorPoint: "TonalRange" 575 660 basechar 0
AnchorPoint: "Zaderzhka" 800 460 basechar 0
AnchorPoint: "Omet" 655 300 basechar 0
AnchorPoint: "Tochka" 655 325 basechar 0
AnchorPoint: "Podchashie" 489 -45 basechar 0
LayerCount: 2
Fore
SplineSet
106 247 m 1
 127 308 215 327 215 327 c 1
 205 203 l 1
 205 203 125 184 94 121 c 1
 106 247 l 1
42 -9 m 1
 63 52 151 71 151 71 c 1
 141 -53 l 1
 141 -53 61 -72 30 -135 c 1
 42 -9 l 1
684 576 m 0
 697 576 711 566 729 545 c 0
 746 525 753 508 753 494 c 0
 753 493 753 493 753 492 c 1
 740 374 l 1
 734 402 718 426 691 447 c 0
 688 450 683 451 678 451 c 0
 677 451 l 0
 660 451 635 439 603 414 c 0
 559 381 512 340 461 290 c 0
 410 240 355 182 295 116 c 0
 235 50 201 11 195 0 c 1
 205 107 l 1
 213 122 240 157 285 212 c 0
 383 332 447 396 571 498 c 0
 634 550 671 576 684 576 c 0
513 47 m 1
 507 -17 499 -90 499 -90 c 1
 477 -96 l 1
 489 34 l 1
 469 22 451 5 440 -17 c 1
 452 110 l 1
 460 133 480 150 502 162 c 1
 510 243 l 1
 533 251 l 1
 529 208 529 218 525 174 c 1
 553 186 577 190 577 190 c 1
 567 66 l 1
 567 66 542 60 513 47 c 1
EndSplineSet
Validated: 3073
Position2: "Advance neume with cinnabar mark-1" dx=200 dy=0 dh=0 dv=0
Colour: ffc259
EndChar

StartChar: uniEE91
Encoding: 61073 61073 116
Width: 365
VWidth: 0
GlyphClass: 2
Flags: W
HStem: 0 21G<240 260>
VStem: 30 309
AnchorPoint: "FinalPitch" 485 240 basechar 0
AnchorPoint: "Kachka" 100 270 basechar 0
AnchorPoint: "Zaderzhka" 105 465 basechar 0
AnchorPoint: "Lomka" 540 150 basechar 0
AnchorPoint: "Tikhaya" 0 200 basechar 0
AnchorPoint: "Borzaya" 0 150 basechar 0
AnchorPoint: "Zevok" 140 0 basechar 0
AnchorPoint: "Kupnaya" 50 -50 basechar 0
AnchorPoint: "Podchashie" 190 0 basechar 0
AnchorPoint: "Auxiliary" 180 670 basechar 0
AnchorPoint: "Podvertka" 220 0 basechar 0
AnchorPoint: "Flexion" 395 640 basechar 0
AnchorPoint: "Podtinka" 0 -100 basechar 0
AnchorPoint: "TonalRange" 415 660 basechar 0
AnchorPoint: "Tochka" 375 325 basechar 0
AnchorPoint: "Omet" 205 500 basechar 0
AnchorPoint: "PitchMark" 60 580 basechar 0
LayerCount: 2
Fore
SplineSet
106 343 m 1
 127 404 215 423 215 423 c 1
 205 299 l 1
 205 299 125 280 94 217 c 1
 106 343 l 1
42 87 m 1
 63 148 151 167 151 167 c 1
 141 43 l 1
 141 43 61 24 30 -39 c 1
 42 87 l 1
274 143 m 1
 268 79 260 6 260 6 c 1
 238 0 l 1
 251 130 l 1
 231 118 212 101 201 79 c 1
 213 206 l 1
 221 229 241 246 263 258 c 1
 271 339 l 1
 294 347 l 1
 290 304 290 314 286 270 c 1
 314 282 339 286 339 286 c 1
 328 162 l 1
 328 162 303 156 274 143 c 1
EndSplineSet
Validated: 3073
Position2: "Advance neume with cinnabar mark-1" dx=200 dy=0 dh=0 dv=0
Colour: ffc259
EndChar

StartChar: uniEE9A
Encoding: 61082 61082 117
Width: 790
VWidth: 0
GlyphClass: 2
Flags: W
HStem: 0 21G<196.869 198> 451 125<644.474 710.206>
AnchorPoint: "PitchMark" 120 520 basechar 0
AnchorPoint: "Auxiliary" 450 800 basechar 0
AnchorPoint: "FinalPitch" 905 300 basechar 0
AnchorPoint: "Kachka" 465 660 basechar 0
AnchorPoint: "Lomka" 705 150 basechar 0
AnchorPoint: "Tikhaya" 0 100 basechar 0
AnchorPoint: "Borzaya" 600 70 basechar 0
AnchorPoint: "Zevok" 800 350 basechar 0
AnchorPoint: "Kupnaya" 50 -50 basechar 0
AnchorPoint: "Podvertka" 800 380 basechar 0
AnchorPoint: "Flexion" 555 640 basechar 0
AnchorPoint: "Podtinka" 0 -140 basechar 0
AnchorPoint: "TonalRange" 575 660 basechar 0
AnchorPoint: "Zaderzhka" 800 460 basechar 0
AnchorPoint: "Omet" 655 300 basechar 0
AnchorPoint: "Tochka" 655 325 basechar 0
AnchorPoint: "Podchashie" 543 245 basechar 0
LayerCount: 2
Fore
SplineSet
106 247 m 1
 127 308 215 327 215 327 c 1
 205 203 l 1
 205 203 125 184 94 121 c 1
 106 247 l 1
42 -9 m 1
 63 52 151 71 151 71 c 1
 141 -53 l 1
 141 -53 61 -72 30 -135 c 1
 42 -9 l 1
684 576 m 0
 697 576 711 566 729 545 c 0
 746 525 753 508 753 494 c 0
 753 493 753 493 753 492 c 1
 740 374 l 1
 734 402 718 426 691 447 c 0
 688 450 683 451 678 451 c 0
 677 451 l 0
 660 451 635 439 603 414 c 0
 559 381 512 340 461 290 c 0
 410 240 355 182 295 116 c 0
 235 50 201 11 195 0 c 1
 205 107 l 1
 213 122 240 157 285 212 c 0
 383 332 447 396 571 498 c 0
 634 550 671 576 684 576 c 0
EndSplineSet
Validated: 3073
Position2: "Advance neume with cinnabar mark-1" dx=200 dy=0 dh=0 dv=0
Colour: ffc259
EndChar

StartChar: uniEE93
Encoding: 61075 61075 118
Width: 350
VWidth: 0
GlyphClass: 2
Flags: W
VStem: 30 295
AnchorPoint: "FinalPitch" 515 200 basechar 0
AnchorPoint: "Podvertka" 375 30 basechar 0
AnchorPoint: "Kachka" 100 270 basechar 0
AnchorPoint: "Zaderzhka" 105 465 basechar 0
AnchorPoint: "Lomka" 420 150 basechar 0
AnchorPoint: "Tikhaya" 0 200 basechar 0
AnchorPoint: "Borzaya" 0 150 basechar 0
AnchorPoint: "Zevok" 270 500 basechar 0
AnchorPoint: "Kupnaya" 50 -50 basechar 0
AnchorPoint: "Auxiliary" 180 670 basechar 0
AnchorPoint: "Flexion" 395 640 basechar 0
AnchorPoint: "Podtinka" 0 -100 basechar 0
AnchorPoint: "TonalRange" 415 660 basechar 0
AnchorPoint: "Tochka" 360 325 basechar 0
AnchorPoint: "Omet" 205 500 basechar 0
AnchorPoint: "Podchashie" 320 -30 basechar 0
AnchorPoint: "PitchMark" 60 580 basechar 0
LayerCount: 2
Fore
SplineSet
244 226 m 1
 325 107 l 1
 313 -20 l 1
 232 99 l 1
 244 226 l 1
106 343 m 1
 127 404 215 423 215 423 c 1
 205 299 l 1
 205 299 125 280 94 217 c 1
 106 343 l 1
42 87 m 1
 63 148 151 167 151 167 c 1
 141 43 l 1
 141 43 61 24 30 -39 c 1
 42 87 l 1
EndSplineSet
Validated: 3073
Position2: "Advance neume with cinnabar mark-1" dx=200 dy=0 dh=0 dv=0
Colour: ffc259
EndChar

StartChar: uniEE92
Encoding: 61074 61074 119
Width: 525
VWidth: 0
GlyphClass: 2
Flags: W
HStem: 0 21G<405 426> 137 134<232.569 297.563>
VStem: 203 10<83.7422 104.195> 304 27<10.9733 144>
AnchorPoint: "FinalPitch" 655 240 basechar 0
AnchorPoint: "Kachka" 100 270 basechar 0
AnchorPoint: "Zaderzhka" 105 465 basechar 0
AnchorPoint: "Lomka" 540 150 basechar 0
AnchorPoint: "Tikhaya" 0 200 basechar 0
AnchorPoint: "Borzaya" 0 150 basechar 0
AnchorPoint: "Zevok" 140 0 basechar 0
AnchorPoint: "Kupnaya" 50 -50 basechar 0
AnchorPoint: "Podchashie" 190 0 basechar 0
AnchorPoint: "Auxiliary" 180 670 basechar 0
AnchorPoint: "Podvertka" 220 0 basechar 0
AnchorPoint: "Flexion" 395 640 basechar 0
AnchorPoint: "Podtinka" 0 -100 basechar 0
AnchorPoint: "TonalRange" 415 660 basechar 0
AnchorPoint: "Tochka" 535 325 basechar 0
AnchorPoint: "Omet" 205 500 basechar 0
AnchorPoint: "PitchMark" 60 580 basechar 0
LayerCount: 2
Fore
SplineSet
440 143 m 1
 426 6 l 1
 403 0 l 1
 416 130 l 1
 393 117 377 100 367 79 c 1
 379 206 l 1
 386 227 403 244 429 258 c 1
 437 339 l 1
 459 347 l 1
 458 334 457 325 457 319 c 0
 456 306 455 289 452 270 c 1
 475 280 488 281 504 286 c 1
 494 162 l 1
 477 158 459 152 440 143 c 1
311 -19 m 0
 310 -24 306 -26 301 -26 c 0
 297 -26 292 -21 293 -16 c 0
 300 35 304 68 304 82 c 0
 304 116 291 134 265 137 c 1
 259 137 l 2
 236 137 221 121 213 90 c 0
 212 85 205 76 203 83 c 0
 203 105 206 138 211 183 c 0
 218 242 239 271 274 271 c 0
 306 271 324 240 329 178 c 0
 330 165 331 151 331 137 c 0
 331 87 324 35 311 -19 c 0
106 343 m 1
 112 361 125 377 143 390 c 0
 161 403 177 412 192 416 c 2
 215 423 l 1
 205 299 l 1
 188 293 164 284 147 274 c 0
 124 259 106 240 94 217 c 1
 106 343 l 1
42 87 m 1
 48 105 61 121 79 134 c 0
 97 147 113 156 128 160 c 2
 151 167 l 1
 141 43 l 1
 124 37 100 28 83 18 c 0
 60 3 42 -16 30 -39 c 1
 42 87 l 1
EndSplineSet
Validated: 3073
Position2: "Advance neume with cinnabar mark-1" dx=200 dy=0 dh=0 dv=0
Colour: ffc259
EndChar

StartChar: uniEE9E
Encoding: 61086 61086 120
Width: 950
VWidth: 0
GlyphClass: 2
Flags: W
HStem: 0 21G<356.869 358> 65 134<60.4374 124.588> 89 134<222.437 286.588> 451 125<804.474 870.206>
VStem: 30 11<10.051 31.4036> 131 27<-61.0176 109.5> 192 11<34.051 55.4036> 293 27<-37.0176 133.5>
AnchorPoint: "FinalPitch" 1065 300 basechar 0
AnchorPoint: "PitchMark" 210 580 basechar 0
AnchorPoint: "Auxiliary" 560 800 basechar 0
AnchorPoint: "Lomka" 875 150 basechar 0
AnchorPoint: "Tikhaya" 0 -30 basechar 0
AnchorPoint: "Borzaya" 0 150 basechar 0
AnchorPoint: "Zevok" 960 350 basechar 0
AnchorPoint: "Kupnaya" 50 -50 basechar 0
AnchorPoint: "Kachka" 180 330 basechar 0
AnchorPoint: "Podvertka" 960 380 basechar 0
AnchorPoint: "Flexion" 715 640 basechar 0
AnchorPoint: "Podtinka" 0 -100 basechar 0
AnchorPoint: "TonalRange" 735 660 basechar 0
AnchorPoint: "Zaderzhka" 960 460 basechar 0
AnchorPoint: "Omet" 805 300 basechar 0
AnchorPoint: "Tochka" 805 325 basechar 0
AnchorPoint: "Podchashie" 701 245 basechar 0
LayerCount: 2
Fore
SplineSet
263 223 m 0xbf
 301 223 320 178 320 89 c 0
 320 39 313 -13 300 -67 c 0
 299 -72 296 -74 291 -74 c 0
 287 -74 282 -69 283 -64 c 0
 290 -17 293 15 293 34 c 0
 293 68 280 86 255 89 c 1
 248 89 l 2
 226 89 211 73 203 42 c 0
 202 37 199 34 195 33 c 0
 192 32 191 34 192 39 c 0
 198 126 199 223 263 223 c 0xbf
101 199 m 0xdf
 139 199 158 154 158 65 c 0
 158 15 151 -37 138 -91 c 0
 137 -96 134 -98 129 -98 c 0
 125 -98 120 -93 121 -88 c 0
 128 -41 131 -9 131 10 c 0
 131 44 118 62 93 65 c 1
 86 65 l 2
 64 65 49 49 41 18 c 0
 40 13 37 10 33 9 c 0
 30 8 29 10 30 15 c 0
 36 102 37 199 101 199 c 0xdf
844 576 m 0
 857 576 871 566 889 545 c 0
 906 525 913 508 913 494 c 0
 913 493 913 493 913 492 c 1
 900 374 l 1
 894 402 878 426 851 447 c 0
 848 450 843 451 838 451 c 0
 837 451 l 0
 820 451 795 439 763 414 c 0
 719 381 672 340 621 290 c 0
 570 240 515 182 455 116 c 0
 395 50 361 11 355 0 c 1
 365 107 l 1
 373 122 400 157 445 212 c 0
 543 332 607 396 731 498 c 0
 794 550 831 576 844 576 c 0
EndSplineSet
Validated: 3073
Position2: "Advance neume with cinnabar mark-1" dx=200 dy=0 dh=0 dv=0
Colour: ffc259
EndChar

StartChar: uniEE9F
Encoding: 61087 61087 121
Width: 950
VWidth: 0
GlyphClass: 2
Flags: W
HStem: 0 21G<356.869 358> 65 134<60.4374 124.588> 89 134<222.437 286.588> 451 125<804.474 870.206>
VStem: 30 11<10.051 31.4036> 131 27<-61.0176 109.5> 192 11<34.051 55.4036> 293 27<-37.0176 133.5>
AnchorPoint: "FinalPitch" 1065 300 basechar 0
AnchorPoint: "Auxiliary" 560 800 basechar 0
AnchorPoint: "Kachka" 180 330 basechar 0
AnchorPoint: "PitchMark" 210 580 basechar 0
AnchorPoint: "Lomka" 875 150 basechar 0
AnchorPoint: "Tikhaya" 0 -30 basechar 0
AnchorPoint: "Borzaya" 0 150 basechar 0
AnchorPoint: "Zevok" 960 350 basechar 0
AnchorPoint: "Kupnaya" 50 -50 basechar 0
AnchorPoint: "Podvertka" 960 380 basechar 0
AnchorPoint: "Flexion" 715 640 basechar 0
AnchorPoint: "Podtinka" 0 -100 basechar 0
AnchorPoint: "TonalRange" 735 660 basechar 0
AnchorPoint: "Zaderzhka" 960 460 basechar 0
AnchorPoint: "Omet" 825 300 basechar 0
AnchorPoint: "Tochka" 825 325 basechar 0
AnchorPoint: "Podchashie" 735 93 basechar 0
LayerCount: 2
Fore
SplineSet
263 223 m 0xbf
 301 223 320 178 320 89 c 0
 320 39 313 -13 300 -67 c 0
 299 -72 296 -74 291 -74 c 0
 287 -74 282 -69 283 -64 c 0
 290 -17 293 15 293 34 c 0
 293 68 280 86 255 89 c 1
 248 89 l 2
 226 89 211 73 203 42 c 0
 202 37 199 34 195 33 c 0
 192 32 191 34 192 39 c 0
 198 126 199 223 263 223 c 0xbf
101 199 m 0xdf
 139 199 158 154 158 65 c 0
 158 15 151 -37 138 -91 c 0
 137 -96 134 -98 129 -98 c 0
 125 -98 120 -93 121 -88 c 0
 128 -41 131 -9 131 10 c 0
 131 44 118 62 93 65 c 1
 86 65 l 2
 64 65 49 49 41 18 c 0
 40 13 37 10 33 9 c 0
 30 8 29 10 30 15 c 0
 36 102 37 199 101 199 c 0xdf
844 576 m 0
 857 576 871 566 889 545 c 0
 906 525 913 508 913 494 c 0
 913 493 913 493 913 492 c 1
 900 374 l 1
 894 402 878 426 851 447 c 0
 848 450 843 451 838 451 c 0
 837 451 l 0
 820 451 795 439 763 414 c 0
 719 381 672 340 621 290 c 0
 570 240 515 182 455 116 c 0
 395 50 361 11 355 0 c 1
 365 107 l 1
 373 122 400 157 445 212 c 0
 543 332 607 396 731 498 c 0
 794 550 831 576 844 576 c 0
594 151 m 1
 615 212 678 220 678 220 c 1
 668 96 l 1
 668 96 613 87 582 24 c 1
 594 151 l 1
724 270 m 1
 745 331 808 339 808 339 c 1
 798 215 l 1
 798 215 743 206 712 143 c 1
 724 270 l 1
EndSplineSet
Validated: 3073
Position2: "Advance neume with cinnabar mark-1" dx=200 dy=0 dh=0 dv=0
Colour: ffc259
EndChar

StartChar: uniEEA0
Encoding: 61088 61088 122
Width: 950
VWidth: 0
GlyphClass: 2
Flags: W
HStem: -1 22G<191.89 195.5 356.869 358> 65 134<60.4374 124.588> 451 125<804.474 870.206>
VStem: 30 11<10.051 31.4036> 131 27<-61.0176 109.5>
AnchorPoint: "FinalPitch" 1065 300 basechar 0
AnchorPoint: "Auxiliary" 560 800 basechar 0
AnchorPoint: "Kachka" 180 330 basechar 0
AnchorPoint: "PitchMark" 210 580 basechar 0
AnchorPoint: "Lomka" 875 150 basechar 0
AnchorPoint: "Tikhaya" 0 -30 basechar 0
AnchorPoint: "Borzaya" 0 150 basechar 0
AnchorPoint: "Zevok" 960 350 basechar 0
AnchorPoint: "Kupnaya" 50 -50 basechar 0
AnchorPoint: "Podvertka" 960 380 basechar 0
AnchorPoint: "Flexion" 715 640 basechar 0
AnchorPoint: "Podtinka" 0 -100 basechar 0
AnchorPoint: "TonalRange" 735 660 basechar 0
AnchorPoint: "Zaderzhka" 960 460 basechar 0
AnchorPoint: "Omet" 805 300 basechar 0
AnchorPoint: "Tochka" 805 325 basechar 0
AnchorPoint: "Podchashie" 701 245 basechar 0
LayerCount: 2
Fore
SplineSet
844 576 m 0
 857 576 871 566 889 545 c 0
 906 525 913 508 913 494 c 0
 913 493 913 493 913 492 c 1
 900 374 l 1
 894 402 878 426 851 447 c 0
 848 450 843 451 838 451 c 0
 837 451 l 0
 820 451 795 439 763 414 c 0
 719 381 672 340 621 290 c 0
 570 240 515 182 455 116 c 0
 395 50 361 11 355 0 c 1
 365 107 l 1
 373 122 400 157 445 212 c 0
 543 332 607 396 731 498 c 0
 794 550 831 576 844 576 c 0
263 63 m 1
 257 -1 249 -74 249 -74 c 1
 226 -80 l 1
 239 50 l 1
 219 38 201 21 190 -1 c 1
 202 126 l 1
 210 149 230 166 252 178 c 1
 260 259 l 1
 282 267 l 1
 278 224 279 234 275 190 c 1
 303 202 327 206 327 206 c 1
 317 82 l 1
 317 82 292 76 263 63 c 1
101 199 m 0
 139 199 158 154 158 65 c 0
 158 15 151 -37 138 -91 c 0
 137 -96 134 -98 129 -98 c 0
 125 -98 120 -93 121 -88 c 0
 128 -41 131 -9 131 10 c 0
 131 44 118 62 93 65 c 1
 86 65 l 2
 64 65 49 49 41 18 c 0
 40 13 37 10 33 9 c 0
 30 8 29 10 30 15 c 0
 36 102 37 199 101 199 c 0
EndSplineSet
Validated: 3073
Position2: "Advance neume with cinnabar mark-1" dx=200 dy=0 dh=0 dv=0
Colour: ffc259
EndChar

StartChar: uniEE7E
Encoding: 61054 61054 123
Width: 410
VWidth: 0
GlyphClass: 2
Flags: W
HStem: 0 15G<176.5 179.5 345 351.5> 84 94<48.6637 109.37> 108 94<208.664 269.37> 371 125<200 275.483>
VStem: 112 9<2.02298 16.4071> 113 31<19.5513 135> 272 9<26.023 40.4071> 273 31<43.5513 159> 348 34<46.8179 282.938>
AnchorPoint: "FinalPitch" 565 290 basechar 0
AnchorPoint: "PitchMark" 60 580 basechar 0
AnchorPoint: "Lomka" 540 150 basechar 0
AnchorPoint: "Tikhaya" 0 -30 basechar 0
AnchorPoint: "Borzaya" 0 150 basechar 0
AnchorPoint: "Zevok" 50 0 basechar 0
AnchorPoint: "Kachka" 50 660 basechar 0
AnchorPoint: "Kupnaya" 50 -50 basechar 0
AnchorPoint: "Auxiliary" 265 660 basechar 0
AnchorPoint: "Podvertka" 400 0 basechar 0
AnchorPoint: "Flexion" 395 640 basechar 0
AnchorPoint: "Podtinka" 0 -50 basechar 0
AnchorPoint: "TonalRange" 415 660 basechar 0
AnchorPoint: "Tochka" 420 325 basechar 0
AnchorPoint: "Zaderzhka" 30 -120 basechar 0
AnchorPoint: "Omet" 205 500 basechar 0
AnchorPoint: "Podchashie" 350 0 basechar 0
LayerCount: 2
Fore
SplineSet
348 190 m 2x9080
 348 305 295 371 188 371 c 1
 200 496 l 1
 248 496 290 474 327 430 c 0
 364 386 382 325 382 245 c 0
 382 165 375 85 360 6 c 0
 359 -2 355 -6 348 -6 c 0
 342 -6 334 -1 336 6 c 0
 344 75 348 117 348 131 c 2
 348 190 l 2x9080
248 202 m 0xb180
 283 202 304 176 304 142 c 0xb180
 304 104 296 67 281 30 c 0
 276 18 271 25 272 36 c 0xb280
 272 42 273 51 273 65 c 0
 273 94 261 108 238 108 c 0
 213 108 195 75 184 8 c 0
 183 2 181 0 178 0 c 0
 175 0 174 10 174 32 c 0
 174 54 178 83 185 118 c 0
 196 174 217 202 248 202 c 0xb180
88 178 m 0xd480
 123 178 144 152 144 118 c 0xd480
 144 80 136 43 121 6 c 0
 116 -6 111 1 112 12 c 0xd880
 112 18 113 27 113 41 c 0
 113 70 101 84 78 84 c 0
 53 84 35 51 24 -16 c 0
 23 -22 21 -25 18 -25 c 0
 15 -25 14 -14 14 8 c 0
 14 30 18 59 25 94 c 0
 36 150 57 178 88 178 c 0xd480
EndSplineSet
Validated: 3073
Position2: "Advance neume with cinnabar mark-1" dx=200 dy=0 dh=0 dv=0
Colour: ffc259
EndChar

StartChar: uniEA9A
Encoding: 60058 60058 124
Width: 410
GlyphClass: 2
Flags: W
HStem: -6 27G<178.5 185.5 345.123 376.553> 371 125<35 109.791>
VStem: 182 35<48.6146 282.938>
AnchorPoint: "FinalPitch" 565 250 basechar 0
AnchorPoint: "PitchMark" 130 770 basechar 0
AnchorPoint: "Podvertka" 120 200 basechar 0
AnchorPoint: "Lomka" 540 150 basechar 0
AnchorPoint: "Tikhaya" 0 180 basechar 0
AnchorPoint: "Borzaya" 0 150 basechar 0
AnchorPoint: "Zevok" 50 0 basechar 0
AnchorPoint: "Kachka" 0 270 basechar 0
AnchorPoint: "Kupnaya" 50 -50 basechar 0
AnchorPoint: "Auxiliary" 265 660 basechar 0
AnchorPoint: "Flexion" 395 640 basechar 0
AnchorPoint: "Podtinka" 0 -50 basechar 0
AnchorPoint: "TonalRange" 415 660 basechar 0
AnchorPoint: "Tochka" 435 325 basechar 0
AnchorPoint: "Zaderzhka" 30 -120 basechar 0
AnchorPoint: "Omet" 205 500 basechar 0
AnchorPoint: "Podchashie" 183 0 basechar 0
LayerCount: 2
Fore
SplineSet
262 184 m 1
 383 103 l 1
 375 0 l 1
 254 81 l 1
 262 184 l 1
182 190 m 0
 180 305 129 371 23 371 c 1
 35 496 l 1
 83 496 125 474 162 430 c 0
 199 386 217 326 217 248 c 0
 217 170 209 89 194 6 c 0
 193 -2 189 -6 182 -6 c 0
 175 -6 170 -1 171 6 c 0
 175 38 182 108 182 177 c 0
 182 181 182 186 182 190 c 0
EndSplineSet
Validated: 3073
Position2: "Advance neume with cinnabar mark-1" dx=200 dy=0 dh=0 dv=0
Colour: ffff
EndChar

StartChar: uniEEAB
Encoding: 61099 61099 125
Width: 1070
VWidth: 999
GlyphClass: 2
Flags: W
HStem: -7 21G<149 172.258 476.869 478> 451 125<924.474 990.206>
AnchorPoint: "FinalPitch" 1065 300 basechar 0
AnchorPoint: "Auxiliary" 675 800 basechar 0
AnchorPoint: "PitchMark" 330 690 basechar 0
AnchorPoint: "Lomka" 985 150 basechar 0
AnchorPoint: "Tikhaya" 260 100 basechar 0
AnchorPoint: "Borzaya" 510 450 basechar 0
AnchorPoint: "Zevok" 1080 350 basechar 0
AnchorPoint: "Kachka" 50 660 basechar 0
AnchorPoint: "Kupnaya" 50 -50 basechar 0
AnchorPoint: "Podvertka" 1080 380 basechar 0
AnchorPoint: "Flexion" 835 640 basechar 0
AnchorPoint: "Podtinka" 0 -50 basechar 0
AnchorPoint: "TonalRange" 855 660 basechar 0
AnchorPoint: "Zaderzhka" 1080 460 basechar 0
AnchorPoint: "Omet" 205 500 basechar 0
AnchorPoint: "Tochka" 915 325 basechar 0
AnchorPoint: "Podchashie" 813 245 basechar 0
LayerCount: 2
Fore
SplineSet
160 506 m 0
 162 506 169 496 180 476 c 0
 201 439 227 355 232 302 c 1
 244 302 246 305 262 317 c 0
 274 326 286 340 295 359 c 1
 284 248 l 1
 275 222 256 197 232 194 c 1
 225 144 200 60 179 24 c 2
 160 -7 l 1
 138 26 127 46 110 103 c 0
 99 140 92 172 89 201 c 1
 76 201 74 198 58 186 c 0
 46 177 34 163 25 144 c 1
 35 254 l 1
 44 280 64 306 90 308 c 1
 96 357 120 440 140 476 c 0
 151 496 158 506 160 506 c 0
184 109 m 1
 196 133 202 167 202 210 c 0
 202 253 196 287 186 312 c 0
 176 337 159 363 136 390 c 1
 127 369 122 337 122 296 c 0
 122 213 143 151 184 109 c 1
386 247 m 1
 407 308 495 327 495 327 c 1
 485 203 l 1
 485 203 405 184 374 121 c 1
 386 247 l 1
322 -9 m 1
 343 52 431 71 431 71 c 1
 421 -53 l 1
 421 -53 341 -72 310 -135 c 1
 322 -9 l 1
964 576 m 0
 977 576 991 566 1009 545 c 0
 1026 525 1033 508 1033 494 c 0
 1033 493 1033 493 1033 492 c 1
 1020 374 l 1
 1014 402 998 426 971 447 c 0
 968 450 963 451 958 451 c 0
 957 451 l 0
 940 451 915 439 883 414 c 0
 839 381 792 340 741 290 c 0
 690 240 635 182 575 116 c 0
 515 50 481 11 475 0 c 1
 485 107 l 1
 493 122 520 157 565 212 c 0
 663 332 727 396 851 498 c 0
 914 550 951 576 964 576 c 0
EndSplineSet
Validated: 3073
Ligature2: "Support for deprecated mappings (ccmp)-1" uniEEAC uniEE9A
LCarets2: 1 0
Position2: "Advance neume with cinnabar mark-1" dx=200 dy=0 dh=0 dv=0
Colour: ffc259
EndChar

StartChar: uniEE82
Encoding: 61058 61058 126
Width: 625
VWidth: 0
GlyphClass: 2
Flags: W
HStem: 0 21G<31.8692 33> 46 94<335.335 407.663> 451 125<479.474 545.206>
VStem: 300 31<94 197.966> 444 10<224.868 248.647>
AnchorPoint: "FinalPitch" 745 300 basechar 0
AnchorPoint: "Auxiliary" 265 800 basechar 0
AnchorPoint: "Kachka" 415 720 basechar 0
AnchorPoint: "PitchMark" 110 680 basechar 0
AnchorPoint: "Lomka" 540 150 basechar 0
AnchorPoint: "Tikhaya" 0 370 basechar 0
AnchorPoint: "Borzaya" 0 150 basechar 0
AnchorPoint: "Zevok" 630 350 basechar 0
AnchorPoint: "Kupnaya" 50 -50 basechar 0
AnchorPoint: "Podvertka" 630 380 basechar 0
AnchorPoint: "Flexion" 395 640 basechar 0
AnchorPoint: "Podtinka" 0 -50 basechar 0
AnchorPoint: "TonalRange" 415 660 basechar 0
AnchorPoint: "Zaderzhka" 630 460 basechar 0
AnchorPoint: "Omet" 515 300 basechar 0
AnchorPoint: "Tochka" 515 325 basechar 0
AnchorPoint: "Podchashie" 375 0 basechar 0
LayerCount: 2
Fore
SplineSet
454 232 m 0
 454 157 427 46 365 46 c 0
 322 46 300 70 300 118 c 0
 300 147 308 180 323 219 c 0
 330 234 333 223 332 208 c 0
 331 199 331 190 331 180 c 0
 331 157 349 140 374 140 c 0
 408 140 438 209 444 240 c 0
 445 246 447 249 451 249 c 0
 453 249 454 243 454 232 c 0
519 576 m 0
 532 576 546 566 564 545 c 0
 581 525 588 508 588 494 c 0
 588 493 588 493 588 492 c 1
 575 374 l 1
 569 402 553 426 526 447 c 0
 523 450 518 451 513 451 c 0
 512 451 l 0
 495 451 470 439 438 414 c 0
 394 381 347 340 296 290 c 0
 245 240 190 182 130 116 c 0
 70 50 36 11 30 0 c 1
 40 107 l 1
 48 122 75 157 120 212 c 0
 218 332 282 396 406 498 c 0
 469 550 506 576 519 576 c 0
EndSplineSet
Validated: 3073
Position2: "Advance neume with cinnabar mark-1" dx=200 dy=0 dh=0 dv=0
Colour: ffc259
EndChar

StartChar: uniEE83
Encoding: 61059 61059 127
Width: 625
VWidth: 0
GlyphClass: 2
Flags: W
HStem: 0 21G<31.8692 33> 451 125<479.474 545.206>
AnchorPoint: "FinalPitch" 745 300 basechar 0
AnchorPoint: "Auxiliary" 265 800 basechar 0
AnchorPoint: "Kachka" 415 720 basechar 0
AnchorPoint: "PitchMark" 110 680 basechar 0
AnchorPoint: "Lomka" 540 150 basechar 0
AnchorPoint: "Tikhaya" 0 370 basechar 0
AnchorPoint: "Borzaya" 0 150 basechar 0
AnchorPoint: "Zevok" 630 350 basechar 0
AnchorPoint: "Kupnaya" 50 -50 basechar 0
AnchorPoint: "Podvertka" 630 380 basechar 0
AnchorPoint: "Flexion" 395 640 basechar 0
AnchorPoint: "Podtinka" 0 -50 basechar 0
AnchorPoint: "TonalRange" 415 660 basechar 0
AnchorPoint: "Zaderzhka" 630 460 basechar 0
AnchorPoint: "Omet" 515 300 basechar 0
AnchorPoint: "Tochka" 515 325 basechar 0
AnchorPoint: "Podchashie" 390 75 basechar 0
LayerCount: 2
Fore
SplineSet
519 576 m 0
 532 576 546 566 564 545 c 0
 581 525 588 508 588 494 c 0
 588 493 588 493 588 492 c 1
 575 374 l 1
 569 402 553 426 526 447 c 0
 523 450 518 451 513 451 c 0
 512 451 l 0
 495 451 470 439 438 414 c 0
 394 381 347 340 296 290 c 0
 245 240 190 182 130 116 c 0
 70 50 36 11 30 0 c 1
 40 107 l 1
 48 122 75 157 120 212 c 0
 218 332 282 396 406 498 c 0
 469 550 506 576 519 576 c 0
295 159 m 1
 316 220 379 228 379 228 c 1
 369 104 l 1
 369 104 314 95 283 32 c 1
 295 159 l 1
EndSplineSet
Validated: 3073
Position2: "Advance neume with cinnabar mark-1" dx=200 dy=0 dh=0 dv=0
Colour: ffc259
EndChar

StartChar: uniEEAA
Encoding: 61098 61098 128
Width: 715
VWidth: 0
GlyphClass: 2
Flags: W
HStem: 0 21G<32.0417 40.5> 451 125<569.049 637.264>
AnchorPoint: "FinalPitch" 730 300 basechar 0
AnchorPoint: "Auxiliary" 335 800 basechar 0
AnchorPoint: "Tikhaya" 0 370 basechar 0
AnchorPoint: "PitchMark" 130 770 basechar 0
AnchorPoint: "Lomka" 540 150 basechar 0
AnchorPoint: "Borzaya" 0 150 basechar 0
AnchorPoint: "Zevok" 730 350 basechar 0
AnchorPoint: "Kachka" 50 660 basechar 0
AnchorPoint: "Kupnaya" 50 -50 basechar 0
AnchorPoint: "Podvertka" 730 380 basechar 0
AnchorPoint: "Flexion" 480 640 basechar 0
AnchorPoint: "Podtinka" 0 -50 basechar 0
AnchorPoint: "TonalRange" 500 660 basechar 0
AnchorPoint: "Zaderzhka" 730 460 basechar 0
AnchorPoint: "Omet" 205 500 basechar 0
AnchorPoint: "Tochka" 575 325 basechar 0
AnchorPoint: "Podchashie" 493 275 basechar 0
LayerCount: 2
Fore
SplineSet
70 162 m 1
 83 184 100 203 122 220 c 0
 144 237 162 249 177 254 c 2
 200 262 l 1
 185 122 l 1
 177 120 163 115 146 107 c 0
 90 82 51 46 30 0 c 1
 79 480 l 1
 105 496 l 1
 70 162 l 1
610 576 m 0
 623 576 638 566 656 545 c 0
 673 525 678 509 678 495 c 0
 678 494 678 493 678 492 c 1
 666 374 l 1
 660 403 644 427 618 447 c 0
 615 450 610 451 605 451 c 0
 589 451 561 437 522 408 c 0
 483 379 438 339 388 290 c 0
 338 241 304 206 286 187 c 0
 268 168 257 152 251 140 c 1
 267 266 l 1
 267 267 l 1
 272 284 295 313 338 356 c 0
 381 399 433 446 496 498 c 0
 559 550 597 576 610 576 c 0
EndSplineSet
Validated: 3073
Position2: "Advance neume with cinnabar mark-1" dx=200 dy=0 dh=0 dv=0
Colour: ffc259
EndChar

StartChar: uniEE75
Encoding: 61045 61045 129
Width: 225
VWidth: 0
GlyphClass: 2
Flags: W
HStem: 0 21G<32.0417 40.5>
VStem: 30 169
AnchorPoint: "FinalPitch" 415 220 basechar 0
AnchorPoint: "PitchMark" 190 770 basechar 0
AnchorPoint: "Podchashie" 110 0 basechar 0
AnchorPoint: "Lomka" 540 150 basechar 0
AnchorPoint: "Tikhaya" 0 -30 basechar 0
AnchorPoint: "Zaderzhka" 225 180 basechar 0
AnchorPoint: "Borzaya" 0 150 basechar 0
AnchorPoint: "Zevok" 180 60 basechar 0
AnchorPoint: "Kachka" 50 660 basechar 0
AnchorPoint: "Kupnaya" 50 -50 basechar 0
AnchorPoint: "Auxiliary" 265 660 basechar 0
AnchorPoint: "Podvertka" 250 90 basechar 0
AnchorPoint: "Flexion" 395 640 basechar 0
AnchorPoint: "Podtinka" 0 -50 basechar 0
AnchorPoint: "TonalRange" 415 660 basechar 0
AnchorPoint: "Tochka" 235 325 basechar 0
AnchorPoint: "Omet" 205 500 basechar 0
LayerCount: 2
Fore
SplineSet
70 162 m 1
 83 184 100 203 122 220 c 0
 144 237 162 248 177 254 c 2
 199 262 l 1
 184 122 l 1
 176 120 163 115 146 107 c 0
 90 82 51 46 30 0 c 1
 79 480 l 1
 105 496 l 1
 70 162 l 1
EndSplineSet
Validated: 3073
Position2: "Advance neume with cinnabar mark-1" dx=200 dy=0 dh=0 dv=0
Colour: ffc259
EndChar

StartChar: uniEE74
Encoding: 61044 61044 130
Width: 625
VWidth: 0
GlyphClass: 3
Flags: W
HStem: 0 21G<32.0417 47.0833> 450 126<471.926 525.859>
AnchorPoint: "Borzaya" 410 60 basechar 0
AnchorPoint: "FinalPitch" 805 300 basechar 0
AnchorPoint: "TonalRange" 465 680 basechar 0
AnchorPoint: "Auxiliary" 305 800 basechar 0
AnchorPoint: "Kachka" 415 750 basechar 0
AnchorPoint: "Lomka" 540 150 basechar 0
AnchorPoint: "Tikhaya" 0 370 basechar 0
AnchorPoint: "Zevok" 630 350 basechar 0
AnchorPoint: "Kupnaya" 50 -50 basechar 0
AnchorPoint: "Podvertka" 630 380 basechar 0
AnchorPoint: "Flexion" 395 640 basechar 0
AnchorPoint: "Podtinka" 0 -50 basechar 0
AnchorPoint: "Zaderzhka" 630 460 basechar 0
AnchorPoint: "Omet" 515 300 basechar 0
AnchorPoint: "Tochka" 515 325 basechar 0
AnchorPoint: "Podchashie" 378 205 basechar 0
AnchorPoint: "PitchMark" 130 770 basechar 0
LayerCount: 2
Fore
SplineSet
519 576 m 0
 544 576 588 520 588 494 c 0
 588 493 588 493 588 492 c 2
 575 374 l 1
 569 402 553 426 526 447 c 0
 523 449 519 450 514 450 c 0
 512 450 509 450 507 450 c 0
 488 450 472 448 419 404 c 1
 465 373 l 1
 456 270 l 1
 354 338 l 1
 344 239 l 1
 322 229 l 1
 331 325 l 1
 256 252 152 141 71 48 c 1
 30 0 l 1
 79 480 l 1
 105 496 l 1
 70 162 l 1
 115 217 202 311 279 388 c 1
 233 419 l 1
 243 522 l 1
 344 454 l 1
 353 542 l 1
 376 555 l 1
 367 471 l 1
 468 559 501 576 519 576 c 0
EndSplineSet
Validated: 3073
Position2: "Advance neume with cinnabar mark-1" dx=200 dy=0 dh=0 dv=0
Colour: ffc259
EndChar

StartChar: uniEE7D
Encoding: 61053 61053 131
Width: 450
VWidth: 0
GlyphClass: 2
Flags: W
HStem: 206 108<69.6788 136.817>
VStem: 10 27<-42.8159 141.02> 144 32<48.7511 257>
AnchorPoint: "FinalPitch" 465 580 basechar 0
AnchorPoint: "PitchMark" 60 580 basechar 0
AnchorPoint: "Lomka" 370 150 basechar 0
AnchorPoint: "Tikhaya" 0 150 basechar 0
AnchorPoint: "Borzaya" 0 150 basechar 0
AnchorPoint: "Zevok" 50 0 basechar 0
AnchorPoint: "Kachka" 50 660 basechar 0
AnchorPoint: "Kupnaya" 50 -50 basechar 0
AnchorPoint: "Auxiliary" 265 660 basechar 0
AnchorPoint: "Podvertka" 380 110 basechar 0
AnchorPoint: "Flexion" 395 640 basechar 0
AnchorPoint: "Podtinka" 0 -100 basechar 0
AnchorPoint: "TonalRange" 415 660 basechar 0
AnchorPoint: "Tochka" 460 325 basechar 0
AnchorPoint: "Zaderzhka" 290 410 basechar 0
AnchorPoint: "Omet" 205 500 basechar 0
AnchorPoint: "Podchashie" 100 -30 basechar 0
LayerCount: 2
Fore
SplineSet
310 319 m 1
 316 337 329 353 350 366 c 0
 371 379 391 388 409 392 c 2
 435 399 l 1
 425 275 l 1
 397 268 383 264 350 246 c 0
 327 233 309 216 298 193 c 1
 310 319 l 1
265 393 m 1
 234 77 l 1
 211 71 l 1
 243 385 l 1
 265 393 l 1
37 -28 m 0
 37 -34 29 -43 22 -43 c 0
 14 -44 10 -39 10 -30 c 2
 10 -12 l 2
 10 133 27 230 60 280 c 0
 75 303 93 314 114 314 c 0
 155 314 176 286 176 228 c 0
 176 170 169 99 155 15 c 0
 152 8 148 4 142 4 c 0
 136 4 132 5 131 10 c 1
 131 12 l 1
 140 87 144 130 144 141 c 0
 144 184 131 206 106 206 c 0
 69 206 48 165 41 82 c 0
 40 45 38 8 37 -28 c 0
EndSplineSet
Validated: 3073
Position2: "Advance neume with cinnabar mark-1" dx=200 dy=0 dh=0 dv=0
Colour: ffc259
EndChar

StartChar: uniEE7F
Encoding: 61055 61055 132
Width: 545
VWidth: 0
GlyphClass: 2
Flags: W
HStem: 0 21G<179.5 182.5> 30 106<367.552 466.3> 84 94<51.6637 112.37> 108 94<211.664 272.37>
VStem: 116 31<26.8191 78.9965> 116 8<3.52825 14.6724> 276 31<50.8191 102.996> 276 8<27.5282 38.6724> 336 34<137.47 214.16> 378 26<418.5 521.999> 396 11<520.513 543.981> 501 22<179.369 286>
AnchorPoint: "FinalPitch" 715 270 basechar 0
AnchorPoint: "PitchMark" 60 580 basechar 0
AnchorPoint: "Lomka" 540 150 basechar 0
AnchorPoint: "Tikhaya" 0 -30 basechar 0
AnchorPoint: "Borzaya" 0 150 basechar 0
AnchorPoint: "Zevok" 50 0 basechar 0
AnchorPoint: "Kachka" 50 660 basechar 0
AnchorPoint: "Kupnaya" 50 -50 basechar 0
AnchorPoint: "Auxiliary" 265 660 basechar 0
AnchorPoint: "Podvertka" 520 0 basechar 0
AnchorPoint: "Flexion" 395 640 basechar 0
AnchorPoint: "Podtinka" 0 -50 basechar 0
AnchorPoint: "TonalRange" 415 660 basechar 0
AnchorPoint: "Tochka" 555 325 basechar 0
AnchorPoint: "Zaderzhka" 30 -120 basechar 0
AnchorPoint: "Omet" 205 500 basechar 0
AnchorPoint: "Podchashie" 400 0 basechar 0
LayerCount: 2
Fore
SplineSet
337 80 m 0xc0d0
 337 82 336 94 336 96 c 0
 336 121 342 198 349 215 c 0
 351 219 354 221 359 221 c 0
 366 221 370 219 370 214 c 0
 370 207 365 185 365 177 c 0
 365 150 376 136 398 136 c 0
 438 136 501 168 501 206 c 0
 501 221 497 236 487 250 c 0
 477 264 464 277 447 292 c 0
 430 307 418 321 411 332 c 0
 389 365 378 400 378 437 c 0xc0d0
 378 459 389 524 396 537 c 0
 396 542 398 544 402 544 c 0
 405 544 407 541 407 538 c 2
 407 537 l 1xc0b0
 405 528 404 517 404 504 c 0
 404 463 442 417 465 388 c 0
 480 370 490 357 497 348 c 0
 511 330 523 302 523 270 c 0
 523 194 521 143 516 118 c 0
 509 87 498 63 471 48 c 0
 455 39 426 30 400 30 c 0
 364 30 340 48 337 80 c 0xc0d0
251 202 m 0x9290
 286 202 307 176 307 142 c 0x9290
 307 104 299 67 284 30 c 0
 279 18 275 25 276 36 c 0xc190
 276 42 276 51 276 65 c 0
 276 94 264 108 241 108 c 0
 216 108 198 75 187 8 c 0
 186 2 184 0 181 0 c 0
 178 0 177 10 177 32 c 0
 177 54 181 83 188 118 c 0
 199 174 220 202 251 202 c 0x9290
91 178 m 0xa890
 126 178 147 152 147 118 c 0xa890
 147 80 139 43 124 6 c 0
 119 -6 115 1 116 12 c 0xa490
 116 18 116 27 116 41 c 0
 116 70 104 84 81 84 c 0
 56 84 38 51 27 -16 c 0
 26 -22 24 -25 21 -25 c 0
 18 -25 17 -14 17 8 c 0
 17 30 21 59 28 94 c 0
 39 150 60 178 91 178 c 0xa890
EndSplineSet
Validated: 3073
Position2: "Advance neume with cinnabar mark-1" dx=200 dy=0 dh=0 dv=0
Colour: ffc259
EndChar

StartChar: uniEE7A
Encoding: 61050 61050 133
Width: 323
VWidth: 0
GlyphClass: 2
Flags: W
HStem: 259 104<110.444 210.011>
VStem: 22 26<-52.9475 129.723> 212 23<4.13019 78.034> 229 37<87.0116 292.5>
AnchorPoint: "FinalPitch" 455 290 basechar 0
AnchorPoint: "PitchMark" 315 575 basechar 0
AnchorPoint: "Kachka" 265 820 basechar 0
AnchorPoint: "Lomka" 540 150 basechar 0
AnchorPoint: "Tikhaya" -0 80 basechar 0
AnchorPoint: "Zaderzhka" 295 180 basechar 0
AnchorPoint: "Borzaya" -0 150 basechar 0
AnchorPoint: "Zevok" 50 0 basechar 0
AnchorPoint: "Kupnaya" 50 -50 basechar 0
AnchorPoint: "Auxiliary" 265 660 basechar 0
AnchorPoint: "Podvertka" 250 0 basechar 0
AnchorPoint: "Flexion" 395 640 basechar 0
AnchorPoint: "Podtinka" -0 -100 basechar 0
AnchorPoint: "TonalRange" 415 660 basechar 0
AnchorPoint: "Tochka" 305 325 basechar 0
AnchorPoint: "Omet" 205 500 basechar 0
AnchorPoint: "Podchashie" 100 -30 basechar 0
LayerCount: 2
Fore
SplineSet
212 18 m 1xe0
 217 51 229 118 229 157 c 0
 229 225 208 259 164 259 c 0
 101 259 67 207 56 103 c 0
 52 54 49 18 48 -6 c 0
 47 -35 48 -53 34 -53 c 0
 28 -53 24 -48 22 -41 c 0
 20 -32 20 -7 20 -7 c 0
 20 244 74 363 175 363 c 0
 235 363 266 328 266 257 c 0xd0
 266 193 250 95 235 17 c 0
 234 9 228 4 222 4 c 0
 217 4 210 8 212 18 c 1xe0
EndSplineSet
Validated: 3073
Position2: "Advance neume with cinnabar mark-1" dx=200 dy=0 dh=0 dv=0
Colour: ffc259
EndChar

StartChar: uniEE86
Encoding: 61062 61062 134
Width: 625
VWidth: 0
GlyphClass: 2
Flags: W
HStem: 0 22G<32.0417 47.0833 228.89 242.5> 451 125<478.289 544.923>
AnchorPoint: "FinalPitch" 745 300 basechar 0
AnchorPoint: "Auxiliary" 265 800 basechar 0
AnchorPoint: "Kachka" 415 720 basechar 0
AnchorPoint: "PitchMark" 110 680 basechar 0
AnchorPoint: "Lomka" 540 150 basechar 0
AnchorPoint: "Tikhaya" 0 370 basechar 0
AnchorPoint: "Borzaya" 0 150 basechar 0
AnchorPoint: "Zevok" 630 350 basechar 0
AnchorPoint: "Kupnaya" 50 -50 basechar 0
AnchorPoint: "Podvertka" 630 380 basechar 0
AnchorPoint: "Flexion" 395 640 basechar 0
AnchorPoint: "Podtinka" 0 -50 basechar 0
AnchorPoint: "TonalRange" 415 660 basechar 0
AnchorPoint: "Zaderzhka" 630 460 basechar 0
AnchorPoint: "Omet" 515 300 basechar 0
AnchorPoint: "Tochka" 515 325 basechar 0
AnchorPoint: "Podchashie" 390 75 basechar 0
LayerCount: 2
Fore
SplineSet
239 128 m 1
 260 189 323 197 323 197 c 1
 313 73 l 1
 313 73 258 64 227 1 c 1
 239 128 l 1
369 247 m 1
 390 308 453 316 453 316 c 1
 443 192 l 1
 443 192 388 183 357 120 c 1
 369 247 l 1
519 576 m 0
 544 576 588 521 588 494 c 0
 588 494 588 493 588 492 c 2
 575 374 l 1
 569 402 553 426 526 447 c 0
 523 450 518 451 513 451 c 0
 497 451 469 436 430 407 c 0
 345 344 225 224 71 48 c 1
 30 0 l 1
 79 480 l 1
 105 496 l 1
 70 162 l 1
 168 283 280 395 406 498 c 0
 468 550 506 576 519 576 c 0
EndSplineSet
Validated: 3073
Position2: "Advance neume with cinnabar mark-1" dx=200 dy=0 dh=0 dv=0
Colour: ffc259
EndChar

StartChar: uniEEAF
Encoding: 61103 61103 135
Width: 825
VWidth: 0
GlyphClass: 2
Flags: W
HStem: 0 21G<235.5 247.5> 450 126<678.494 746.2>
AnchorPoint: "FinalPitch" 875 300 basechar 0
AnchorPoint: "PitchMark" 210 680 basechar 0
AnchorPoint: "Lomka" 705 150 basechar 0
AnchorPoint: "Tikhaya" 0 200 basechar 0
AnchorPoint: "Borzaya" 0 150 basechar 0
AnchorPoint: "Zevok" 840 350 basechar 0
AnchorPoint: "Kachka" 50 660 basechar 0
AnchorPoint: "Kupnaya" 50 -50 basechar 0
AnchorPoint: "Auxiliary" 425 660 basechar 0
AnchorPoint: "Podvertka" 840 380 basechar 0
AnchorPoint: "Flexion" 645 640 basechar 0
AnchorPoint: "Podtinka" 0 -100 basechar 0
AnchorPoint: "TonalRange" 665 660 basechar 0
AnchorPoint: "Zaderzhka" 840 460 basechar 0
AnchorPoint: "Omet" 205 500 basechar 0
AnchorPoint: "Tochka" 685 325 basechar 0
AnchorPoint: "Podchashie" 583 245 basechar 0
LayerCount: 2
Fore
SplineSet
106 343 m 1
 127 404 215 423 215 423 c 1
 205 299 l 1
 205 299 125 280 94 217 c 1
 106 343 l 1
42 87 m 1
 63 148 151 167 151 167 c 1
 141 43 l 1
 141 43 61 24 30 -39 c 1
 42 87 l 1
605 498 m 0
 668 550 706 576 719 576 c 0
 732 576 747 566 766 545 c 0
 783 526 788 510 788 496 c 0
 788 495 788 493 788 492 c 2
 775 374 l 1
 769 402 753 426 726 447 c 0
 723 450 718 450 713 450 c 0
 697 450 670 437 631 408 c 0
 592 379 553 345 513 306 c 0
 428 222 347 136 272 48 c 1
 230 0 l 1
 241 110 278 475 289 583 c 1
 410 502 l 1
 400 399 l 1
 301 465 l 1
 270 162 l 1
 368 283 480 395 605 498 c 0
EndSplineSet
Validated: 3073
Ligature2: "Support for deprecated mappings (ccmp)-1" uniEE8F uniEEAE
LCarets2: 1 0
Position2: "Advance neume with cinnabar mark-1" dx=200 dy=0 dh=0 dv=0
Colour: ffc259
EndChar

StartChar: uniEE78
Encoding: 61048 61048 136
Width: 250
VWidth: 0
GlyphClass: 2
Flags: W
HStem: -6 21G<178.5 185.5> 371 125<35 110.225>
VStem: 182 35<48.6146 286.634>
AnchorPoint: "FinalPitch" 425 300 basechar 0
AnchorPoint: "Kachka" 0 270 basechar 0
AnchorPoint: "PitchMark" 130 770 basechar 0
AnchorPoint: "Podvertka" 240 50 basechar 0
AnchorPoint: "Lomka" -200 150 basechar 0
AnchorPoint: "Tikhaya" 0 180 basechar 0
AnchorPoint: "Zaderzhka" 250 180 basechar 0
AnchorPoint: "Borzaya" 0 150 basechar 0
AnchorPoint: "Zevok" 50 0 basechar 0
AnchorPoint: "Kupnaya" 50 -50 basechar 0
AnchorPoint: "Auxiliary" 265 660 basechar 0
AnchorPoint: "Flexion" 395 640 basechar 0
AnchorPoint: "Podtinka" 0 -50 basechar 0
AnchorPoint: "TonalRange" 415 660 basechar 0
AnchorPoint: "Tochka" 260 325 basechar 0
AnchorPoint: "Omet" 205 500 basechar 0
AnchorPoint: "Podchashie" 183 0 basechar 0
LayerCount: 2
Fore
SplineSet
182 190 m 2
 182 305 129 371 23 371 c 1
 35 496 l 1
 83 496 125 474 162 430 c 0
 199 386 217 326 217 248 c 0
 217 170 209 89 194 6 c 0
 193 -2 189 -6 182 -6 c 0
 175 -6 169 -1 171 6 c 0
 178 69 182 109 182 126 c 2
 182 190 l 2
EndSplineSet
Validated: 3073
Position2: "Advance neume with cinnabar mark-1" dx=200 dy=0 dh=0 dv=0
Colour: ffc259
EndChar

StartChar: uniEEAE
Encoding: 61102 61102 137
Width: 625
VWidth: 0
GlyphClass: 2
Flags: W
HStem: 0 21G<35.5 47.5> 450 126<478.494 546.2>
AnchorPoint: "FinalPitch" 725 300 basechar 0
AnchorPoint: "PitchMark" 130 770 basechar 0
AnchorPoint: "Lomka" 540 150 basechar 0
AnchorPoint: "Tikhaya" 0 -30 basechar 0
AnchorPoint: "Borzaya" 0 150 basechar 0
AnchorPoint: "Zevok" 630 350 basechar 0
AnchorPoint: "Kachka" 50 660 basechar 0
AnchorPoint: "Kupnaya" 50 -50 basechar 0
AnchorPoint: "Auxiliary" 265 660 basechar 0
AnchorPoint: "Podvertka" 630 380 basechar 0
AnchorPoint: "Flexion" 395 640 basechar 0
AnchorPoint: "Podtinka" 0 -50 basechar 0
AnchorPoint: "TonalRange" 415 660 basechar 0
AnchorPoint: "Zaderzhka" 630 460 basechar 0
AnchorPoint: "Omet" 205 500 basechar 0
AnchorPoint: "Tochka" 485 325 basechar 0
AnchorPoint: "Podchashie" 378 245 basechar 0
LayerCount: 2
Fore
SplineSet
405 498 m 0
 468 550 506 576 519 576 c 0
 532 576 547 566 566 545 c 0
 583 526 588 510 588 496 c 0
 588 495 588 493 588 492 c 2
 575 374 l 1
 569 402 553 426 526 447 c 0
 523 450 518 450 513 450 c 0
 497 450 470 437 431 408 c 0
 392 379 353 345 313 306 c 0
 228 222 147 136 72 48 c 1
 30 0 l 1
 41 110 78 475 89 583 c 1
 210 502 l 1
 200 399 l 1
 101 465 l 1
 70 162 l 1
 168 283 280 395 405 498 c 0
EndSplineSet
Validated: 3073
Position2: "Advance neume with cinnabar mark-1" dx=200 dy=0 dh=0 dv=0
Colour: ffc259
EndChar

StartChar: uniEE81
Encoding: 61057 61057 138
Width: 225
VWidth: 0
GlyphClass: 2
Flags: W
HStem: 0 106<49.7806 150.57>
VStem: 20 29<108.904 171.804> 62 26<379.5 491.847> 80 11<490.513 513.987> 185 22<148.28 255.5>
AnchorPoint: "FinalPitch" 405 270 basechar 0
AnchorPoint: "PitchMark" -40 500 basechar 0
AnchorPoint: "Lomka" 540 150 basechar 0
AnchorPoint: "Tikhaya" 0 -30 basechar 0
AnchorPoint: "Borzaya" 0 150 basechar 0
AnchorPoint: "Zevok" 50 0 basechar 0
AnchorPoint: "Kachka" 50 660 basechar 0
AnchorPoint: "Kupnaya" 50 -50 basechar 0
AnchorPoint: "Auxiliary" 265 660 basechar 0
AnchorPoint: "Podvertka" 200 0 basechar 0
AnchorPoint: "Flexion" 395 640 basechar 0
AnchorPoint: "Podtinka" 0 -50 basechar 0
AnchorPoint: "TonalRange" 415 660 basechar 0
AnchorPoint: "Tochka" 235 325 basechar 0
AnchorPoint: "Zaderzhka" 30 -120 basechar 0
AnchorPoint: "Omet" 205 500 basechar 0
AnchorPoint: "Podchashie" 100 -30 basechar 0
LayerCount: 2
Fore
SplineSet
52 168 m 0xe8
 52 164 49 149 49 136 c 0
 49 110 60 106 91 106 c 0xd8
 109 106 128 113 151 128 c 0
 174 143 185 158 185 174 c 0
 185 190 181 206 171 220 c 0
 161 234 148 247 131 262 c 0
 85 303 62 352 62 407 c 0xe8
 62 429 73 494 80 507 c 0
 80 512 81 514 85 514 c 0
 89 514 91 512 91 508 c 2
 91 507 l 1xd8
 89 498 88 486 88 470 c 0
 88 454 95 436 109 415 c 0
 123 394 146 361 181 318 c 0
 198 297 207 271 207 240 c 0
 207 135 207 114 195 66 c 0
 192 62 188 55 183 44 c 0
 170 20 126 0 75 0 c 0
 46 0 23 22 21 50 c 2
 20 66 l 1
 20 139 27 175 41 175 c 0
 48 175 52 172 52 168 c 0xe8
28 301 m 1
 125 236 l 1
 119 158 l 1
 22 223 l 1
 28 301 l 1
EndSplineSet
Validated: 3073
Position2: "Advance neume with cinnabar mark-1" dx=200 dy=0 dh=0 dv=0
LCarets2: 1 0
Colour: ffc259
EndChar

StartChar: u1CF1F.ss04
Encoding: 60951 60951 139
Width: 0
VWidth: 999
GlyphClass: 4
Flags: W
HStem: 398 13<186.009 215 251.627 325 361.627 384.924> 501 52<139.149 165.37> 539 13<17.0757 43 76.8652 140 209 332 365.883 398.953>
VStem: 34 36<400.023 538.69> 139 27<505.22 539.717> 212 38<411 537.941> 322 38<411 537.941>
AnchorPoint: "PitchMark" 399 541 mark 0
LayerCount: 2
Fore
SplineSet
322 460 m 4xbe
 322 488 326 518 332 539 c 5
 257 539 l 5
 252 515 250 489 250 462 c 4
 250 445 251 428 252 411 c 5
 325 411 l 5
 324 425 322 443 322 460 c 4xbe
212 460 m 4
 212 488 216 518 222 539 c 5
 207 539 l 6
 201 539 199 542 200 546 c 4
 200 550 202 552 209 552 c 4
 223 552 243 552 265 552 c 4
 310 552 361 552 390 552 c 4
 398 552 399 549 399 544 c 5
 398 540 397 539 390 539 c 6
 367 539 l 5
 362 515 360 489 360 462 c 4
 360 445 361 428 362 411 c 5
 377 410 l 6
 384 410 385 407 385 403 c 4
 385 399 384 398 376 398 c 6
 193 398 l 6
 187 398 186 401 186 405 c 4
 186 409 189 410 195 410 c 4
 201 411 208 411 215 411 c 5
 214 426 212 443 212 460 c 4
34 459 m 4
 34 486 38 522 43 540 c 5
 24 540 l 6
 18 540 17 543 17 547 c 4
 17 551 19 552 26 553 c 5
 72 553 119 553 165 553 c 4
 173 553 174 549 174 545 c 4
 173 539 167 533 166 525 c 4
 163 511 170 501 163 501 c 4xde
 156 501 142 511 139 520 c 4
 138 526 138 534 140 540 c 5
 119 540 99 540 78 540 c 5
 73 512 70 487 70 457 c 4
 70 439 72 426 73 406 c 4
 74 400 61 400 55 400 c 4
 49 400 38 400 37 406 c 4
 36 422 34 440 34 459 c 4
EndSplineSet
Validated: 3073
Colour: ffc259
EndChar

StartChar: uniEA9C
Encoding: 60060 60060 140
Width: 425
VWidth: 999
GlyphClass: 2
Flags: W
HStem: -6 21G<178.5 185.5 347.75 379.569> 371 125<35 109.791>
VStem: 182 35<48.6146 282.938>
AnchorPoint: "FinalPitch" 595 300 basechar 0
AnchorPoint: "PitchMark" 130 770 basechar 0
AnchorPoint: "Podvertka" 120 200 basechar 0
AnchorPoint: "Lomka" 540 150 basechar 0
AnchorPoint: "Tikhaya" 0 180 basechar 0
AnchorPoint: "Borzaya" 0 150 basechar 0
AnchorPoint: "Zevok" 50 0 basechar 0
AnchorPoint: "Kupnaya" 50 -50 basechar 0
AnchorPoint: "Kachka" 0 270 basechar 0
AnchorPoint: "Auxiliary" 265 660 basechar 0
AnchorPoint: "Flexion" 395 640 basechar 0
AnchorPoint: "Podtinka" 0 -50 basechar 0
AnchorPoint: "TonalRange" 415 660 basechar 0
AnchorPoint: "Tochka" 435 325 basechar 0
AnchorPoint: "Zaderzhka" 30 -120 basechar 0
AnchorPoint: "Omet" 205 500 basechar 0
AnchorPoint: "Podchashie" 183 0 basechar 0
LayerCount: 2
Fore
SplineSet
182 190 m 0
 180 305 129 371 23 371 c 1
 35 496 l 1
 83 496 125 474 162 430 c 0
 199 386 217 326 217 248 c 0
 217 170 209 89 194 6 c 0
 193 -2 189 -6 182 -6 c 0
 175 -6 170 -1 171 6 c 0
 175 38 182 108 182 177 c 0
 182 181 182 186 182 190 c 0
265 182 m 1
 386 101 l 1
 378 -1 l 1
 257 79 l 1
 265 182 l 1
279 366 m 1
 400 285 l 1
 392 182 l 1
 271 263 l 1
 279 366 l 1
EndSplineSet
Validated: 3073
LCarets2: 1 0
Ligature2: "Precomposed forms for Znamenny Notation-1" u1CF5C u1CF3D
Position2: "Advance neume with cinnabar mark-1" dx=200 dy=0 dh=0 dv=0
Colour: ffff
EndChar

StartChar: uniEE9D
Encoding: 61085 61085 141
Width: 790
VWidth: 0
GlyphClass: 2
Flags: W
HStem: 0 21G<196.869 198> 451 125<644.474 710.206>
AnchorPoint: "PitchMark" 120 520 basechar 0
AnchorPoint: "Auxiliary" 450 800 basechar 0
AnchorPoint: "FinalPitch" 905 300 basechar 0
AnchorPoint: "Kachka" 465 660 basechar 0
AnchorPoint: "Lomka" 705 150 basechar 0
AnchorPoint: "Tikhaya" 0 100 basechar 0
AnchorPoint: "Borzaya" 0 150 basechar 0
AnchorPoint: "Zevok" 800 350 basechar 0
AnchorPoint: "Kupnaya" 50 -50 basechar 0
AnchorPoint: "Podvertka" 800 380 basechar 0
AnchorPoint: "Flexion" 555 640 basechar 0
AnchorPoint: "Podtinka" 0 -140 basechar 0
AnchorPoint: "TonalRange" 575 660 basechar 0
AnchorPoint: "Zaderzhka" 800 460 basechar 0
AnchorPoint: "Omet" 655 300 basechar 0
AnchorPoint: "Tochka" 655 325 basechar 0
AnchorPoint: "Podchashie" 530 45 basechar 0
LayerCount: 2
Fore
SplineSet
106 247 m 1
 127 308 215 327 215 327 c 1
 205 203 l 1
 205 203 125 184 94 121 c 1
 106 247 l 1
42 -9 m 1
 63 52 151 71 151 71 c 1
 141 -53 l 1
 141 -53 61 -72 30 -135 c 1
 42 -9 l 1
684 576 m 0
 697 576 711 566 729 545 c 0
 746 525 753 508 753 494 c 0
 753 493 753 493 753 492 c 1
 740 374 l 1
 734 402 718 426 691 447 c 0
 688 450 683 451 678 451 c 0
 677 451 l 0
 660 451 635 439 603 414 c 0
 559 381 512 340 461 290 c 0
 410 240 355 182 295 116 c 0
 235 50 201 11 195 0 c 1
 205 107 l 1
 213 122 240 157 285 212 c 0
 383 332 447 396 571 498 c 0
 634 550 671 576 684 576 c 0
386 99 m 1
 407 160 470 168 470 168 c 1
 460 44 l 1
 460 44 405 35 374 -28 c 1
 386 99 l 1
516 218 m 1
 537 279 600 287 600 287 c 1
 590 163 l 1
 590 163 535 154 504 91 c 1
 516 218 l 1
EndSplineSet
Validated: 3073
Position2: "Advance neume with cinnabar mark-1" dx=200 dy=0 dh=0 dv=0
Colour: ffc259
EndChar

StartChar: u1CF18.ss04
Encoding: 60944 60944 142
Width: 0
VWidth: 999
GlyphClass: 2
Flags: W
HStem: 400 13<163.009 187 223.34 301 336.584 349>
VStem: 184 38<413 544.894> 195 35<512 547> 299 35<413 544.734> 309 34<513 547>
DStem2: 8 199 17 187 0.733297 0.679909<-5.4823 111.551>
AnchorPoint: "PitchMark" 382 542 mark 0
LayerCount: 2
Fore
SplineSet
230 545 m 4xa0
 224 520 222 493 222 465 c 4
 222 448 222 430 224 413 c 5
 301 413 l 5
 300 426 299 441 299 456 c 4xd0
 299 489 302 522 309 547 c 4
 311 554 319 553 326 553 c 4
 334 553 345 552 343 545 c 4x88
 337 516 334 494 334 462 c 4
 334 444 336 430 337 413 c 5
 372 413 l 6
 377 413 381 410 381 407 c 4
 381 406 381 406 380 405 c 4
 369 395 342 375 326 349 c 4
 314 331 305 305 304 297 c 4
 304 292 298 291 292 291 c 4
 290 291 287 291 284 291 c 4
 276 291 267 292 270 299 c 4
 272 305 288 335 303 355 c 5
 319 374 342 393 349 400 c 5
 170 400 l 6
 164 400 163 403 163 407 c 4
 163 411 166 413 172 413 c 6
 187 413 l 5
 186 428 184 445 184 463 c 4xd0
 184 492 189 525 195 547 c 4
 197 554 205 554 213 554 c 5
 220 553 231 552 230 545 c 4xa0
206 353 m 4
 209 353 211 349 211 346 c 4
 211 344 210 342 206 339 c 4
 186 328 151 307 118 282 c 5
 130 266 142 245 144 240 c 4
 148 233 137 231 132 229 c 5
 127 229 122 228 118 235 c 4
 113 243 107 254 98 266 c 5
 64 237 34 204 17 187 c 4
 15 185 14 185 12 185 c 4
 9 185 6 188 6 193 c 4
 6 195 6 197 8 199 c 4
 22 213 54 248 89 278 c 5
 78 291 66 303 60 309 c 4
 49 319 59 320 63 320 c 4
 71 321 79 322 84 318 c 4
 91 313 100 304 109 293 c 5
 142 318 179 341 195 349 c 4xa0
 199 351 203 353 206 353 c 4
EndSplineSet
Validated: 3073
Colour: ffc259
EndChar

StartChar: u1CF1A.ss04
Encoding: 60946 60946 143
Width: 0
VWidth: 999
GlyphClass: 4
Flags: W
HStem: 399 23<73.1048 130.913> 530 26<70.0667 129.127>
VStem: 12 44<431.998 523.962> 139 32<508.659 522.283> 393 36<430.641 520>
AnchorPoint: "PitchMark" 450 543 mark 0
LayerCount: 2
Fore
SplineSet
171 431 m 4
 153 411 124 399 94 399 c 4
 48 399 12 429 12 476 c 4
 12 523 58 556 109 556 c 4
 134 556 154 547 168 532 c 4
 170 530 171 529 171 526 c 4
 171 516 150 504 142 504 c 4
 140 504 139 504 139 505 c 4
 131 520 115 530 98 530 c 4
 68 530 56 501 56 471 c 4
 56 458 63 445 72 434 c 4
 82 424 93 422 106 422 c 4
 122 422 132 431 138 444 c 4
 139 448 143 449 148 449 c 4
 158 449 172 443 172 436 c 4
 172 434 172 433 171 431 c 4
437 400 m 6
 426 400 l 6
 420 400 416 401 414 407 c 4
 408 428 404 437 400 458 c 4
 397 471 393 482 393 492 c 4
 393 500 390 510 390 520 c 5
 385 515 378 507 371 496 c 5
 351 471 328 435 310 408 c 5
 308 403 296 400 294 407 c 4
 288 428 284 437 280 458 c 4
 277 471 273 483 273 494 c 4
 273 504 269 513 269 523 c 5
 241 495 215 456 197 419 c 4
 193 413 191 409 190 408 c 4
 189 405 186 401 182 400 c 4
 178 400 176 408 176 412 c 4
 176 415 177 418 180 425 c 4
 197 464 225 499 251 528 c 5
 264 541 272 552 292 552 c 4
 295 552 299 552 303 550 c 5
 312 550 307 533 307 523 c 5
 309 504 315 475 319 457 c 5
 340 493 348 503 371 528 c 4
 385 542 390 552 414 552 c 4
 417 552 419 552 423 550 c 5
 427 550 429 547 428 544 c 4
 427 538 427 529 429 516 c 5
 429 473 450 439 450 405 c 4
 450 401 443 400 437 400 c 6
EndSplineSet
Validated: 3073
Colour: ffc259
EndChar

StartChar: u1CF1C.ss04
Encoding: 60948 60948 144
Width: 0
VWidth: 999
Flags: W
HStem: 401 22<266.867 322.652> 531 26<261.532 321.697> 539 13<8.05356 34 67.8826 144 177.883 206.953>
VStem: 24 38<399.03 537.827> 134 38<399.03 537.827> 204 44<430.845 524.848> 331 32<509.718 523.433>
AnchorPoint: "PitchMark" 364 543 mark 0
LayerCount: 2
Fore
SplineSet
134 459 m 4xbe
 134 487 138 518 144 539 c 5
 69 539 l 5
 64 514 62 488 62 461 c 4
 62 442 64 423 64 405 c 4
 64 399 54 399 47 399 c 4
 39 399 28 399 28 405 c 4
 26 421 24 440 24 459 c 4
 24 487 28 518 34 539 c 5
 15 539 l 6
 10 539 8 541 8 544 c 4
 8 549 9 552 17 552 c 6
 198 552 l 6
 206 552 207 549 207 544 c 5
 206 540 205 539 198 539 c 6
 179 539 l 5
 174 514 172 488 172 461 c 4
 172 442 173 423 174 405 c 4
 174 399 164 399 157 399 c 4
 149 399 138 399 138 405 c 4
 136 421 134 440 134 459 c 4xbe
362 433 m 4
 345 412 316 401 286 401 c 4
 241 401 204 425 204 476 c 4
 204 524 248 557 301 557 c 4
 325 557 346 549 360 534 c 4
 362 532 363 530 363 528 c 4
 363 517 342 505 334 505 c 4
 332 505 331 506 331 507 c 4
 323 521 307 531 289 531 c 4xde
 260 531 248 502 248 472 c 4
 248 459 255 446 264 436 c 4
 273 425 285 423 297 423 c 4
 314 423 324 432 330 446 c 4
 331 449 336 450 341 450 c 4
 351 450 364 444 364 437 c 4
 364 436 364 434 362 433 c 4
EndSplineSet
Validated: 3073
Colour: ffc259
EndChar

StartChar: u1CF1E.ss04
Encoding: 60950 60950 145
Width: 0
VWidth: 999
Flags: W
HStem: 401 22<346.684 401.861> 531 26<341.66 401.697>
VStem: 225 36<430.641 520> 283 45<430.698 525.075> 411 31<509.718 523.009>
AnchorPoint: "PitchMark" 444 543 mark 0
LayerCount: 2
Fore
SplineSet
442 433 m 4
 425 412 396 401 366 401 c 4
 320 401 283 430 283 478 c 4
 283 524 329 557 381 557 c 4
 405 557 426 549 440 534 c 4
 442 532 442 530 442 528 c 4
 442 517 422 505 414 505 c 4
 412 505 411 506 411 507 c 4
 403 521 387 531 369 531 c 4
 340 531 328 502 328 472 c 4
 328 459 335 446 344 436 c 4
 353 425 365 423 377 423 c 4
 394 423 404 432 409 446 c 4
 411 449 415 450 420 450 c 4
 430 450 444 444 444 437 c 4
 444 436 444 434 442 433 c 4
269 400 m 6
 258 400 l 6
 252 400 248 401 246 407 c 4
 240 428 236 437 232 458 c 4
 229 471 225 482 225 492 c 4
 225 500 222 510 222 520 c 5
 217 515 210 507 203 496 c 5
 183 471 160 435 142 408 c 5
 140 403 128 400 126 407 c 4
 120 428 116 437 112 458 c 4
 109 471 105 483 105 494 c 4
 105 504 101 513 101 523 c 5
 73 495 47 456 29 419 c 4
 25 413 23 409 22 408 c 4
 21 405 18 401 14 400 c 4
 10 400 8 408 8 412 c 4
 8 415 9 418 12 425 c 4
 29 464 57 499 83 528 c 5
 96 541 104 552 124 552 c 4
 127 552 131 552 135 550 c 5
 144 550 139 533 139 523 c 5
 141 504 147 475 151 457 c 5
 172 493 180 503 203 528 c 4
 217 542 222 552 246 552 c 4
 249 552 251 552 255 550 c 5
 259 550 261 547 260 544 c 4
 259 538 259 529 261 516 c 5
 261 473 282 439 282 405 c 4
 282 401 275 400 269 400 c 6
EndSplineSet
Validated: 3073
Colour: ffc259
EndChar

StartChar: u1CF2D.ss04
Encoding: 60959 60959 146
Width: 0
VWidth: 999
GlyphClass: 4
Flags: W
HStem: 191 166
VStem: 8 205
DStem2: 10 203 19 191 0.733297 0.679909<-5.4823 111.551>
AnchorPoint: "PitchMark" 313 400 mark 0
LayerCount: 2
Fore
SplineSet
208 357 m 4
 211 357 213 353 213 350 c 4
 213 348 212 346 208 343 c 4
 188 332 153 311 120 286 c 5
 132 270 144 249 146 244 c 4
 150 237 139 235 134 233 c 5
 129 233 124 232 120 239 c 4
 115 247 109 258 100 270 c 5
 66 241 36 208 19 191 c 4
 17 189 16 189 14 189 c 4
 11 189 8 192 8 197 c 4
 8 199 8 201 10 203 c 4
 24 217 56 252 91 282 c 5
 80 295 68 307 62 313 c 4
 51 323 61 324 65 324 c 4
 73 325 81 326 86 322 c 4
 93 317 102 308 111 297 c 5
 144 322 181 345 197 353 c 4
 201 355 205 357 208 357 c 4
EndSplineSet
Validated: 3073
Colour: ffc259
EndChar

StartChar: uniEE88
Encoding: 61064 61064 147
Width: 340
VWidth: 0
GlyphClass: 2
Flags: W
HStem: 1 21G<87.5 102.875 214.5 229.875> 329 126<166.921 252.997>
VStem: 121 18<269.004 304.991> 283 18<78.0371 122.684> 287 39<110.977 284.686>
AnchorPoint: "FinalPitch" 485 210 basechar 0
AnchorPoint: "Podvertka" 300 60 basechar 0
AnchorPoint: "Lomka" 540 150 basechar 0
AnchorPoint: "Tikhaya" 0 50 basechar 0
AnchorPoint: "Borzaya" 0 150 basechar 0
AnchorPoint: "Zevok" 50 0 basechar 0
AnchorPoint: "Kachka" 50 660 basechar 0
AnchorPoint: "Kupnaya" 50 -50 basechar 0
AnchorPoint: "Auxiliary" 265 660 basechar 0
AnchorPoint: "Flexion" 395 640 basechar 0
AnchorPoint: "Podtinka" 0 -50 basechar 0
AnchorPoint: "TonalRange" 415 660 basechar 0
AnchorPoint: "Tochka" 350 325 basechar 0
AnchorPoint: "Zaderzhka" 380 240 basechar 0
AnchorPoint: "Omet" 205 500 basechar 0
AnchorPoint: "Podchashie" 100 -30 basechar 0
AnchorPoint: "PitchMark" 60 580 basechar 0
LayerCount: 2
Fore
SplineSet
283 94 m 2xf0
 283 94 287 133 287 175 c 0
 287 182 287 189 287 196 c 0
 286 228 280 258 267 286 c 0
 254 314 234 329 207 329 c 2
 201 329 l 2
 169 329 142 310 139 284 c 0
 138 274 134 269 130 269 c 0
 126 269 122 274 121 283 c 0
 120 292 120 301 120 311 c 0
 120 366 135 407 165 432 c 0
 184 447 202 455 221 455 c 0
 244 455 270 446 287 423 c 0
 315 385 326 342 326 282 c 0xe8
 326 211 316 146 301 85 c 0
 300 80 296 78 291 78 c 0
 286 78 283 83 283 94 c 2xf0
159 248 m 1
 240 129 l 1
 228 1 l 1
 147 121 l 1
 159 248 l 1
32 248 m 1
 113 129 l 1
 101 1 l 1
 20 121 l 1
 32 248 l 1
EndSplineSet
Validated: 3073
Position2: "Advance neume with cinnabar mark-1" dx=200 dy=0 dh=0 dv=0
Colour: ffc259
EndChar

StartChar: uniEE0C
Encoding: 60940 60940 148
Width: 0
VWidth: 999
Flags: W
HStem: 596 48<130.571 172.631 210.571 252.631>
VStem: 130 43<596.084 643.99> 210 43<596.084 643.99> 228 38<431.149 520>
AnchorPoint: "Stacking" -72 463 mark 0
AnchorPoint: "Stacking" 188 568 basemark 0
AnchorPoint: "PitchMark" 288 548 mark 0
LayerCount: 2
Fore
SplineSet
266 544 m 4xd0
 266 540 266 536 266 531 c 4
 266 491 288 437 288 406 c 4
 288 401 277 400 269 400 c 4
 261 400 253 401 252 407 c 4
 246 427 242 438 238 459 c 5
 232 484 229 500 228 520 c 5
 217 510 201 487 185 464 c 4
 170 443 152 413 148 408 c 5
 146 403 133 401 132 407 c 4
 126 427 122 438 118 459 c 5
 112 484 108 505 107 524 c 5
 95 512 79 488 65 469 c 4
 60 463 32 413 28 408 c 5
 26 401 13 401 13 409 c 4
 13 425 53 484 61 495 c 4
 79 519 100 540 113 548 c 4
 117 551 125 552 130 552 c 4
 136 552 147 551 146 544 c 4
 146 542 146 539 146 537 c 4
 146 515 151 474 157 457 c 5
 179 495 207 532 233 548 c 4
 237 551 245 552 250 552 c 4
 256 552 267 551 266 544 c 4xd0
230 596 m 4
 218 596 210 607 210 617 c 4
 210 630 220 644 232 644 c 4
 245 644 253 632 253 622 c 4xe0
 253 609 243 596 230 596 c 4
150 596 m 4
 138 596 130 607 130 617 c 4
 130 630 140 644 152 644 c 4
 165 644 173 632 173 622 c 4
 173 609 163 596 150 596 c 4
EndSplineSet
Validated: 3073
Colour: ffc259
EndChar

StartChar: uniEE0D
Encoding: 60941 60941 149
Width: 0
VWidth: 999
Flags: W
HStem: 539 13<16.0536 42 75.8826 152 185.883 214.953> 594 48<54.571 96.6309 134.571 176.631>
VStem: 32 38<399.03 537.827> 54 43<594.084 641.99> 134 43<594.084 641.99> 142 38<399.03 537.827>
AnchorPoint: "Stacking" -125 458 mark 0
AnchorPoint: "Stacking" 115 563 basemark 0
AnchorPoint: "PitchMark" 215 543 mark 0
LayerCount: 2
Fore
SplineSet
154 594 m 4xc8
 142 594 134 605 134 615 c 4
 134 628 144 642 156 642 c 4
 169 642 177 630 177 620 c 4
 177 607 167 594 154 594 c 4xc8
74 594 m 4
 62 594 54 605 54 615 c 4
 54 628 64 642 76 642 c 4
 89 642 97 630 97 620 c 4xd0
 97 607 87 594 74 594 c 4
142 459 m 4xe4
 142 487 146 518 152 539 c 5
 77 539 l 5
 72 514 70 488 70 461 c 4
 70 442 72 423 72 405 c 4
 72 399 62 399 55 399 c 4
 47 399 36 399 36 405 c 4
 34 421 32 440 32 459 c 4
 32 487 36 518 42 539 c 5
 23 539 l 6
 18 539 16 541 16 544 c 4
 16 549 17 552 25 552 c 4
 40 552 60 552 82 552 c 4
 126 552 177 552 206 552 c 4
 214 552 215 549 215 544 c 5
 214 540 213 539 206 539 c 6
 187 539 l 5
 182 514 180 488 180 461 c 4
 180 442 181 423 182 405 c 4
 182 399 172 399 165 399 c 4
 157 399 146 399 146 405 c 4
 144 421 142 440 142 459 c 4xe4
EndSplineSet
Validated: 3073
Colour: ffc259
EndChar

StartChar: uniEE0E
Encoding: 60942 60942 150
Width: 0
VWidth: 999
Flags: W
HStem: 398 13<11.0199 41 76.5809 151 186.489 210.906> 539 13<25.0198 47 80.8826 157 190.883 223.999> 593 48<62.571 104.631 142.571 184.631>
VStem: 39 36<411 537.848> 62 43<593.084 640.99> 142 43<593.084 640.99> 149 36<411 537.848>
AnchorPoint: "Stacking" -116 455 mark 0
AnchorPoint: "Stacking" 124 560 basemark 0
AnchorPoint: "PitchMark" 224 540 mark 0
LayerCount: 2
Fore
SplineSet
151 411 m 5xf2
 150 424 149 439 149 455 c 4
 149 485 152 516 157 539 c 5
 82 539 l 5
 77 513 75 484 75 455 c 4
 75 440 76 426 77 411 c 5
 151 411 l 5xf2
41 411 m 5
 40 425 39 440 39 456 c 4
 39 485 42 516 47 539 c 5
 33 539 l 6
 27 539 25 542 25 546 c 4
 25 550 28 552 34 552 c 4
 49 552 69 552 91 552 c 4
 135 552 187 552 216 552 c 4
 222 552 224 550 224 546 c 4
 224 541 224 539 215 539 c 6
 192 539 l 5
 187 513 185 484 185 455 c 4
 185 440 186 424 187 410 c 5
 202 410 l 6
 210 410 211 407 211 403 c 4
 210 399 209 398 202 398 c 6
 19 398 l 6
 13 398 11 401 11 405 c 4
 11 409 14 410 21 410 c 5
 27 411 33 411 41 411 c 5
162 593 m 4
 150 593 142 604 142 614 c 4
 142 627 152 641 164 641 c 4
 177 641 185 629 185 619 c 4xe4
 185 606 175 593 162 593 c 4
82 593 m 4
 70 593 62 604 62 614 c 4
 62 627 72 641 84 641 c 4
 97 641 105 629 105 619 c 4xe8
 105 606 95 593 82 593 c 4
EndSplineSet
Validated: 3073
Colour: ffc259
EndChar

StartChar: u1CF20.ss04
Encoding: 60976 60976 151
Width: 0
GlyphClass: 4
Flags: W
HStem: 408 2<17.0015 17.6943> 420 16<27.2834 127.814> 485 2<64 102> 539 21<53.6301 101>
VStem: 11 27<489.828 534.905> 130 31<432.847 482.057>
AnchorPoint: "Auxiliary" 86 550 mark 0
LayerCount: 2
Fore
SplineSet
52 466 m 4
 31 466 11 485 11 506 c 4
 11 530 35 548 57 550 c 4
 65 551 76 550 83 554 c 4
 90 557 96 560 100 560 c 4
 102 560 103 555 102 554 c 4
 95 549 96 536 95 529 c 4
 95 528 88 528 87 529 c 4
 84 537 76 539 67 539 c 4
 50 539 38 529 38 514 c 4
 38 499 46 487 64 487 c 4
 80 487 97 507 119 507 c 4
 140 507 161 489 161 461 c 4
 161 428 130 415 97 415 c 4
 80 415 64 420 47 420 c 4
 34 420 28 414 21 408 c 5
 20 408 l 6
 19 408 17 408 17 410 c 5
 18 410 20 420 27 428 c 4
 33 435 42 436 50 436 c 4
 64 436 80 430 96 430 c 4
 115 430 130 436 130 454 c 4
 130 475 116 485 102 485 c 4
 82 485 70 466 52 466 c 4
EndSplineSet
Validated: 3073
Colour: ffc259
EndChar

StartChar: u1CF21.ss04
Encoding: 60977 60977 152
Width: 0
VWidth: 999
GlyphClass: 4
Flags: W
HStem: 418 19<69.0948 117.026> 530 22<64.8435 116.594>
VStem: 14 39<446.119 525.712> 130 38<441.785 523.234>
AnchorPoint: "Auxiliary" 91 551 mark 0
LayerCount: 2
Fore
SplineSet
99 552 m 4
 139 552 168 527 168 485 c 4
 168 444 128 418 86 418 c 4
 46 418 14 443 14 484 c 4
 14 524 54 552 99 552 c 4
89 530 m 4
 63 530 53 505 53 479 c 4
 53 468 59 457 67 448 c 4
 75 439 85 437 96 437 c 4
 122 437 130 464 130 490 c 4
 130 512 111 530 89 530 c 4
EndSplineSet
Validated: 3073
Colour: ffc259
EndChar

StartChar: u1CF22.ss04
Encoding: 60978 60978 153
Width: 0
VWidth: 999
GlyphClass: 4
Flags: W
HStem: 429 27<71.5172 119.975> 520 32<92.9175 136.457>
VStem: 6 33<285.148 404.778> 137 30<465.882 518.992>
AnchorPoint: "Stacking" 115 562 basemark 0
AnchorPoint: "Stacking" -125 457 mark 0
AnchorPoint: "PitchMark" 110 542 mark 0
LayerCount: 2
Fore
SplineSet
64 432 m 5
 57 417 51 393 46 368 c 4
 42 346 39 324 39 306 c 4
 39 298 31 285 21 285 c 4
 20 285 l 4
 11 285 6 297 6 305 c 4
 6 347 17 394 37 450 c 4
 57 506 87 552 125 552 c 4
 151 552 167 527 167 501 c 4
 167 498 167 494 166 491 c 4
 158 444 124 429 89 429 c 4
 83 429 70 431 64 432 c 5
71 460 m 5
 88 456 90 456 96 456 c 5
 103 456 110 457 115 460 c 4
 122 463 137 480 137 499 c 4
 137 512 128 520 116 520 c 4
 94 520 81 486 71 460 c 5
EndSplineSet
Validated: 3073
Colour: ffc259
EndChar

StartChar: u1CF23.ss04
Encoding: 60979 60979 154
Width: 0
VWidth: 999
GlyphClass: 4
Flags: W
HStem: 85 25<30 518>
AnchorPoint: "Tikhaya" 38 100 mark 0
LayerCount: 2
Fore
SplineSet
30 110 m 5
 530 110 l 5
 518 85 l 5
 18 85 l 5
 30 110 l 5
EndSplineSet
Validated: 3073
Colour: ffc259
EndChar

StartChar: u1CF24.ss04
Encoding: 60980 60980 155
Width: 0
VWidth: 999
GlyphClass: 4
Flags: W
HStem: 37 22<73.0937 90.9451> 102 25<201.043 243.847> 195 21<221.074 245.662> 331 27<169.319 218.147>
VStem: 11 33<81.971 193.735> 170 27<130.378 187.572> 221 32<251.582 329.57> 251 29<131.597 191.643>
AnchorPoint: "Borzaya" 280 217 mark 0
LayerCount: 2
Fore
SplineSet
11 137 m 4xfe
 11 218 142 358 215 358 c 4
 248 358 253 340 253 310 c 4
 253 281 221 214 221 214 c 5xfe
 224 215 229 216 234 216 c 4
 253 216 280 207 280 176 c 4xfd
 280 171 280 165 278 159 c 4
 268 122 242 102 209 102 c 4
 184 102 170 118 170 142 c 4
 170 148 171 154 173 161 c 4
 193 219 221 265 221 301 c 4
 221 315 217 331 198 331 c 4
 183 331 143 299 130 289 c 4
 91 258 44 201 44 148 c 4
 44 96 66 67 82 59 c 4
 88 56 91 52 91 47 c 4
 91 42 87 37 78 37 c 4
 77 37 75 38 73 38 c 4
 33 46 11 83 11 137 c 4xfe
251 169 m 4xfd
 251 187 236 195 224 195 c 4
 218 195 213 193 211 189 c 4
 208 183 203 173 198 158 c 4
 197 156 197 154 197 152 c 4
 197 140 208 127 222 127 c 4
 246 127 251 153 251 169 c 4xfd
EndSplineSet
Validated: 3073
Colour: ffc259
EndChar

StartChar: u1CF25.ss04
Encoding: 60981 60981 156
Width: 0
VWidth: 999
GlyphClass: 4
Flags: W
HStem: 74 23<138.126 185.806>
VStem: 105 29<99.5393 148.81>
AnchorPoint: "Borzaya" 270 95 mark 0
LayerCount: 2
Fore
SplineSet
6 -150 m 4
 6 -144 8 -137 18 -123 c 4
 27 -110 62 -54 104 -8 c 4
 128 19 171 68 186 80 c 5
 186 80 175 74 156 74 c 4
 128 74 105 89 105 113 c 4
 105 115 105 116 105 118 c 5
 108 133 115 153 130 153 c 4
 134 153 137 151 137 146 c 4
 137 139 134 132 134 126 c 4
 134 108 142 97 159 97 c 4
 211 97 218 118 240 140 c 4
 243 143 247 144 250 144 c 4
 256 144 265 139 265 131 c 4
 265 124 256 116 246 106 c 4
 200 61 144 3 100 -53 c 4
 84 -73 40 -134 30 -154 c 4
 26 -161 21 -164 16 -164 c 4
 10 -164 6 -158 6 -150 c 4
EndSplineSet
Validated: 3073
Colour: ffc259
EndChar

StartChar: u1CF26.ss04
Encoding: 60982 60982 157
Width: 0
VWidth: 999
GlyphClass: 4
Flags: W
HStem: 0 98<39.2218 116.641>
VStem: 8 31<100.344 139.557> 27 12<135.557 155.946>
AnchorPoint: "Podvertka" 148 212 mark 0
LayerCount: 2
Fore
SplineSet
75 0 m 4xc0
 36 0 8 26 8 69 c 4xc0
 8 93 14 120 27 149 c 4
 28 154 30 156 34 156 c 4
 38 156 40 152 39 145 c 6xa0
 39 122 l 6
 39 106 50 98 71 98 c 4
 94 98 113 112 128 133 c 4
 149 160 163 199 168 227 c 4
 169 233 172 236 177 236 c 4
 180 236 181 228 181 214 c 4
 181 171 173 119 156 77 c 4
 139 33 112 0 75 0 c 4xc0
EndSplineSet
Validated: 3073
Colour: ffc259
EndChar

StartChar: u1CF27.ss04
Encoding: 60983 60983 158
Width: 0
GlyphClass: 4
Flags: W
HStem: 517 19<236.09 283.945> 629 22<231.897 282.599>
VStem: 130 34<505.899 597.947> 181 39<542.914 624.304> 297 38<541.101 622.245>
AnchorPoint: "Lomka" 15 660 mark 0
LayerCount: 2
Fore
SplineSet
129 647 m 4
 136 648 136 646 139 640 c 4
 149 621 164 553 164 516 c 4
 164 511 150 505 140 505 c 4
 135 505 131 507 130 510 c 4
 123 534 119 559 115 583 c 4
 113 594 114 605 110 602 c 4
 78 583 59 545 36 511 c 4
 34 509 30 507 25 507 c 4
 19 507 14 509 14 513 c 4
 14 555 112 643 129 647 c 4
253 517 m 4
 217 517 181 539 181 580 c 4
 181 620 217 651 266 651 c 4
 297 651 335 634 335 585 c 4
 335 546 299 517 253 517 c 4
258 629 m 4
 232 629 220 608 220 585 c 4
 220 561 234 536 260 536 c 4
 286 536 297 557 297 580 c 4
 297 604 283 629 258 629 c 4
EndSplineSet
Validated: 3073
Colour: ffc259
EndChar

StartChar: u1CF28.ss04
Encoding: 60984 60984 159
Width: 0
VWidth: 999
GlyphClass: 4
Flags: W
HStem: -102 96<26.0144 39.9488 87.1297 104.839>
VStem: 8 65<-46.0615 -22.346> 8 32<-101.965 -39.7556> 72 33<-100.798 -35.6847>
AnchorPoint: "Kupnaya" 193 -9 mark 0
LayerCount: 2
Fore
SplineSet
56 -6 m 4xa0
 66 -6 73 -10 73 -16 c 4xc0
 73 -19 72 -22 69 -25 c 5
 63 -31 54 -37 47 -55 c 4
 40 -72 42 -78 40 -93 c 4
 39 -99 32 -102 25 -102 c 4
 13 -102 8 -92 8 -79 c 4
 8 -49 33 -6 56 -6 c 4xa0
126 -6 m 4
 134 -6 143 -10 143 -16 c 4
 143 -34 115 -29 107 -52 c 4
 106 -56 105 -60 105 -63 c 4
 105 -74 110 -80 110 -89 c 4
 110 -98 104 -102 95 -102 c 4
 80 -102 72 -85 72 -67 c 4x90
 72 -34 102 -6 126 -6 c 4
EndSplineSet
Validated: 3073
Colour: ffc259
EndChar

StartChar: u1CF29.ss04
Encoding: 60985 60985 160
Width: 0
GlyphClass: 4
Flags: W
HStem: 568 96<28.0144 41.9488 89.1297 106.839>
VStem: 10 65<623.938 647.654> 10 32<568.035 630.244> 74 33<569.202 634.315>
AnchorPoint: "Kachka" 245 663 mark 0
LayerCount: 2
Fore
SplineSet
58 664 m 4xa0
 68 664 75 660 75 654 c 4xc0
 75 651 74 648 71 645 c 5
 65 639 56 633 49 615 c 4
 42 598 44 592 42 577 c 4
 41 571 34 568 27 568 c 4
 15 568 10 578 10 591 c 4
 10 621 35 664 58 664 c 4xa0
128 664 m 4
 136 664 145 660 145 654 c 4
 145 636 117 641 109 618 c 4
 108 614 107 610 107 607 c 4
 107 596 112 590 112 581 c 4
 112 572 106 568 97 568 c 4
 82 568 74 585 74 603 c 4x90
 74 636 104 664 128 664 c 4
EndSplineSet
Validated: 3073
Colour: ffc259
EndChar

StartChar: u1CF2A.ss04
Encoding: 60986 60986 161
Width: 0
VWidth: 999
GlyphClass: 4
Flags: W
HStem: 318 24<12.7754 142.052> 582 27<122.83 200.764>
VStem: 204 37<527.73 579.765> 219 37<378.444 465.076>
AnchorPoint: "Zevok" 100 607 mark 0
LayerCount: 2
Fore
SplineSet
241 563 m 4xe0
 241 558 241 553 239 547 c 4
 234 526 200 507 200 507 c 5
 227 495 242 481 251 453 c 4
 254 444 256 434 256 425 c 4
 256 341 148 318 65 318 c 4
 45 318 29 320 20 324 c 4
 16 325 10 332 10 336 c 4
 10 340 13 342 20 342 c 4
 63 342 196 346 214 395 c 4
 217 403 219 412 219 419 c 4xd0
 219 461 178 492 148 495 c 4
 138 496 138 505 144 507 c 4
 158 511 204 529 204 556 c 4
 204 576 188 582 170 582 c 4
 139 582 113 565 101 553 c 4
 96 548 91 546 87 546 c 4
 80 546 75 551 75 557 c 4
 75 559 76 562 78 564 c 4
 99 586 137 609 182 609 c 4
 213 609 241 593 241 563 c 4xe0
EndSplineSet
Validated: 3073
Colour: ffc259
EndChar

StartChar: u1CF2B.ss04
Encoding: 60987 60987 162
Width: 0
GlyphClass: 4
Flags: W
HStem: 572 25<7.02042 51.8748 66 147.267> 580 24<46.3199 250.269>
VStem: 87 27<635.911 699.929>
AnchorPoint: "Auxiliary" 137 629 mark 0
LayerCount: 2
Fore
SplineSet
150 604 m 4x60
 180 604 262 604 262 580 c 4x60
 262 575 257 572 249 572 c 4xa0
 247 572 245 573 243 573 c 4
 210 578 179 580 149 580 c 5x60
 112 580 77 579 43 574 c 5
 36 574 30 572 25 572 c 4
 14 572 7 576 7 585 c 4
 7 590 12 595 20 597 c 4xa0
 44 603 58 608 71 631 c 4
 82 649 85 661 87 675 c 4
 89 692 88 700 102 700 c 4
 112 700 114 689 114 678 c 4
 114 657 107 641 102 633 c 4
 86 606 66 600 66 600 c 5
 96 600 124 604 150 604 c 4x60
EndSplineSet
Validated: 3073
Colour: ffc259
EndChar

StartChar: u1CF2C.ss04
Encoding: 60988 60988 163
Width: 0
VWidth: 999
GlyphClass: 4
Flags: W
HStem: 567 96
VStem: 19 34<567.041 632.576>
AnchorPoint: "Auxiliary" 94 651 mark 0
LayerCount: 2
Fore
SplineSet
37 567 m 4
 24 567 19 577 19 591 c 4
 19 616 36 646 51 657 c 4
 57 661 62 663 68 663 c 5
 77 662 84 658 84 652 c 4
 84 650 83 647 80 644 c 4
 70 633 53 617 53 594 c 4
 53 581 50 567 37 567 c 4
EndSplineSet
Validated: 3073
Colour: ffc259
EndChar

StartChar: uniEE56
Encoding: 61014 61014 164
Width: 0
VWidth: 999
GlyphClass: 4
Flags: W
HStem: 559 95<-316.37 -255.664>
VStem: -351 31<602 718.945> -328 9<721.592 736.031> -231 10<730.467 761.683>
AnchorPoint: "Flexion" -251 649 mark 0
LayerCount: 2
Fore
SplineSet
-295 559 m 0xd0
 -330 559 -351 585 -351 619 c 0xd0
 -351 658 -343 695 -328 732 c 0
 -323 744 -318 738 -319 727 c 0xb0
 -319 721 -320 711 -320 697 c 0
 -320 668 -308 654 -285 654 c 0
 -260 654 -242 687 -231 754 c 0
 -230 759 -228 762 -224 762 c 0
 -222 762 -221 760 -221 757 c 0
 -221 750 -221 750 -221 743 c 0
 -221 712 -225 679 -232 643 c 0
 -243 587 -264 559 -295 559 c 0xd0
EndSplineSet
Validated: 3073
Colour: ffc259
EndChar

StartChar: uniEE5A
Encoding: 61018 61018 165
Width: 0
VWidth: 999
GlyphClass: 4
Flags: W
HStem: 183 184
VStem: 3 129
AnchorPoint: "Tochka" -28 330 mark 0
LayerCount: 2
Fore
SplineSet
11 367 m 1
 132 286 l 1
 124 183 l 1
 3 264 l 1
 11 367 l 1
EndSplineSet
Validated: 3073
Colour: ffc259
EndChar

StartChar: uniEE5B
Encoding: 61019 61019 166
Width: 0
VWidth: 999
GlyphClass: 4
Flags: W
HStem: -1 21G<90.75 122.569>
VStem: 0 143
AnchorPoint: "Tochka" -17 329 mark 0
LayerCount: 2
Fore
SplineSet
8 182 m 1
 129 101 l 1
 121 -1 l 1
 0 79 l 1
 8 182 l 1
22 366 m 1
 143 285 l 1
 135 182 l 1
 14 263 l 1
 22 366 l 1
EndSplineSet
Validated: 3073
Colour: ffc259
EndChar

StartChar: uniEA57
Encoding: 59991 59991 167
Width: 625
VWidth: 999
Flags: W
HStem: 0 21G<31.8692 33> 451 125<479.474 545.206>
AnchorPoint: "Omet" 567 323 basechar 0
AnchorPoint: "FinalPitch" 815 300 basechar 0
AnchorPoint: "PitchMark" 250 770 basechar 0
AnchorPoint: "TonalRange" 415 660 basechar 0
AnchorPoint: "Auxiliary" 265 800 basechar 0
AnchorPoint: "Kachka" 415 720 basechar 0
AnchorPoint: "Lomka" 540 150 basechar 0
AnchorPoint: "Tikhaya" 0 370 basechar 0
AnchorPoint: "Borzaya" 0 150 basechar 0
AnchorPoint: "Zevok" 630 350 basechar 0
AnchorPoint: "Kupnaya" 50 -50 basechar 0
AnchorPoint: "Podvertka" 630 380 basechar 0
AnchorPoint: "Flexion" 395 640 basechar 0
AnchorPoint: "Podtinka" 0 -50 basechar 0
AnchorPoint: "Zaderzhka" 630 460 basechar 0
AnchorPoint: "Tochka" 485 325 basechar 0
AnchorPoint: "Podchashie" 378 245 basechar 0
LayerCount: 2
Fore
SplineSet
519 576 m 0
 532 576 546 566 564 545 c 0
 581 525 588 508 588 494 c 0
 588 493 588 493 588 492 c 1
 575 374 l 1
 569 402 553 426 526 447 c 0
 523 450 518 451 513 451 c 0
 512 451 l 0
 495 451 470 439 438 414 c 0
 394 381 347 340 296 290 c 0
 245 240 190 182 130 116 c 0
 70 50 36 11 30 0 c 1
 40 107 l 1
 48 122 75 157 120 212 c 0
 218 332 282 396 406 498 c 0
 469 550 506 576 519 576 c 0
EndSplineSet
Validated: 3073
Colour: ff00
EndChar

StartChar: uniEA1E
Encoding: 59934 59934 168
Width: 639
VWidth: 0
GlyphClass: 3
Flags: W
HStem: 0 95<536.44 615.721> -0 41<99.1641 174.501 346.148 417.825> 217 41<315.791 384.306> 229 30<47.9345 113.503> 325 42<378.763 454.236> 457 21G<355 355.5> 468 34<378.739 474>
VStem: 9 30<126.981 216.693> 14 46<-150.704 46.9599> 182 27<47.9093 139.28> 250 27<123.29 184.293> 378 60<507.976 579.211> 455 27<72.8735 134.255> 457 60<376.144 454.48> 529 95<8.2793 87.5597>
LayerCount: 2
Fore
SplineSet
30 227 m 0x1972
 48 252 74 259 96 259 c 0
 120 259 140 251 144 249 c 0
 181 230 209 167 209 109 c 0
 209 64 192 22 150 5 c 0
 143 2 135 1 128 1 c 0
 87 1 56 47 56 47 c 2
 56 47 60 -8 60 -59 c 0
 60 -98 58 -135 49 -143 c 1
 0 -180 l 1
 11 -162 14 -115 14 -68 c 0x18f2
 14 -9 9 49 9 49 c 2
 9 53 9 56 9 60 c 0
 9 86 7 112 7 137 c 0
 7 169 11 200 30 227 c 0x1972
366 258 m 1x687a
 366 258 366 258 367 258 c 0
 375 258 482 229 482 129 c 0
 482 30 379 0 367 -0 c 0
 366 0 l 0
 366 0 365 0 364 -0 c 0
 349 0 250 31 250 129 c 0
 250 227 353 258 365 258 c 0
 366 258 l 1x687a
330 217 m 0
 302 217 277 192 277 165 c 0
 277 137 297 106 320 83 c 0
 343 60 374 41 403 41 c 0
 430 41 455 64 455 92 c 0
 455 120 435 151 412 174 c 0
 389 197 358 217 330 217 c 0
577 95 m 0x8872
 603 95 624 74 624 47 c 0
 624 22 602 0 577 0 c 0
 550 0 529 21 529 47 c 0
 529 74 550 95 577 95 c 0x8872
421 367 m 0
 444 367 457 377 457 406 c 0
 457 442 432 468 395 468 c 0x0a76
 372 468 365 463 346 457 c 1x0c76
 364 482 378 520 378 544 c 0
 378 551 373 555 365 555 c 1
 344 555 304 539 274 515 c 16
 257 501 247 472 247 462 c 0
 247 461 l 1
 180 427 l 1
 191 464 209 496 249 522 c 0
 292 551 316 560 347 571 c 0
 366 578 393 585 422 587 c 0
 433 588 438 584 438 574 c 0
 438 550 420 513 407 492 c 1
 425 498 432 502 455 502 c 0x0a7a
 493 502 517 476 517 440 c 0x0a76
 517 387 479 349 433 333 c 0
 417 328 402 325 387 325 c 0
 374 325 361 327 346 332 c 0
 318 341 304 367 304 367 c 1
 369 400 l 1
 369 400 389 367 421 367 c 0
77 229 m 0x1972
 52 229 39 207 39 185 c 0
 39 160 51 130 63 108 c 0
 80 78 114 36 146 36 c 0
 171 36 182 58 182 81 c 0
 182 108 170 140 159 160 c 0
 142 190 109 229 77 229 c 0x1972
EndSplineSet
Validated: 3073
Colour: ffff00
EndChar

StartChar: afii10095
Encoding: 1101 1101 169
Width: 257
VWidth: 700
GlyphClass: 2
Flags: W
HStem: 400 22<120.133 163.063>
VStem: 183 51<286.187 366.133>
AnchorPoint: "Diacritic" 152 522 basechar 0
AnchorPoint: "Yerok" 208 522 basechar 0
AnchorPoint: "Numeral" 119 320 basechar 0
LayerCount: 2
Fore
SplineSet
126 148 m 1
 150 179 173 230 181 278 c 1
 134 242 l 1
 129 240 124 243 120 245 c 0
 114 248 102 260 98 268 c 0
 96 272 93 276 92 282 c 1
 72 267 l 1
 64 261 56 254 52 244 c 1
 48 244 41 248 40 252 c 1
 44 262 54 272 62 278 c 2
 128 328 l 1
 133 326 137 323 140 319 c 0
 146 311 151 304 157 296 c 0
 162 290 161 290 167 286 c 1
 173 290 178 293 183 298 c 1
 183 304 l 2
 183 334 176 364 166 384 c 0
 162 392 158 396 154 400 c 1
 152 400 150 400 148 400 c 0
 122 400 106 376 96 360 c 0
 96 360 96 361 94 361 c 2
 34 383 l 1
 34 384 33 384 33 386 c 0
 33 390 36 395 38 397 c 1
 52 392 l 1
 55 395 60 401 67 407 c 0
 74 413 82 420 86 421 c 1
 90 421 94 422 98 422 c 0
 102 422 106 422 110 422 c 0
 139 422 158 417 176 404 c 0
 210 379 234 344 234 288 c 0
 234 254 225 217 215 195 c 0
 204 170 188 144 170 124 c 1
 148 127 135 129 114 138 c 24
 92 148 78 156 62 172 c 1
 62 178 67 182 72 182 c 1
 88 166 103 157 126 148 c 1
EndSplineSet
AlternateSubs2: "Stylistic Alternatives for Znamenny (salt)-1" uniEA1C
EndChar

StartChar: uniEEA1
Encoding: 61089 61089 170
Width: 950
VWidth: 0
GlyphClass: 2
Flags: W
HStem: -1 22G<191.89 195.5 356.869 358> 65 134<60.4374 124.588> 451 125<804.474 870.206>
VStem: 30 11<10.051 31.4036> 131 27<-61.0176 109.5>
AnchorPoint: "FinalPitch" 1065 300 basechar 0
AnchorPoint: "Auxiliary" 560 800 basechar 0
AnchorPoint: "Kachka" 180 330 basechar 0
AnchorPoint: "PitchMark" 210 580 basechar 0
AnchorPoint: "Lomka" 875 150 basechar 0
AnchorPoint: "Tikhaya" 0 -30 basechar 0
AnchorPoint: "Borzaya" 0 150 basechar 0
AnchorPoint: "Zevok" 960 350 basechar 0
AnchorPoint: "Kupnaya" 50 -50 basechar 0
AnchorPoint: "Podvertka" 960 380 basechar 0
AnchorPoint: "Flexion" 715 640 basechar 0
AnchorPoint: "Podtinka" 0 -100 basechar 0
AnchorPoint: "TonalRange" 735 660 basechar 0
AnchorPoint: "Zaderzhka" 960 460 basechar 0
AnchorPoint: "Omet" 825 300 basechar 0
AnchorPoint: "Tochka" 825 325 basechar 0
AnchorPoint: "Podchashie" 735 93 basechar 0
LayerCount: 2
Fore
SplineSet
844 576 m 0
 857 576 871 566 889 545 c 0
 906 525 913 508 913 494 c 0
 913 493 913 493 913 492 c 1
 900 374 l 1
 894 402 878 426 851 447 c 0
 848 450 843 451 838 451 c 0
 837 451 l 0
 820 451 795 439 763 414 c 0
 719 381 672 340 621 290 c 0
 570 240 515 182 455 116 c 0
 395 50 361 11 355 0 c 1
 365 107 l 1
 373 122 400 157 445 212 c 0
 543 332 607 396 731 498 c 0
 794 550 831 576 844 576 c 0
263 63 m 1
 257 -1 249 -74 249 -74 c 1
 226 -80 l 1
 239 50 l 1
 219 38 201 21 190 -1 c 1
 202 126 l 1
 210 149 230 166 252 178 c 1
 260 259 l 1
 282 267 l 1
 278 224 279 234 275 190 c 1
 303 202 327 206 327 206 c 1
 317 82 l 1
 317 82 292 76 263 63 c 1
101 199 m 0
 139 199 158 154 158 65 c 0
 158 15 151 -37 138 -91 c 0
 137 -96 134 -98 129 -98 c 0
 125 -98 120 -93 121 -88 c 0
 128 -41 131 -9 131 10 c 0
 131 44 118 62 93 65 c 1
 86 65 l 2
 64 65 49 49 41 18 c 0
 40 13 37 10 33 9 c 0
 30 8 29 10 30 15 c 0
 36 102 37 199 101 199 c 0
594 151 m 1
 615 212 678 220 678 220 c 1
 668 96 l 1
 668 96 613 87 582 24 c 1
 594 151 l 1
724 270 m 1
 745 331 808 339 808 339 c 1
 798 215 l 1
 798 215 743 206 712 143 c 1
 724 270 l 1
EndSplineSet
Validated: 3073
Position2: "Advance neume with cinnabar mark-1" dx=200 dy=0 dh=0 dv=0
Colour: ffc259
EndChar

StartChar: uniEEA2
Encoding: 61090 61090 171
Width: 880
VWidth: 0
GlyphClass: 2
Flags: W
HStem: -10 31G<30 33.5 160 163.5 286.869 288> 451 125<734.474 800.206>
VStem: 40 83<91.2443 272.069> 160 93<30 186> 170 83<92.7336 271.783>
AnchorPoint: "FinalPitch" 985 300 basechar 0
AnchorPoint: "Auxiliary" 500 800 basechar 0
AnchorPoint: "Kachka" 465 660 basechar 0
AnchorPoint: "PitchMark" 210 580 basechar 0
AnchorPoint: "Lomka" 805 150 basechar 0
AnchorPoint: "Tikhaya" 0 100 basechar 0
AnchorPoint: "Borzaya" 0 150 basechar 0
AnchorPoint: "Zevok" 890 350 basechar 0
AnchorPoint: "Kupnaya" 50 -50 basechar 0
AnchorPoint: "Podvertka" 890 380 basechar 0
AnchorPoint: "Flexion" 645 640 basechar 0
AnchorPoint: "Podtinka" 0 -50 basechar 0
AnchorPoint: "TonalRange" 665 660 basechar 0
AnchorPoint: "Zaderzhka" 890 460 basechar 0
AnchorPoint: "Omet" 755 300 basechar 0
AnchorPoint: "Tochka" 755 325 basechar 0
AnchorPoint: "Podchashie" 641 245 basechar 0
LayerCount: 2
Fore
SplineSet
774 576 m 0xe0
 787 576 801 566 819 545 c 0
 836 525 843 508 843 494 c 0
 843 493 843 493 843 492 c 1
 830 374 l 1
 824 402 808 426 781 447 c 0
 778 450 773 451 768 451 c 0
 767 451 l 0
 750 451 725 439 693 414 c 0
 649 381 602 340 551 290 c 0
 500 240 445 182 385 116 c 0
 325 50 291 11 285 0 c 1
 295 107 l 1
 303 122 330 157 375 212 c 0
 473 332 537 396 661 498 c 0
 724 550 761 576 774 576 c 0xe0
197 38 m 0
 175 6 164 -10 163 -10 c 2
 160 -10 l 1xf0
 160 -9 162 5 165 30 c 0
 168 55 170 83 170 115 c 1
 170 145 167 199 163 208 c 1
 157 222 159 225 165 234 c 2
 230 327 l 2
 232 329 234 330 236 330 c 0
 247 330 253 309 253 268 c 0xe8
 253 256 252 229 249 186 c 0
 246 143 242 116 237 104 c 0
 232 92 219 70 197 38 c 0
106 330 m 0
 117 330 123 306 123 260 c 0
 123 214 120 177 115 148 c 0
 110 119 105 101 103 95 c 0
 101 89 89 70 67 38 c 0
 45 6 34 -10 33 -10 c 2
 30 -10 l 1
 30 -9 32 5 35 30 c 0
 38 55 40 83 40 115 c 0
 40 147 38 178 33 208 c 1
 29 217 30 226 35 234 c 2
 100 327 l 2
 101 329 103 330 106 330 c 0
EndSplineSet
Validated: 3073
Position2: "Advance neume with cinnabar mark-1" dx=200 dy=0 dh=0 dv=0
Colour: ffc259
EndChar

StartChar: uniEEA3
Encoding: 61091 61091 172
Width: 880
VWidth: 0
GlyphClass: 2
Flags: W
HStem: -10 31G<30 33.5 160 163.5 286.869 288> 451 125<734.474 800.206>
VStem: 40 83<91.2443 272.069> 160 93<30 186> 170 83<92.7336 271.783>
AnchorPoint: "FinalPitch" 985 300 basechar 0
AnchorPoint: "Auxiliary" 500 800 basechar 0
AnchorPoint: "Kachka" 465 660 basechar 0
AnchorPoint: "PitchMark" 210 580 basechar 0
AnchorPoint: "Lomka" 805 150 basechar 0
AnchorPoint: "Tikhaya" 0 100 basechar 0
AnchorPoint: "Borzaya" 0 150 basechar 0
AnchorPoint: "Zevok" 890 350 basechar 0
AnchorPoint: "Kupnaya" 50 -50 basechar 0
AnchorPoint: "Podvertka" 890 380 basechar 0
AnchorPoint: "Flexion" 645 640 basechar 0
AnchorPoint: "Podtinka" 0 -50 basechar 0
AnchorPoint: "TonalRange" 665 660 basechar 0
AnchorPoint: "Zaderzhka" 890 460 basechar 0
AnchorPoint: "Omet" 755 300 basechar 0
AnchorPoint: "Tochka" 755 325 basechar 0
AnchorPoint: "Podchashie" 673 93 basechar 0
LayerCount: 2
Fore
SplineSet
774 576 m 0xe0
 787 576 801 566 819 545 c 0
 836 525 843 508 843 494 c 0
 843 493 843 493 843 492 c 1
 830 374 l 1
 824 402 808 426 781 447 c 0
 778 450 773 451 768 451 c 0
 767 451 l 0
 750 451 725 439 693 414 c 0
 649 381 602 340 551 290 c 0
 500 240 445 182 385 116 c 0
 325 50 291 11 285 0 c 1
 295 107 l 1
 303 122 330 157 375 212 c 0
 473 332 537 396 661 498 c 0
 724 550 761 576 774 576 c 0xe0
197 38 m 0
 175 6 164 -10 163 -10 c 2
 160 -10 l 1xf0
 160 -9 162 5 165 30 c 0
 168 55 170 83 170 115 c 1
 170 145 167 199 163 208 c 1
 157 222 159 225 165 234 c 2
 230 327 l 2
 232 329 234 330 236 330 c 0
 247 330 253 309 253 268 c 0xe8
 253 256 252 229 249 186 c 0
 246 143 242 116 237 104 c 0
 232 92 219 70 197 38 c 0
106 330 m 0
 117 330 123 306 123 260 c 0
 123 214 120 177 115 148 c 0
 110 119 105 101 103 95 c 0
 101 89 89 70 67 38 c 0
 45 6 34 -10 33 -10 c 2
 30 -10 l 1
 30 -9 32 5 35 30 c 0
 38 55 40 83 40 115 c 0
 40 147 38 178 33 208 c 1
 29 217 30 226 35 234 c 2
 100 327 l 2
 101 329 103 330 106 330 c 0
524 151 m 1
 545 212 608 220 608 220 c 1
 598 96 l 1
 598 96 543 87 512 24 c 1
 524 151 l 1
654 270 m 1
 675 331 738 339 738 339 c 1
 728 215 l 1
 728 215 673 206 642 143 c 1
 654 270 l 1
EndSplineSet
Validated: 3073
Position2: "Advance neume with cinnabar mark-1" dx=200 dy=0 dh=0 dv=0
Colour: ffc259
EndChar

StartChar: uniEEA4
Encoding: 61092 61092 173
Width: 880
VWidth: 0
GlyphClass: 2
Flags: W
HStem: -10 31G<30 33.5 160 163.5 286.869 288> 451 125<734.474 800.206>
VStem: 40 83<91.2443 272.069> 160 93<30 186> 170 83<92.7336 271.783>
AnchorPoint: "FinalPitch" 985 300 basechar 0
AnchorPoint: "Auxiliary" 500 800 basechar 0
AnchorPoint: "Kachka" 465 660 basechar 0
AnchorPoint: "PitchMark" 210 580 basechar 0
AnchorPoint: "Lomka" 805 150 basechar 0
AnchorPoint: "Tikhaya" 0 100 basechar 0
AnchorPoint: "Borzaya" 0 150 basechar 0
AnchorPoint: "Zevok" 890 350 basechar 0
AnchorPoint: "Kupnaya" 50 -50 basechar 0
AnchorPoint: "Podvertka" 890 380 basechar 0
AnchorPoint: "Flexion" 645 640 basechar 0
AnchorPoint: "Podtinka" 0 -50 basechar 0
AnchorPoint: "TonalRange" 665 660 basechar 0
AnchorPoint: "Zaderzhka" 890 460 basechar 0
AnchorPoint: "Omet" 755 300 basechar 0
AnchorPoint: "Tochka" 755 325 basechar 0
AnchorPoint: "Podchashie" 591 -7 basechar 0
LayerCount: 2
Fore
SplineSet
774 576 m 0xe0
 787 576 801 566 819 545 c 0
 836 525 843 508 843 494 c 0
 843 493 843 493 843 492 c 1
 830 374 l 1
 824 402 808 426 781 447 c 0
 778 450 773 451 768 451 c 0
 767 451 l 0
 750 451 725 439 693 414 c 0
 649 381 602 340 551 290 c 0
 500 240 445 182 385 116 c 0
 325 50 291 11 285 0 c 1
 295 107 l 1
 303 122 330 157 375 212 c 0
 473 332 537 396 661 498 c 0
 724 550 761 576 774 576 c 0xe0
197 38 m 0
 175 6 164 -10 163 -10 c 2
 160 -10 l 1xf0
 160 -9 162 5 165 30 c 0
 168 55 170 83 170 115 c 1
 170 145 167 199 163 208 c 1
 157 222 159 225 165 234 c 2
 230 327 l 2
 232 329 234 330 236 330 c 0
 247 330 253 309 253 268 c 0xe8
 253 256 252 229 249 186 c 0
 246 143 242 116 237 104 c 0
 232 92 219 70 197 38 c 0
106 330 m 0
 117 330 123 306 123 260 c 0
 123 214 120 177 115 148 c 0
 110 119 105 101 103 95 c 0
 101 89 89 70 67 38 c 0
 45 6 34 -10 33 -10 c 2
 30 -10 l 1
 30 -9 32 5 35 30 c 0
 38 55 40 83 40 115 c 0
 40 147 38 178 33 208 c 1
 29 217 30 226 35 234 c 2
 100 327 l 2
 101 329 103 330 106 330 c 0
615 81 m 1
 602 -56 l 1
 579 -62 l 1
 592 68 l 1
 569 55 553 38 543 17 c 1
 555 144 l 1
 562 165 579 182 605 196 c 1
 613 277 l 1
 635 285 l 1
 632 253 632 244 628 208 c 1
 651 218 664 219 680 224 c 1
 670 100 l 1
 653 96 634 90 615 81 c 1
EndSplineSet
Validated: 3073
Position2: "Advance neume with cinnabar mark-1" dx=200 dy=0 dh=0 dv=0
Colour: ffc259
EndChar

StartChar: uniEEA5
Encoding: 61093 61093 174
Width: 750
VWidth: 0
GlyphClass: 2
Flags: W
HStem: -10 31G<30 33.5 156.869 158> 451 125<604.474 670.206>
VStem: 40 83<91.2443 272.069>
AnchorPoint: "FinalPitch" 865 300 basechar 0
AnchorPoint: "Auxiliary" 380 800 basechar 0
AnchorPoint: "Kachka" 465 660 basechar 0
AnchorPoint: "PitchMark" 210 580 basechar 0
AnchorPoint: "Lomka" 665 150 basechar 0
AnchorPoint: "Tikhaya" 0 100 basechar 0
AnchorPoint: "Borzaya" 0 150 basechar 0
AnchorPoint: "Zevok" 760 350 basechar 0
AnchorPoint: "Kupnaya" 50 -50 basechar 0
AnchorPoint: "Podvertka" 760 380 basechar 0
AnchorPoint: "Flexion" 515 640 basechar 0
AnchorPoint: "Podtinka" 0 -50 basechar 0
AnchorPoint: "TonalRange" 535 660 basechar 0
AnchorPoint: "Zaderzhka" 760 460 basechar 0
AnchorPoint: "Omet" 615 300 basechar 0
AnchorPoint: "Tochka" 615 325 basechar 0
AnchorPoint: "Podchashie" 513 245 basechar 0
LayerCount: 2
Fore
SplineSet
644 576 m 0
 657 576 671 566 689 545 c 0
 706 525 713 508 713 494 c 0
 713 493 713 493 713 492 c 1
 700 374 l 1
 694 402 678 426 651 447 c 0
 648 450 643 451 638 451 c 0
 637 451 l 0
 620 451 595 439 563 414 c 0
 519 381 472 340 421 290 c 0
 370 240 315 182 255 116 c 0
 195 50 161 11 155 0 c 1
 165 107 l 1
 173 122 200 157 245 212 c 0
 343 332 407 396 531 498 c 0
 594 550 631 576 644 576 c 0
106 330 m 0
 117 330 123 306 123 260 c 0
 123 214 120 177 115 148 c 0
 110 119 105 101 103 95 c 0
 101 89 89 70 67 38 c 0
 45 6 34 -10 33 -10 c 2
 30 -10 l 1
 30 -9 32 5 35 30 c 0
 38 55 40 83 40 115 c 0
 40 147 38 178 33 208 c 1
 29 217 30 226 35 234 c 2
 100 327 l 2
 101 329 103 330 106 330 c 0
EndSplineSet
Validated: 3073
Position2: "Advance neume with cinnabar mark-1" dx=200 dy=0 dh=0 dv=0
Colour: ffc259
EndChar

StartChar: uniEA00
Encoding: 59904 59904 175
Width: 0
VWidth: 999
GlyphClass: 4
Flags: W
HStem: 201 150<111.409 140.921 275.1 300.717 385.1 410.931> 270 14<301 375> 302 52<210.149 236.37> 341 13<88.007 114 148.086 211>
VStem: 105 36<201.023 339.69> 210 27<306.22 340.717> 264 37<201.04 270 284 342.247> 375 36<201.03 270 284 343.01>
DStem2: 6 16 15 4 0.733297 0.679909<-5.4823 111.551>
AnchorPoint: "PitchMark" 420 345 mark 0
LayerCount: 2
Fore
SplineSet
420 344 m 0x8f
 420 323 411 294 411 264 c 0
 411 243 414 228 414 207 c 0
 414 201 404 201 397 201 c 0x8f
 389 201 378 201 378 207 c 0
 376 223 374 240 374 258 c 0
 374 262 374 266 375 270 c 1
 301 270 l 1x4f
 301 267 301 264 301 261 c 0
 301 241 302 228 304 207 c 0
 304 201 294 201 287 201 c 0
 279 201 268 201 268 207 c 0
 266 223 264 242 264 261 c 0
 264 291 269 322 275 345 c 0
 277 352 287 351 293 351 c 0x8f
 298 351 312 350 310 343 c 0
 307 327 303 307 301 284 c 1
 375 284 l 1x4f
 378 306 381 327 385 345 c 0
 387 352 397 351 403 351 c 0
 408 351 420 350 420 344 c 0x8f
105 260 m 0
 105 287 109 323 114 341 c 1
 95 341 l 2
 89 341 88 344 88 348 c 0
 88 352 90 353 97 354 c 1x1f
 143 354 190 354 236 354 c 0
 244 354 245 350 245 346 c 0
 244 340 238 334 237 326 c 0
 234 312 241 302 234 302 c 0x2f
 227 302 213 312 210 321 c 0
 209 327 209 335 211 341 c 1
 190 341 170 341 149 341 c 1x1f
 144 313 141 288 141 258 c 0
 141 240 143 227 144 207 c 0
 145 201 132 201 126 201 c 0
 120 201 109 201 108 207 c 0
 107 223 105 241 105 260 c 0
204 170 m 0
 207 170 209 166 209 163 c 0
 209 161 208 159 204 156 c 0
 184 145 149 124 116 99 c 1
 128 83 140 62 142 57 c 0
 146 50 136 50 130 50 c 1
 125 49 120 45 116 52 c 0
 111 60 105 71 96 83 c 1
 62 54 32 21 15 4 c 0
 13 2 12 2 10 2 c 0
 7 2 4 5 4 10 c 0
 4 12 4 14 6 16 c 0
 20 30 52 65 87 95 c 1
 76 108 64 120 58 126 c 0
 47 136 57 137 61 137 c 0
 69 138 77 139 82 135 c 0
 89 130 98 121 107 110 c 1
 140 135 177 158 193 166 c 0
 197 168 201 170 204 170 c 0
EndSplineSet
Colour: ff00ff
EndChar

StartChar: uniEA01
Encoding: 59905 59905 176
Width: 0
VWidth: 999
GlyphClass: 4
Flags: W
HStem: 201 150<31.4094 60.9214 195.1 220.717 305.1 330.931> 270 14<221 295> 302 52<130.149 156.37> 341 13<8.007 34 68.0862 131>
VStem: 25 36<201.023 339.69> 130 27<306.22 340.717> 184 37<201.04 270 284 342.247> 295 36<201.03 270 284 343.01>
AnchorPoint: "PitchMark" 340 345 mark 0
LayerCount: 2
Fore
SplineSet
340 344 m 4x8f
 340 323 331 294 331 264 c 4
 331 243 332 228 334 207 c 4
 334 201 324 201 317 201 c 4x8f
 309 201 298 201 298 207 c 4
 296 223 294 240 294 258 c 4
 294 262 294 266 295 270 c 5
 221 270 l 5x4f
 221 267 221 264 221 261 c 4
 221 241 222 228 224 207 c 4
 224 201 214 201 207 201 c 4
 199 201 188 201 188 207 c 4
 186 223 184 242 184 261 c 4
 184 291 189 322 195 345 c 4
 197 352 207 351 213 351 c 4x8f
 218 351 232 350 230 343 c 4
 227 327 223 307 221 284 c 5
 295 284 l 5x4f
 298 306 301 327 305 345 c 4
 307 352 317 351 323 351 c 4
 328 351 340 350 340 344 c 4x8f
25 260 m 4
 25 287 29 323 34 341 c 5
 15 341 l 6
 9 341 8 344 8 348 c 4
 8 352 10 353 17 354 c 5x1f
 63 354 110 354 156 354 c 4
 164 354 165 350 165 346 c 4
 164 340 158 334 157 326 c 4
 154 312 161 302 154 302 c 4x2f
 147 302 133 312 130 321 c 4
 129 327 129 335 131 341 c 5
 110 341 90 341 69 341 c 5x1f
 64 313 61 288 61 258 c 4
 61 240 63 227 64 207 c 4
 65 201 52 201 46 201 c 4
 40 201 29 201 28 207 c 4
 27 223 25 241 25 260 c 4
EndSplineSet
Colour: ff00ff
EndChar

StartChar: uniEA02
Encoding: 59906 59906 177
Width: 0
VWidth: 999
GlyphClass: 4
Flags: W
HStem: -6 21G<7.5 10>
VStem: 124 36<229 343.922> 135 34<312 346> 236 36<199.096 322.11>
DStem2: 5 8 14 -4 0.733297 0.679909<-5.4823 111.551>
AnchorPoint: "PitchMark" 281 345 mark 0
LayerCount: 2
Fore
SplineSet
281 344 m 4xd0
 281 316 272 297 272 266 c 4
 272 244 275 228 275 205 c 4
 275 201 266 199 257 199 c 4
 248 199 240 201 239 206 c 4
 237 223 236 243 236 264 c 4
 236 286 238 304 242 323 c 5
 234 316 216 288 202 270 c 4
 197 263 166 212 163 207 c 4
 160 201 151 199 145 200 c 4
 140 201 128 201 127 207 c 4
 125 224 124 244 124 265 c 4xd0
 124 294 128 325 135 346 c 4
 137 351 143 352 148 352 c 6
 152 352 l 6
 158 352 170 351 169 344 c 4xb0
 164 319 160 304 160 278 c 4
 160 259 160 248 162 229 c 5
 170 245 183 269 199 292 c 5
 217 316 235 339 247 347 c 4
 252 350 260 351 265 351 c 4
 271 351 281 350 281 344 c 4xd0
203 162 m 4
 206 162 208 158 208 155 c 4
 208 153 207 151 203 148 c 4
 183 137 148 116 115 91 c 5
 127 75 139 54 141 49 c 4
 145 42 135 42 129 42 c 5
 124 41 119 37 115 44 c 4
 110 52 104 63 95 75 c 5
 61 46 31 13 14 -4 c 4
 12 -6 11 -6 9 -6 c 4
 6 -6 3 -3 3 2 c 4
 3 4 3 6 5 8 c 4
 19 22 51 57 86 87 c 5
 75 100 63 112 57 118 c 4
 46 128 56 129 60 129 c 4
 68 130 76 131 81 127 c 4
 88 122 97 113 106 102 c 5
 139 127 176 150 192 158 c 4
 196 160 200 162 203 162 c 4
EndSplineSet
Colour: ff00ff
EndChar

StartChar: uniEA03
Encoding: 59907 59907 178
Width: 0
VWidth: 999
GlyphClass: 4
Flags: W
HStem: 199 153
VStem: 5 36<229 343.922> 16 34<312 346> 117 36<199.096 322.11>
AnchorPoint: "PitchMark" 162 345 mark 0
LayerCount: 2
Fore
SplineSet
162 344 m 4xd0
 162 316 153 297 153 266 c 4
 153 244 156 228 156 205 c 4
 156 201 147 199 138 199 c 4
 129 199 121 201 120 206 c 4
 118 223 117 243 117 264 c 4
 117 286 119 304 123 323 c 5
 115 316 97 288 83 270 c 4
 78 263 47 212 44 207 c 4
 41 202 35 200 29 200 c 4
 23 200 9 201 8 207 c 4
 6 224 5 244 5 265 c 4xd0
 5 294 9 325 16 346 c 4
 18 351 24 352 29 352 c 6
 33 352 l 6
 39 352 51 351 50 344 c 4xb0
 45 319 41 304 41 278 c 4
 41 259 41 248 43 229 c 5
 51 245 64 269 80 292 c 5
 98 316 116 339 128 347 c 4
 133 350 141 351 146 351 c 4
 152 351 162 350 162 344 c 4xd0
EndSplineSet
Validated: 3073
Colour: ff00ff
EndChar

StartChar: uniEA04
Encoding: 59908 59908 179
Width: 0
VWidth: 999
GlyphClass: 4
Flags: W
HStem: 214 19<60.0948 108.021> 326 22<55.8435 107.351>
VStem: 5 39<242.119 321.712> 116 28<307.922 319.279>
AnchorPoint: "PitchMark" 145 345 mark 0
LayerCount: 2
Fore
SplineSet
144 241 m 4
 128 224 103 214 77 214 c 4
 37 214 5 239 5 280 c 4
 5 320 45 348 90 348 c 4
 111 348 130 341 142 328 c 4
 143 326 144 325 144 323 c 4
 144 314 126 304 119 304 c 4
 117 304 116 304 116 305 c 4
 109 317 95 326 80 326 c 4
 54 326 44 301 44 275 c 4
 44 264 50 253 58 244 c 4
 66 235 76 233 87 233 c 4
 101 233 110 241 115 253 c 4
 116 255 120 256 124 256 c 4
 133 256 145 251 145 245 c 4
 145 244 145 243 144 241 c 4
EndSplineSet
Validated: 3073
Colour: ff00ff
EndChar

StartChar: uniEA15
Encoding: 59925 59925 180
Width: 0
VWidth: 999
GlyphClass: 4
Flags: W
HStem: 24 172
VStem: 3 201
DStem2: 5 35 15 24 0.697786 0.716307<-4.2267 92.4656> 135 155 145 144 0.815383 0.578922<-56.1688 -24.9915 1.78569 75.8899>
LayerCount: 2
Fore
SplineSet
200 196 m 4
 203 196 204 192 204 189 c 4
 204 187 203 185 200 183 c 4
 187 175 166 160 145 144 c 5
 147 141 172 113 172 101 c 4
 172 100 171 98 170 97 c 6
 160 95 l 5
 152 95 150 92 146 98 c 4
 138 108 134 118 125 128 c 4
 124 128 l 4
 114 121 105 114 99 108 c 5
 100 107 126 77 126 65 c 4
 126 63 125 62 124 61 c 6
 114 59 l 5
 106 58 104 55 100 61 c 4
 93 71 88 82 79 92 c 5
 58 72 29 39 15 24 c 4
 14 22 12 22 11 22 c 4
 6 22 3 27 3 31 c 4
 3 32 3 34 5 35 c 4
 23 54 46 82 70 103 c 5
 64 110 58 116 53 121 c 6
 40 133 l 6
 35 138 33 141 35 143 c 5
 38 143 40 144 42 146 c 5
 54 146 l 6
 57 146 60 145 63 143 c 4
 71 138 80 130 89 119 c 5
 96 125 106 132 115 140 c 5
 110 147 104 153 99 157 c 6
 86 170 l 6
 80 175 78 178 81 180 c 5
 84 180 86 181 88 182 c 5
 100 182 l 6
 103 183 106 182 109 180 c 4
 116 175 126 166 135 155 c 5
 151 167 178 186 189 190 c 4
 191 192 197 196 200 196 c 4
EndSplineSet
Validated: 3073
Colour: ffff00
EndChar

StartChar: uniEA10
Encoding: 59920 59920 181
Width: 0
VWidth: 999
GlyphClass: 4
Flags: W
HStem: 327 32<91.8795 127.333>
VStem: 7 33<42.3527 217.834>
AnchorPoint: "PitchMark" 105 345 mark 0
LayerCount: 2
Fore
SplineSet
110 327 m 4
 96 327 75 284 72 274 c 4
 43 205 40 165 40 63 c 5
 41 56 30 42 21 42 c 4
 12 42 7 56 7 64 c 4
 7 140 12 187 31 244 c 4
 41 276 62 328 86 347 c 4
 96 355 108 359 119 359 c 4
 127 359 130 356 130 351 c 4
 130 342 116 327 110 327 c 4
EndSplineSet
Validated: 3073
Colour: ffff00
EndChar

StartChar: uniEA11
Encoding: 59921 59921 182
Width: 0
VWidth: 500
GlyphClass: 4
Flags: W
VStem: 103 36<16.5339 101.59> 233 37<24.168 114.996> 363 38<33.824 124.586>
DStem2: 17 108 139 109 0.996704 0.0811271<121.679 213.608 253.14 337.564>
AnchorPoint: "Tikhaya" 10 100 mark 0
LayerCount: 2
Fore
SplineSet
105 91 m 4
 105 102 104 104 93 103 c 4
 68 100 43 97 17 93 c 4
 13 93 12 95 11 98 c 4
 11 99 11 101 11 103 c 4
 11 105 13 107 17 108 c 4
 43 114 227 129 331 137 c 4
 351 138 371 139 393 139 c 4
 400 139 401 126 401 114 c 6
 401 82 l 6
 401 56 399 33 375 33 c 4
 367 33 363 38 363 48 c 4
 364 72 365 89 365 108 c 4
 365 119 361 125 355 125 c 4
 340 125 325 124 311 123 c 6
 270 120 l 5
 270 75 l 6
 270 49 268 23 244 23 c 4
 233 23 231 32 231 44 c 4
 231 53 233 63 233 71 c 6
 233 97 l 6
 233 110 230 115 225 115 c 4
 207 113 178 112 139 109 c 5
 139 43 l 6
 139 25 131 16 115 16 c 4
 107 16 103 21 103 31 c 4
 103 54 105 68 105 91 c 4
EndSplineSet
Validated: 3073
Colour: ffff00
EndChar

StartChar: uniEA13
Encoding: 59923 59923 183
Width: 0
GlyphClass: 4
Flags: W
HStem: 4 19<63.0901 110.945> 116 22<58.8967 109.599>
VStem: 8 39<29.9142 111.304> 124 38<28.1006 109.245> 142 34<152.899 247.072>
AnchorPoint: "Lomka" 5 150 mark 0
LayerCount: 2
Fore
SplineSet
141 294 m 4xe8
 142 294 143 294 144 294 c 4
 148 294 148 292 151 287 c 4
 161 268 176 200 176 163 c 4
 176 158 162 152 152 152 c 4
 147 152 143 154 142 157 c 4
 132 181 129 211 127 230 c 4
 126 241 126 252 122 249 c 4
 90 230 71 192 48 158 c 4
 44 152 22 153 26 162 c 4
 44 205 112 287 141 294 c 4xe8
80 4 m 4
 44 4 8 26 8 67 c 4
 8 107 44 138 93 138 c 4
 124 138 162 121 162 72 c 4xf0
 162 33 126 4 80 4 c 4
85 116 m 4
 59 116 47 95 47 72 c 4
 47 48 61 23 87 23 c 4
 113 23 124 44 124 67 c 4
 124 91 110 116 85 116 c 4
EndSplineSet
Validated: 3073
Colour: ffff00
EndChar

StartChar: uniEA12
Encoding: 59922 59922 184
Width: 0
VWidth: 999
GlyphClass: 4
Flags: W
HStem: 92 20<68.2007 123.303> 183 18<73.3783 116.595> 214 42<110.149 136.37> 243 13<8.007 34 68.0515 111>
VStem: 25 37<113.356 210.739> 34 35<193.343 243> 110 27<218.22 242.725> 130 20<119.143 170.012>
AnchorPoint: "Borzaya" 178 155 mark 0
LayerCount: 2
Fore
SplineSet
95 183 m 4xc9
 74 183 62 164 62 145 c 5
 63 123 70 112 90 112 c 4
 91 112 93 112 95 113 c 4
 96 113 l 4
 119 113 130 123 130 139 c 4
 130 163 116 183 95 183 c 4xc9
63 192 m 5
 72 197 84 201 98 201 c 4
 123 201 149 182 150 152 c 4xd5
 150 111 142 99 110 94 c 4
 103 93 91 92 80 92 c 4
 59 92 37 94 32 97 c 5
 25 105 29 104 28 109 c 4
 27 125 25 143 25 162 c 4xda
 25 189 29 225 34 243 c 5
 15 243 l 6
 9 243 8 246 8 250 c 4
 8 254 10 255 17 256 c 5xd4
 57 256 96 256 136 256 c 4
 144 256 145 252 145 248 c 4
 144 242 138 246 137 238 c 4
 134 224 141 214 134 214 c 4xe6
 127 214 113 224 110 233 c 4
 109 239 109 237 111 243 c 5
 97 243 83 243 69 243 c 5xd6
 66 225 64 210 63 192 c 5
EndSplineSet
Validated: 3073
Colour: ffff00
EndChar

StartChar: uniEA50
Encoding: 59984 59984 185
Width: 350
VWidth: 999
GlyphClass: 5
Flags: W
HStem: 65 134<60.4374 124.588> 89 134<222.437 286.588>
VStem: 30 11<10.051 31.4036> 131 27<-61.0176 109.5> 192 11<34.051 55.4036> 293 27<-37.0176 133.5>
AnchorPoint: "Omet" 181 276 basechar 0
AnchorPoint: "FinalPitch" 402 241 basechar 0
AnchorPoint: "Lomka" 400 150 basechar 0
AnchorPoint: "Tikhaya" 0 -30 basechar 0
AnchorPoint: "Borzaya" 0 150 basechar 0
AnchorPoint: "Zevok" 50 0 basechar 0
AnchorPoint: "Kachka" 50 660 basechar 0
AnchorPoint: "Kupnaya" 50 -50 basechar 0
AnchorPoint: "Auxiliary" 265 660 basechar 0
AnchorPoint: "Podvertka" 220 0 basechar 0
AnchorPoint: "Flexion" 395 640 basechar 0
AnchorPoint: "Podtinka" 0 -50 basechar 0
AnchorPoint: "TonalRange" 415 660 basechar 0
AnchorPoint: "Tochka" 340 325 basechar 0
AnchorPoint: "Zaderzhka" 30 -120 basechar 0
AnchorPoint: "Podchashie" 100 -30 basechar 0
AnchorPoint: "PitchMark" 60 580 basechar 0
LayerCount: 2
Fore
SplineSet
263 223 m 0x7c
 301 223 320 178 320 89 c 0
 320 39 313 -13 300 -67 c 0
 299 -72 296 -74 291 -74 c 0
 287 -74 282 -69 283 -64 c 0
 290 -17 293 15 293 34 c 0
 293 68 280 86 255 89 c 1
 248 89 l 2
 226 89 211 73 203 42 c 0
 202 37 199 34 195 33 c 0
 192 32 191 34 192 39 c 0
 198 126 199 223 263 223 c 0x7c
101 199 m 0xbc
 139 199 158 154 158 65 c 0
 158 15 151 -37 138 -91 c 0
 137 -96 134 -98 129 -98 c 0
 125 -98 120 -93 121 -88 c 0
 128 -41 131 -9 131 10 c 0
 131 44 118 62 93 65 c 1
 86 65 l 2
 64 65 49 49 41 18 c 0
 40 13 37 10 33 9 c 0
 30 8 29 10 30 15 c 0
 36 102 37 199 101 199 c 0xbc
EndSplineSet
Validated: 3073
Colour: ff00
EndChar

StartChar: uniEA51
Encoding: 59985 59985 186
Width: 355
VWidth: 999
GlyphClass: 5
Flags: W
HStem: -1 21G<191.89 195.5> 65 134<60.4374 124.588>
VStem: 30 11<10.051 31.4036> 131 27<-61.0176 109.5>
AnchorPoint: "Omet" 270 325 basechar 0
AnchorPoint: "FinalPitch" 402 202.6 basechar 0
AnchorPoint: "Lomka" 400 150 basechar 0
AnchorPoint: "Tikhaya" 0 -30 basechar 0
AnchorPoint: "Borzaya" 0 150 basechar 0
AnchorPoint: "Zevok" 50 0 basechar 0
AnchorPoint: "Kachka" 50 660 basechar 0
AnchorPoint: "Kupnaya" 50 -50 basechar 0
AnchorPoint: "Auxiliary" 265 660 basechar 0
AnchorPoint: "Podvertka" 290 0 basechar 0
AnchorPoint: "Flexion" 395 640 basechar 0
AnchorPoint: "Podtinka" 0 -50 basechar 0
AnchorPoint: "TonalRange" 415 660 basechar 0
AnchorPoint: "Tochka" 325 325 basechar 0
AnchorPoint: "Zaderzhka" 30 -120 basechar 0
AnchorPoint: "Podchashie" 100 -30 basechar 0
AnchorPoint: "PitchMark" 60 580 basechar 0
LayerCount: 2
Fore
SplineSet
263 63 m 1
 257 -1 249 -74 249 -74 c 1
 226 -80 l 1
 239 50 l 1
 219 38 201 21 190 -1 c 1
 202 126 l 1
 210 149 230 166 252 178 c 1
 260 259 l 1
 282 267 l 1
 278 224 279 234 275 190 c 1
 303 202 327 206 327 206 c 1
 317 82 l 1
 317 82 292 76 263 63 c 1
101 199 m 0
 139 199 158 154 158 65 c 0
 158 15 151 -37 138 -91 c 0
 137 -96 134 -98 129 -98 c 0
 125 -98 120 -93 121 -88 c 0
 128 -41 131 -9 131 10 c 0
 131 44 118 62 93 65 c 1
 86 65 l 2
 64 65 49 49 41 18 c 0
 40 13 37 10 33 9 c 0
 30 8 29 10 30 15 c 0
 36 102 37 199 101 199 c 0
EndSplineSet
Validated: 3073
Colour: ff00
EndChar

StartChar: uniEA52
Encoding: 59986 59986 187
Width: 160
VWidth: 999
GlyphClass: 5
Flags: W
HStem: -1 21G<11.8898 15.5>
VStem: 10 137
AnchorPoint: "Omet" 168 276 basechar 0
AnchorPoint: "FinalPitch" 244 202.6 basechar 0
AnchorPoint: "Lomka" 350 150 basechar 0
AnchorPoint: "Tikhaya" 0 -30 basechar 0
AnchorPoint: "Borzaya" 0 150 basechar 0
AnchorPoint: "Zevok" 50 0 basechar 0
AnchorPoint: "Kachka" 50 660 basechar 0
AnchorPoint: "Kupnaya" 50 -50 basechar 0
AnchorPoint: "Auxiliary" 265 660 basechar 0
AnchorPoint: "Podvertka" 120 0 basechar 0
AnchorPoint: "Flexion" 395 640 basechar 0
AnchorPoint: "Podtinka" 0 -50 basechar 0
AnchorPoint: "TonalRange" 415 660 basechar 0
AnchorPoint: "Tochka" 155 325 basechar 0
AnchorPoint: "Zaderzhka" 30 -120 basechar 0
AnchorPoint: "Podchashie" 60 -30 basechar 0
AnchorPoint: "PitchMark" 60 580 basechar 0
LayerCount: 2
Fore
SplineSet
83 63 m 1
 77 -1 69 -74 69 -74 c 1
 46 -80 l 1
 59 50 l 1
 39 38 21 21 10 -1 c 1
 22 126 l 1
 30 149 50 166 72 178 c 1
 80 259 l 1
 102 267 l 1
 98 224 99 234 95 190 c 1
 123 202 147 206 147 206 c 1
 137 82 l 1
 137 82 112 76 83 63 c 1
EndSplineSet
Validated: 3073
Colour: ff00
EndChar

StartChar: uniEA55
Encoding: 59989 59989 188
Width: 281
VWidth: 999
Flags: W
HStem: 0 21G<121.818 159.091>
VStem: 10 65<219.288 416.012> 209 62<169.679 366.352>
AnchorPoint: "Omet" 312 660 basechar 0
AnchorPoint: "FinalPitch" 402 151 basechar 0
AnchorPoint: "Lomka" 350 150 basechar 0
AnchorPoint: "Tikhaya" 0 -30 basechar 0
AnchorPoint: "Borzaya" 0 150 basechar 0
AnchorPoint: "Zevok" 50 0 basechar 0
AnchorPoint: "Kachka" 50 660 basechar 0
AnchorPoint: "Kupnaya" 50 -50 basechar 0
AnchorPoint: "Auxiliary" 265 660 basechar 0
AnchorPoint: "Podvertka" 200 0 basechar 0
AnchorPoint: "Flexion" 395 640 basechar 0
AnchorPoint: "Podtinka" 0 -50 basechar 0
AnchorPoint: "TonalRange" 415 660 basechar 0
AnchorPoint: "Tochka" 290 325 basechar 0
AnchorPoint: "Zaderzhka" 30 -120 basechar 0
AnchorPoint: "Podchashie" 100 -30 basechar 0
AnchorPoint: "PitchMark" -40 500 basechar 0
LayerCount: 2
Fore
SplineSet
183 78 m 1
 195 129 209 182 209 242 c 0
 209 306 202 340 179 384 c 1
 156 431 130 468 98 506 c 1
 91 477 86 449 82 422 c 0
 79 399 75 374 75 346 c 0
 75 320 75 295 80 272 c 0
 98 193 142 134 183 78 c 1
140 585 m 257
 161 564 l 1
 198 530 230 472 251 413 c 0
 264 377 271 336 271 292 c 256
 271 205 239 133 206 80 c 0
 190 54 174 36 161 22 c 2
 140 0 l 257
 120 22 l 2
 66 81 10 176 10 292 c 0
 10 381 42 452 75 506 c 0
 91 532 107 551 120 564 c 2
 140 585 l 257
EndSplineSet
Validated: 3073
Colour: ff00
EndChar

StartChar: uniEA1F
Encoding: 59935 59935 189
Width: 706
VWidth: 500
GlyphClass: 2
Flags: W
HStem: 0 20<0 44 138 179.201> 4 66<419 490.338> 266 71<367.842 437.635> 318 15<589.823 630.698> 335 54<208.664 280.907> 371 15<422.662 445.987> 423 53<589.759 656.502> 470 92<444.187 479.766> 570 19<512.062 549> 588 20<191.133 259.984>
VStem: 44 94<20 356.375 374 538.809> 293 58<149.224 252.343> 295 96<402.111 552.886> 406 14<389.02 433.827> 432 54<488.282 536.812> 506 56<83.8672 182.757> 540 36<486.282 569.999> 657 23<354.619 439.423>
LayerCount: 2
Fore
SplineSet
472 70 m 0x603740
 493 70 506 91 506 115 c 0
 506 131 501 149 492 170 c 1
 473 203 436 266 392 266 c 0
 365 266 351 245 351 218 c 0
 351 194 360 172 369 154 c 1
 401 100 436 70 472 70 c 0x603740
432 337 m 0
 470 337 502 318 528 280 c 0
 550 247 562 210 562 171 c 0
 562 130 549 92 524 58 c 1
 496 22 463 4 424 4 c 2
 422 4 l 2
 411 4 397 8 380 16 c 0
 330 42 293 98 293 169 c 0
 293 224 323 278 354 304 c 1
 378 326 404 337 432 337 c 0
432 509 m 0
 432 533 443 562 464 562 c 0x05a6c0
 470 562 475 558 480 552 c 1
 502 577 523 589 544 589 c 0
 554 589 576 584 576 574 c 0
 576 537 586 508 594 486 c 0
 596 480 601 476 608 476 c 2
 622 476 l 2
 664 476 680 461 680 417 c 0
 680 351 659 318 618 318 c 0
 592 318 586 318 573 333 c 0
 567 340 564 346 564 354 c 0
 564 360 566 364 570 364 c 0
 572 364 575 362 579 358 c 0
 580 358 583 353 587 345 c 0
 591 337 595 333 598 333 c 0
 638 333 657 356 657 400 c 0
 657 416 643 423 614 423 c 0x12a6c0
 605 423 593 421 584 421 c 2
 575 421 l 2
 571 421 568 424 566 430 c 0
 552 469 540 513 540 564 c 0
 540 568 538 570 535 570 c 0
 521 570 504 559 484 537 c 1
 486 533 486 529 486 524 c 0
 486 499 476 470 454 470 c 0
 451 470 448 472 444 474 c 1
 427 440 420 417 420 404 c 0
 420 393 426 386 436 386 c 2
 440 386 l 2
 444 386 446 384 446 379 c 0
 446 374 444 371 440 371 c 0x05a6c0
 417 371 406 380 406 396 c 2
 406 400 l 2
 406 433 421 461 434 488 c 1
 432 494 432 501 432 509 c 0
391 468 m 0x986e40
 391 395 346 335 274 335 c 0
 229 335 198 355 182 394 c 1
 167 369 152 344 138 318 c 1
 138 20 l 1
 167 20 l 2
 173 20 180 13 180 6 c 0
 180 2 179 0 178 0 c 2
 0 0 l 1
 0 10 l 2
 0 13 6 17 16 21 c 1
 22 20 31 20 44 20 c 1
 44 486 l 2
 44 494 45 501 47 507 c 0
 68 569 154 608 241 608 c 0
 340 608 391 561 391 468 c 0x986e40
295 476 m 0x0a6e40
 295 546 274 588 228 588 c 0
 191 588 165 566 150 524 c 0
 142 503 138 482 138 461 c 2
 138 374 l 1
 150 381 161 396 171 421 c 0
 177 435 181 442 184 442 c 0
 187 442 190 440 190 436 c 0
 190 405 208 389 237 389 c 0
 282 389 295 426 295 476 c 0x0a6e40
EndSplineSet
Validated: 3073
Colour: ffff00
EndChar

StartChar: afii10047
Encoding: 1069 1069 190
Width: 458
VWidth: 700
GlyphClass: 2
Flags: W
HStem: -32 10<209.075 255.551> 8 30<78 141.194> 452 20<206.552 293.718>
VStem: 352 75<85.1328 242 243.561 366.668>
AnchorPoint: "Diacritic" 258 522 basechar 0
AnchorPoint: "Yerok" 386 522 basechar 0
LayerCount: 2
Fore
SplineSet
34 -40 m 1
 30 -30 30 -20 30 -6 c 0
 30 14 46 28 61 34 c 0
 67 37 74 38 82 38 c 0
 111 38 124 34 140 24 c 0
 163 10 180 -5 206 -16 c 0
 215 -20 221 -22 228 -22 c 0
 254 -22 279 -10 301 14 c 0
 331 46 347 90 350 134 c 0
 352 160 352 183 352 206 c 0
 352 218 352 229 352 242 c 1
 349 239 346 236 342 234 c 2
 284 195 l 1
 278 193 274 196 270 198 c 0
 260 206 246 223 244 238 c 1
 223 224 l 2
 216 220 207 212 202 202 c 1
 198 203 191 207 191 211 c 1
 197 221 204 227 215 235 c 2
 283 282 l 1
 287 280 291 276 294 272 c 0
 299 264 304 256 310 248 c 1
 314 242 316 239 320 236 c 1
 331 244 343 252 352 262 c 1
 352 296 351 324 347 346 c 0
 338 404 315 439 277 449 c 1
 273 451 264 452 252 452 c 0
 236 452 220 448 206 442 c 0
 196 437 188 428 184 416 c 0
 183 412 180 408 172 408 c 2
 170 408 l 0
 165 408 163 410 163 415 c 0
 163 417 163 420 164 423 c 0
 170 441 195 460 217 466 c 0
 232 470 244.012101352 472.538781962 256 472 c 0
 285.666666667 470.666666667 289 468 310 464 c 0
 362 454 399 407 418 325 c 0
 424 299 427 264 427 222 c 2
 427 210 l 2
 427 160 422 121 410 94 c 0
 395 60 376 33 356 15 c 0
 321 -15 286 -32 236 -32 c 0
 234 -32 231 -32 228 -32 c 0
 209 -31 192 -26 176 -14 c 0
 168 -8 159 -3 151 2 c 0
 143 6 137 8 129 8 c 0
 104 8 96 -9 94 -31 c 1
 90 -32 52 -40 38 -40 c 2
 34 -40 l 1
EndSplineSet
Position2: "'ss10' Equal Baseline Lookup-1" dx=0 dy=455 dh=0 dv=0
EndChar

StartChar: uniEB66
Encoding: 60262 60262 191
Width: 625
VWidth: 999
Flags: W
HStem: 0 21G<32.0513 47.0833> 451 125<478.289 544.923>
AnchorPoint: "FinalPitch" 815 300 basechar 0
AnchorPoint: "Auxiliary" 265 800 basechar 0
AnchorPoint: "PitchMark" 130 770 basechar 0
AnchorPoint: "Lomka" 540 150 basechar 0
AnchorPoint: "Tikhaya" 0 370 basechar 0
AnchorPoint: "Borzaya" 0 150 basechar 0
AnchorPoint: "Zevok" 630 350 basechar 0
AnchorPoint: "Kachka" 50 660 basechar 0
AnchorPoint: "Kupnaya" 50 -50 basechar 0
AnchorPoint: "Podvertka" 630 380 basechar 0
AnchorPoint: "Flexion" 395 640 basechar 0
AnchorPoint: "Podtinka" 0 -50 basechar 0
AnchorPoint: "TonalRange" 415 660 basechar 0
AnchorPoint: "Zaderzhka" 630 460 basechar 0
AnchorPoint: "Omet" 485 300 basechar 0
AnchorPoint: "Tochka" 485 325 basechar 0
AnchorPoint: "Podchashie" 378 245 basechar 0
LayerCount: 2
Fore
SplineSet
519 576 m 0
 544 576 588 521 588 494 c 2
 588 494 588 493 588 492 c 2
 575 374 l 1
 569 402 553 426 526 447 c 0
 523 450 518 451 513 451 c 0
 497 451 469 436 430 407 c 0
 345 344 225 224 71 48 c 1
 30 0 l 1
 58 273 l 1
 44 268 17 254 0 218 c 1
 4 252 -1 286 11 320 c 0
 23 355 52 369 68 373 c 1
 79 480 l 1
 105 496 l 1
 70 162 l 1
 168 283 280 395 406 498 c 1
 468 550 506 576 519 576 c 0
EndSplineSet
Validated: 3073
Ligature2: "Znamenny Priznakification-1" u1CF50 u1CF42
LCarets2: 1 0
Position2: "Advance neume with cinnabar mark-1" dx=200 dy=0 dh=0 dv=0
Colour: ffff00
EndChar

StartChar: uniEB67
Encoding: 60263 60263 192
Width: 625
VWidth: 999
Flags: W
HStem: 0 21G<32.0526 47.0833> 451 125<478.289 544.923>
AnchorPoint: "FinalPitch" 815 300 basechar 0
AnchorPoint: "Auxiliary" 265 800 basechar 0
AnchorPoint: "PitchMark" 130 770 basechar 0
AnchorPoint: "Lomka" 540 150 basechar 0
AnchorPoint: "Tikhaya" 0 370 basechar 0
AnchorPoint: "Borzaya" 0 150 basechar 0
AnchorPoint: "Zevok" 630 350 basechar 0
AnchorPoint: "Kachka" 50 660 basechar 0
AnchorPoint: "Kupnaya" 50 -50 basechar 0
AnchorPoint: "Podvertka" 630 380 basechar 0
AnchorPoint: "Flexion" 395 640 basechar 0
AnchorPoint: "Podtinka" 0 -50 basechar 0
AnchorPoint: "TonalRange" 415 660 basechar 0
AnchorPoint: "Zaderzhka" 630 460 basechar 0
AnchorPoint: "Omet" 485 300 basechar 0
AnchorPoint: "Tochka" 485 325 basechar 0
AnchorPoint: "Podchashie" 378 245 basechar 0
LayerCount: 2
Fore
SplineSet
519 576 m 0
 544 576 588 521 588 494 c 2
 588 494 588 493 588 492 c 2
 575 374 l 1
 569 402 553 426 526 447 c 0
 523 450 518 451 513 451 c 0
 497 451 469 436 430 407 c 0
 345 344 225 224 71 48 c 1
 30 0 l 1
 69 380 l 1
 55 375 28 361 10 325 c 1
 14 359 9 393 21 427 c 0
 37 477 96 493 105 496 c 1
 70 162 l 1
 168 283 280 395 406 498 c 1
 468 550 506 576 519 576 c 0
EndSplineSet
Validated: 3073
Ligature2: "Znamenny Priznakification-1" u1CF50 u1CF43
LCarets2: 1 0
Position2: "Advance neume with cinnabar mark-1" dx=200 dy=0 dh=0 dv=0
Colour: ffff00
EndChar

StartChar: uniEB6A
Encoding: 60266 60266 193
Width: 625
Flags: W
HStem: 0 20G<32.0513 47.0833 280.046 300> 451 125<478.289 544.923>
AnchorPoint: "FinalPitch" 815 300 basechar 0
AnchorPoint: "Podchashie" 420 200 basechar 0
AnchorPoint: "Auxiliary" 265 800 basechar 0
AnchorPoint: "PitchMark" 130 770 basechar 0
AnchorPoint: "Lomka" -340 150 basechar 0
AnchorPoint: "Tikhaya" 0 370 basechar 0
AnchorPoint: "Borzaya" 0 150 basechar 0
AnchorPoint: "Zevok" 630 350 basechar 0
AnchorPoint: "Kachka" 50 660 basechar 0
AnchorPoint: "Kupnaya" 50 -50 basechar 0
AnchorPoint: "Podvertka" 630 380 basechar 0
AnchorPoint: "Flexion" 395 640 basechar 0
AnchorPoint: "Podtinka" 0 -50 basechar 0
AnchorPoint: "TonalRange" 415 660 basechar 0
AnchorPoint: "Zaderzhka" 630 460 basechar 0
AnchorPoint: "Omet" 485 300 basechar 0
AnchorPoint: "Tochka" 485 325 basechar 0
LayerCount: 2
Fore
SplineSet
519 576 m 0
 544 576 588 521 588 494 c 2
 588 494 588 493 588 492 c 2
 575 374 l 1
 569 402 553 426 526 447 c 0
 523 450 518 451 513 451 c 0
 497 451 469 436 430 407 c 0
 401 386 369 358 332 324 c 1
 300 5 l 1
 278 -1 l 1
 309 302 l 1
 242 237 162 152 71 48 c 1
 30 0 l 1
 58 273 l 1
 44 268 17 254 0 218 c 1
 4 252 -1 286 11 320 c 0
 23 355 52 369 68 373 c 1
 79 480 l 1
 105 496 l 1
 70 162 l 1
 168 283 280 395 406 498 c 1
 468 550 506 576 519 576 c 0
EndSplineSet
Validated: 3073
Ligature2: "Znamenny Priznakification-1" u1CF51 u1CF42
LCarets2: 1 0
Position2: "Advance neume with cinnabar mark-1" dx=200 dy=0 dh=0 dv=0
Colour: ffff00
EndChar

StartChar: uniEB6B
Encoding: 60267 60267 194
Width: 625
Flags: W
HStem: 0 20G<32.0526 47.0833 280.046 300> 451 125<478.289 544.923>
AnchorPoint: "FinalPitch" 815 300 basechar 0
AnchorPoint: "Podchashie" 420 200 basechar 0
AnchorPoint: "Auxiliary" 265 800 basechar 0
AnchorPoint: "PitchMark" 130 770 basechar 0
AnchorPoint: "Lomka" -340 150 basechar 0
AnchorPoint: "Tikhaya" 0 370 basechar 0
AnchorPoint: "Borzaya" 0 150 basechar 0
AnchorPoint: "Zevok" 630 350 basechar 0
AnchorPoint: "Kachka" 50 660 basechar 0
AnchorPoint: "Kupnaya" 50 -50 basechar 0
AnchorPoint: "Podvertka" 630 380 basechar 0
AnchorPoint: "Flexion" 395 640 basechar 0
AnchorPoint: "Podtinka" 0 -50 basechar 0
AnchorPoint: "TonalRange" 415 660 basechar 0
AnchorPoint: "Zaderzhka" 630 460 basechar 0
AnchorPoint: "Omet" 485 300 basechar 0
AnchorPoint: "Tochka" 485 325 basechar 0
LayerCount: 2
Fore
SplineSet
519 576 m 0
 544 576 588 521 588 494 c 2
 588 494 588 493 588 492 c 2
 575 374 l 1
 569 402 553 426 526 447 c 0
 523 450 518 451 513 451 c 0
 497 451 469 436 430 407 c 0
 401 386 369 358 332 324 c 1
 300 5 l 1
 278 -1 l 1
 309 302 l 1
 242 237 162 152 71 48 c 1
 30 0 l 1
 69 380 l 1
 55 375 28 361 10 325 c 1
 14 359 9 393 21 427 c 0
 37 477 89 489 105 496 c 1
 70 162 l 1
 168 283 280 395 406 498 c 1
 468 550 506 576 519 576 c 0
EndSplineSet
Validated: 3073
Ligature2: "Znamenny Priznakification-1" u1CF51 u1CF43
LCarets2: 1 0
Position2: "Advance neume with cinnabar mark-1" dx=200 dy=0 dh=0 dv=0
Colour: ffff00
EndChar

StartChar: uniEB6E
Encoding: 60270 60270 195
Width: 625
VWidth: 999
Flags: W
HStem: 0 21G<40.0168 55.5> 450 126<484.736 554.296>
AnchorPoint: "FinalPitch" 815 300 basechar 0
AnchorPoint: "Auxiliary" 265 800 basechar 0
AnchorPoint: "TonalRange" 425 680 basechar 0
AnchorPoint: "PitchMark" 130 770 basechar 0
AnchorPoint: "Lomka" 540 150 basechar 0
AnchorPoint: "Tikhaya" 0 370 basechar 0
AnchorPoint: "Borzaya" 0 150 basechar 0
AnchorPoint: "Zevok" 630 350 basechar 0
AnchorPoint: "Kachka" 50 660 basechar 0
AnchorPoint: "Kupnaya" 50 -50 basechar 0
AnchorPoint: "Podvertka" 630 380 basechar 0
AnchorPoint: "Flexion" 395 640 basechar 0
AnchorPoint: "Podtinka" 0 -50 basechar 0
AnchorPoint: "Zaderzhka" 630 460 basechar 0
AnchorPoint: "Omet" 485 300 basechar 0
AnchorPoint: "Tochka" 485 325 basechar 0
AnchorPoint: "Podchashie" 378 245 basechar 0
LayerCount: 2
Fore
SplineSet
354 450 m 1
 451 535 509 576 527 576 c 0
 552.708828551 576 596.016754111 520.269526138 596.016754111 492.918276247 c 0
 596.016754111 492.608503164 596.011198902 492.302370351 596 492 c 2
 583 374 l 1
 577 402 561 426 534 447 c 0
 531 450 526 450 521 450 c 0
 505 450 477 437 438 408 c 0
 399 379 360 345 320 306 c 0
 235 222 155 136 80 48 c 1
 38 0 l 1
 62 238 l 1
 40 224 24 207 15 188 c 1
 26 290 l 1
 33 312 49 329 73 340 c 1
 87 480 l 1
 89 481 l 1
 101 510 139 542 166 555 c 2
 184 564 l 1
 174 456 l 1
 170 456 161 453 146 447 c 0
 131 441 117 430 104 413 c 1
 78 162 l 1
 153 255 237 343 329 426 c 1
 345 529 l 1
 370 545 l 1
 365 512 359 482 354 450 c 1
EndSplineSet
Validated: 3073
Ligature2: "Znamenny Priznakification-1" u1CF52 u1CF42
LCarets2: 1 0
Position2: "Advance neume with cinnabar mark-1" dx=200 dy=0 dh=0 dv=0
Colour: ffff00
EndChar

